{"asset":{"version":"2.0","generator":"RBMesh"},"scene":0,"scenes":[{"nodes":[0]}],"nodes":[{"mesh":0}],"meshes":[{"name":"GeneralMkIII_0","primitives":[{"attributes":{"POSITION":0,"NORMAL":1,"TANGENT":2,"TEXCOORD_0":3,"TEXCOORD_1":4,"TEXCOORD_2":5},"indices":6,"material":0,"mode":4}]}],"materials":[{"name":"GeneralMkIII","pbrMetallicRoughness":{"baseColorTexture":{"index":0},"metallicFactor":0,"roughnessFactor":1},"normalTexture":{"index":1}}],"textures":[{"sampler":0,"source":0},{"sampler":0,"source":1}],"images":[{"uri":"w502_sam_capstone_fh155_dif.png"},{"uri":"w502_sam_capstone_fh155_nrm.png"}],"samplers":[{"wrapS":10497,"wrapT":10497}],"accessors":[{"bufferView":0,"componentType":5126,"count":1170,"type":"VEC3","min":[0.15195072,0.49718174,-1.0317924],"max":[0.6634203,1.4361031,0.07985412]},{"bufferView":1,"componentType":5126,"count":1170,"type":"VEC3"},{"bufferView":2,"componentType":5126,"count":1170,"type":"VEC4"},{"bufferView":3,"componentType":5126,"count":1170,"type":"VEC2"},{"bufferView":4,"componentType":5126,"count":1170,"type":"VEC2"},{"bufferView":5,"componentType":5126,"count":1170,"type":"VEC2"},{"bufferView":6,"componentType":5125,"count":2664,"type":"SCALAR"}],"bufferViews":[{"buffer":0,"byteOffset":0,"byteLength":14040,"target":34962},{"buffer":0,"byteOffset":14040,"byteLength":14040,"target":34962},{"buffer":0,"byteOffset":28080,"byteLength":18720,"target":34962},{"buffer":0,"byteOffset":46800,"byteLength":9360,"target":34962},{"buffer":0,"byteOffset":56160,"byteLength":9360,"target":34962},{"buffer":0,"byteOffset":65520,"byteLength":9360,"target":34962},{"buffer":0,"byteOffset":74880,"byteLength":10656,"target":34963}],"buffers":[{"uri":"mission_a_turret_aa_gun__w502_sam_capstone_fh155_base_debris_2_lod1.bin","byteLength":85536}]}