{"asset":{"version":"2.0","generator":"RBMesh"},"scene":0,"scenes":[{"nodes":[0]}],"nodes":[{"mesh":0}],"meshes":[{"name":"GeneralMkIII_0","primitives":[{"attributes":{"POSITION":0,"NORMAL":1,"TANGENT":2,"TEXCOORD_0":3,"TEXCOORD_1":4,"TEXCOORD_2":5},"indices":6,"material":0,"mode":4}]}],"materials":[{"name":"GeneralMkIII","pbrMetallicRoughness":{"baseColorTexture":{"index":0},"metallicFactor":0,"roughnessFactor":1},"normalTexture":{"index":1}}],"textures":[{"sampler":0,"source":0},{"sampler":0,"source":1}],"images":[{"uri":"w502_sam_capstone_fh155_dif.png"},{"uri":"w502_sam_capstone_fh155_nrm.png"}],"samplers":[{"wrapS":10497,"wrapT":10497}],"accessors":[{"bufferView":0,"componentType":5126,"count":2542,"type":"VEC3","min":[-1.6508838,-0.20511673,-1.8736702],"max":[1.6578603,0.24188563,1.0055696]},{"bufferView":1,"componentType":5126,"count":2542,"type":"VEC3"},{"bufferView":2,"componentType":5126,"count":2542,"type":"VEC4"},{"bufferView":3,"componentType":5126,"count":2542,"type":"VEC2"},{"bufferView":4,"componentType":5126,"count":2542,"type":"VEC2"},{"bufferView":5,"componentType":5126,"count":2542,"type":"VEC2"},{"bufferView":6,"componentType":5125,"count":7341,"type":"SCALAR"}],"bufferViews":[{"buffer":0,"byteOffset":0,"byteLength":30504,"target":34962},{"buffer":0,"byteOffset":30504,"byteLength":30504,"target":34962},{"buffer":0,"byteOffset":61008,"byteLength":40672,"target":34962},{"buffer":0,"byteOffset":101680,"byteLength":20336,"target":34962},{"buffer":0,"byteOffset":122016,"byteLength":20336,"target":34962},{"buffer":0,"byteOffset":142352,"byteLength":20336,"target":34962},{"buffer":0,"byteOffset":162688,"byteLength":29364,"target":34963}],"buffers":[{"uri":"mission_a_turret_aa_gun__w502_sam_capstone_fh155_tripod_assembled_lod1.bin","byteLength":192052}]}