{"asset":{"version":"2.0","generator":"RBMesh"},"scene":0,"scenes":[{"nodes":[0]}],"nodes":[{"mesh":0}],"meshes":[{"name":"GeneralMkIII_0","primitives":[{"attributes":{"POSITION":0,"NORMAL":1,"TANGENT":2,"TEXCOORD_0":3,"TEXCOORD_1":4,"TEXCOORD_2":5},"indices":6,"material":0,"mode":4}]}],"materials":[{"name":"GeneralMkIII","pbrMetallicRoughness":{"baseColorTexture":{"index":0},"metallicFactor":0,"roughnessFactor":1},"normalTexture":{"index":1}}],"textures":[{"sampler":0,"source":0},{"sampler":0,"source":1}],"images":[{"uri":"w502_sam_capstone_fh155_dif.png"},{"uri":"w502_sam_capstone_fh155_nrm.png"}],"samplers":[{"wrapS":10497,"wrapT":10497}],"accessors":[{"bufferView":0,"componentType":5126,"count":324,"type":"VEC3","min":[0.013013228,0.17193037,-1.0633527],"max":[0.91348964,1.0231447,0.07730052]},{"bufferView":1,"componentType":5126,"count":324,"type":"VEC3"},{"bufferView":2,"componentType":5126,"count":324,"type":"VEC4"},{"bufferView":3,"componentType":5126,"count":324,"type":"VEC2"},{"bufferView":4,"componentType":5126,"count":324,"type":"VEC2"},{"bufferView":5,"componentType":5126,"count":324,"type":"VEC2"},{"bufferView":6,"componentType":5125,"count":1536,"type":"SCALAR"}],"bufferViews":[{"buffer":0,"byteOffset":0,"byteLength":3888,"target":34962},{"buffer":0,"byteOffset":3888,"byteLength":3888,"target":34962},{"buffer":0,"byteOffset":7776,"byteLength":5184,"target":34962},{"buffer":0,"byteOffset":12960,"byteLength":2592,"target":34962},{"buffer":0,"byteOffset":15552,"byteLength":2592,"target":34962},{"buffer":0,"byteOffset":18144,"byteLength":2592,"target":34962},{"buffer":0,"byteOffset":20736,"byteLength":6144,"target":34963}],"buffers":[{"uri":"mission_a_turret_aa_gun__w502_sam_capstone_fh155_ammo_right_body_lod1.bin","byteLength":26880}]}