{"asset":{"version":"2.0","generator":"RBMesh"},"scene":0,"scenes":[{"nodes":[0]}],"nodes":[{"mesh":0}],"meshes":[{"name":"GeneralMkIII_0","primitives":[{"attributes":{"POSITION":0,"NORMAL":1,"TANGENT":2,"TEXCOORD_0":3,"TEXCOORD_1":4,"TEXCOORD_2":5},"indices":6,"material":0,"mode":4}]}],"materials":[{"name":"GeneralMkIII","pbrMetallicRoughness":{"baseColorTexture":{"index":0},"metallicFactor":0,"roughnessFactor":1},"normalTexture":{"index":1}}],"textures":[{"sampler":0,"source":0},{"sampler":0,"source":1}],"images":[{"uri":"w502_sam_capstone_fh155_dif.png"},{"uri":"w502_sam_capstone_fh155_nrm.png"}],"samplers":[{"wrapS":10497,"wrapT":10497}],"accessors":[{"bufferView":0,"componentType":5126,"count":4263,"type":"VEC3","min":[-0.98766524,-0.2659435,-0.7699792],"max":[0.8922958,0.30820268,0.8225168]},{"bufferView":1,"componentType":5126,"count":4263,"type":"VEC3"},{"bufferView":2,"componentType":5126,"count":4263,"type":"VEC4"},{"bufferView":3,"componentType":5126,"count":4263,"type":"VEC2"},{"bufferView":4,"componentType":5126,"count":4263,"type":"VEC2"},{"bufferView":5,"componentType":5126,"count":4263,"type":"VEC2"},{"bufferView":6,"componentType":5125,"count":7647,"type":"SCALAR"}],"bufferViews":[{"buffer":0,"byteOffset":0,"byteLength":51156,"target":34962},{"buffer":0,"byteOffset":51156,"byteLength":51156,"target":34962},{"buffer":0,"byteOffset":102312,"byteLength":68208,"target":34962},{"buffer":0,"byteOffset":170520,"byteLength":34104,"target":34962},{"buffer":0,"byteOffset":204624,"byteLength":34104,"target":34962},{"buffer":0,"byteOffset":238728,"byteLength":34104,"target":34962},{"buffer":0,"byteOffset":272832,"byteLength":30588,"target":34963}],"buffers":[{"uri":"mission_a_turret_aa_gun__w502_sam_capstone_fh155_base_dst_lod1.bin","byteLength":303420}]}