{"asset":{"version":"2.0","generator":"RBMesh"},"scene":0,"scenes":[{"nodes":[0]}],"nodes":[{"mesh":0}],"meshes":[{"name":"GeneralMkIII_0","primitives":[{"attributes":{"POSITION":0,"NORMAL":1,"TANGENT":2,"TEXCOORD_0":3,"TEXCOORD_1":4,"TEXCOORD_2":5},"indices":6,"material":0,"mode":4}]}],"materials":[{"name":"GeneralMkIII","pbrMetallicRoughness":{"baseColorTexture":{"index":0},"metallicFactor":0,"roughnessFactor":1},"normalTexture":{"index":1}}],"textures":[{"sampler":0,"source":0},{"sampler":0,"source":1}],"images":[{"uri":"w502_sam_capstone_fh155_dif.png"},{"uri":"w502_sam_capstone_fh155_nrm.png"}],"samplers":[{"wrapS":10497,"wrapT":10497}],"accessors":[{"bufferView":0,"componentType":5126,"count":2316,"type":"VEC3","min":[0.4732605,0.37579653,-1.1154903],"max":[1.1246802,1.1997004,0.30883124]},{"bufferView":1,"componentType":5126,"count":2316,"type":"VEC3"},{"bufferView":2,"componentType":5126,"count":2316,"type":"VEC4"},{"bufferView":3,"componentType":5126,"count":2316,"type":"VEC2"},{"bufferView":4,"componentType":5126,"count":2316,"type":"VEC2"},{"bufferView":5,"componentType":5126,"count":2316,"type":"VEC2"},{"bufferView":6,"componentType":5125,"count":5088,"type":"SCALAR"}],"bufferViews":[{"buffer":0,"byteOffset":0,"byteLength":27792,"target":34962},{"buffer":0,"byteOffset":27792,"byteLength":27792,"target":34962},{"buffer":0,"byteOffset":55584,"byteLength":37056,"target":34962},{"buffer":0,"byteOffset":92640,"byteLength":18528,"target":34962},{"buffer":0,"byteOffset":111168,"byteLength":18528,"target":34962},{"buffer":0,"byteOffset":129696,"byteLength":18528,"target":34962},{"buffer":0,"byteOffset":148224,"byteLength":20352,"target":34963}],"buffers":[{"uri":"mission_a_turret_aa_gun__w502_sam_capstone_fh155_base_debris_5_lod1.bin","byteLength":168576}]}