{"asset":{"version":"2.0","generator":"RBMesh"},"scene":0,"scenes":[{"nodes":[0]}],"nodes":[{"mesh":0}],"meshes":[{"name":"GeneralMkIII_0","primitives":[{"attributes":{"POSITION":0,"NORMAL":1,"TANGENT":2,"TEXCOORD_0":3,"TEXCOORD_1":4,"TEXCOORD_2":5},"indices":6,"material":0,"mode":4}]}],"materials":[{"name":"GeneralMkIII","pbrMetallicRoughness":{"baseColorTexture":{"index":0},"metallicFactor":0,"roughnessFactor":1},"normalTexture":{"index":1}}],"textures":[{"sampler":0,"source":0},{"sampler":0,"source":1}],"images":[{"uri":"w011_pistol_u_pozhar_98_dif.png"},{"uri":"w011_pistol_u_pozhar_98_nrm.png"}],"samplers":[{"wrapS":10497,"wrapT":10497}],"accessors":[{"bufferView":0,"componentType":5126,"count":114,"type":"VEC3","min":[-0.008175519,-0.031062039,-0.04250992],"max":[0.008079953,0.05050664,0.021503896]},{"bufferView":1,"componentType":5126,"count":114,"type":"VEC3"},{"bufferView":2,"componentType":5126,"count":114,"type":"VEC4"},{"bufferView":3,"componentType":5126,"count":114,"type":"VEC2"},{"bufferView":4,"componentType":5126,"count":114,"type":"VEC2"},{"bufferView":5,"componentType":5126,"count":114,"type":"VEC2"},{"bufferView":6,"componentType":5125,"count":336,"type":"SCALAR"}],"bufferViews":[{"buffer":0,"byteOffset":0,"byteLength":1368,"target":34962},{"buffer":0,"byteOffset":1368,"byteLength":1368,"target":34962},{"buffer":0,"byteOffset":2736,"byteLength":1824,"target":34962},{"buffer":0,"byteOffset":4560,"byteLength":912,"target":34962},{"buffer":0,"byteOffset":5472,"byteLength":912,"target":34962},{"buffer":0,"byteOffset":6384,"byteLength":912,"target":34962},{"buffer":0,"byteOffset":7296,"byteLength":1344,"target":34963}],"buffers":[{"uri":"w011_pistol_u_pozhar_98_mag__w011_pistol_u_pozhar_98_mag_lod1.bin","byteLength":8640}]}