{"asset":{"version":"2.0","generator":"RBMesh"},"scene":0,"scenes":[{"nodes":[0]}],"nodes":[{"mesh":0}],"meshes":[{"name":"GeneralMkIII_0","primitives":[{"attributes":{"POSITION":0,"NORMAL":1,"TANGENT":2,"TEXCOORD_0":3,"TEXCOORD_1":4,"TEXCOORD_2":5},"indices":6,"material":0,"mode":4}]}],"materials":[{"name":"GeneralMkIII","pbrMetallicRoughness":{"baseColorTexture":{"index":0},"metallicFactor":0,"roughnessFactor":1},"normalTexture":{"index":1}}],"textures":[{"sampler":0,"source":0},{"sampler":0,"source":1}],"images":[{"uri":"w012_pistol_cs_spectre_mark_v_dif.png"},{"uri":"w012_pistol_cs_spectre_mark_v_nrm.png"}],"samplers":[{"wrapS":10497,"wrapT":10497}],"accessors":[{"bufferView":0,"componentType":5126,"count":455,"type":"VEC3","min":[-0.0158135,0.09049245,-0.24167216],"max":[0.016484687,0.13406809,0.016204411]},{"bufferView":1,"componentType":5126,"count":455,"type":"VEC3"},{"bufferView":2,"componentType":5126,"count":455,"type":"VEC4"},{"bufferView":3,"componentType":5126,"count":455,"type":"VEC2"},{"bufferView":4,"componentType":5126,"count":455,"type":"VEC2"},{"bufferView":5,"componentType":5126,"count":455,"type":"VEC2"},{"bufferView":6,"componentType":5125,"count":1584,"type":"SCALAR"}],"bufferViews":[{"buffer":0,"byteOffset":0,"byteLength":5460,"target":34962},{"buffer":0,"byteOffset":5460,"byteLength":5460,"target":34962},{"buffer":0,"byteOffset":10920,"byteLength":7280,"target":34962},{"buffer":0,"byteOffset":18200,"byteLength":3640,"target":34962},{"buffer":0,"byteOffset":21840,"byteLength":3640,"target":34962},{"buffer":0,"byteOffset":25480,"byteLength":3640,"target":34962},{"buffer":0,"byteOffset":29120,"byteLength":6336,"target":34963}],"buffers":[{"uri":"w012_pistol_cs_spectre_mark_v__w012_pistol_cs_spectre_mark_v_slide_lod1.bin","byteLength":35456}]}