{"asset":{"version":"2.0","generator":"RBMesh"},"scene":0,"scenes":[{"nodes":[0]}],"nodes":[{"mesh":0}],"meshes":[{"name":"GeneralMkIII_0","primitives":[{"attributes":{"POSITION":0,"NORMAL":1,"TANGENT":2,"TEXCOORD_0":3,"TEXCOORD_1":4,"TEXCOORD_2":5},"indices":6,"material":0,"mode":4}]}],"materials":[{"name":"GeneralMkIII","pbrMetallicRoughness":{"baseColorTexture":{"index":0},"metallicFactor":0,"roughnessFactor":1},"normalTexture":{"index":1}}],"textures":[{"sampler":0,"source":0},{"sampler":0,"source":1}],"images":[{"uri":"w012_pistol_cs_spectre_mark_v_dif.png"},{"uri":"w012_pistol_cs_spectre_mark_v_nrm.png"}],"samplers":[{"wrapS":10497,"wrapT":10497}],"accessors":[{"bufferView":0,"componentType":5126,"count":1187,"type":"VEC3","min":[-0.01648128,-0.045603752,-0.23696451],"max":[0.016249863,0.12513189,0.032977026]},{"bufferView":1,"componentType":5126,"count":1187,"type":"VEC3"},{"bufferView":2,"componentType":5126,"count":1187,"type":"VEC4"},{"bufferView":3,"componentType":5126,"count":1187,"type":"VEC2"},{"bufferView":4,"componentType":5126,"count":1187,"type":"VEC2"},{"bufferView":5,"componentType":5126,"count":1187,"type":"VEC2"},{"bufferView":6,"componentType":5125,"count":4104,"type":"SCALAR"}],"bufferViews":[{"buffer":0,"byteOffset":0,"byteLength":14244,"target":34962},{"buffer":0,"byteOffset":14244,"byteLength":14244,"target":34962},{"buffer":0,"byteOffset":28488,"byteLength":18992,"target":34962},{"buffer":0,"byteOffset":47480,"byteLength":9496,"target":34962},{"buffer":0,"byteOffset":56976,"byteLength":9496,"target":34962},{"buffer":0,"byteOffset":66472,"byteLength":9496,"target":34962},{"buffer":0,"byteOffset":75968,"byteLength":16416,"target":34963}],"buffers":[{"uri":"w012_pistol_cs_spectre_mark_v__w012_pistol_cs_spectre_mark_v_body_lod1.bin","byteLength":92384}]}