{"asset":{"version":"2.0","generator":"RBMesh"},"scene":0,"scenes":[{"nodes":[0,1]}],"nodes":[{"mesh":0},{"mesh":1}],"meshes":[{"name":"GeneralMkIII_0","primitives":[{"attributes":{"POSITION":0,"NORMAL":1,"TANGENT":2,"TEXCOORD_0":3,"TEXCOORD_1":4,"TEXCOORD_2":5},"indices":6,"material":0,"mode":4}]},{"name":"GeneralMkIII_1","primitives":[{"attributes":{"POSITION":7,"NORMAL":8,"TANGENT":9,"TEXCOORD_0":10,"TEXCOORD_1":11,"TEXCOORD_2":12},"indices":13,"material":1,"mode":4}]}],"materials":[{"name":"GeneralMkIII","pbrMetallicRoughness":{"baseColorTexture":{"index":0},"metallicFactor":0,"roughnessFactor":1},"normalTexture":{"index":1}},{"name":"GeneralMkIII","pbrMetallicRoughness":{"baseColorTexture":{"index":2},"metallicFactor":0,"roughnessFactor":1},"normalTexture":{"index":3}}],"textures":[{"sampler":0,"source":0},{"sampler":0,"source":1},{"sampler":0,"source":2},{"sampler":0,"source":3}],"images":[{"uri":"w012_pistol_cs_spectre_mark_v_dif.png"},{"uri":"w012_pistol_cs_spectre_mark_v_nrm.png"},{"uri":"w011_pistol_u_pozhar_98_dif.png"},{"uri":"w011_pistol_u_pozhar_98_nrm.png"}],"samplers":[{"wrapS":10497,"wrapT":10497}],"accessors":[{"bufferView":0,"componentType":5126,"count":56,"type":"VEC3","min":[-0.013174534,-0.07203236,-0.03238126],"max":[0.013174534,-0.054219373,0.029694911]},{"bufferView":1,"componentType":5126,"count":56,"type":"VEC3"},{"bufferView":2,"componentType":5126,"count":56,"type":"VEC4"},{"bufferView":3,"componentType":5126,"count":56,"type":"VEC2"},{"bufferView":4,"componentType":5126,"count":56,"type":"VEC2"},{"bufferView":5,"componentType":5126,"count":56,"type":"VEC2"},{"bufferView":6,"componentType":5125,"count":144,"type":"SCALAR"},{"bufferView":7,"componentType":5126,"count":46,"type":"VEC3","min":[-0.01016943,-0.056714464,-0.029400336],"max":[0.008597631,0.06017902,0.026254538]},{"bufferView":8,"componentType":5126,"count":46,"type":"VEC3"},{"bufferView":9,"componentType":5126,"count":46,"type":"VEC4"},{"bufferView":10,"componentType":5126,"count":46,"type":"VEC2"},{"bufferView":11,"componentType":5126,"count":46,"type":"VEC2"},{"bufferView":12,"componentType":5126,"count":46,"type":"VEC2"},{"bufferView":13,"componentType":5125,"count":120,"type":"SCALAR"}],"bufferViews":[{"buffer":0,"byteOffset":0,"byteLength":672,"target":34962},{"buffer":0,"byteOffset":672,"byteLength":672,"target":34962},{"buffer":0,"byteOffset":1344,"byteLength":896,"target":34962},{"buffer":0,"byteOffset":2240,"byteLength":448,"target":34962},{"buffer":0,"byteOffset":2688,"byteLength":448,"target":34962},{"buffer":0,"byteOffset":3136,"byteLength":448,"target":34962},{"buffer":0,"byteOffset":3584,"byteLength":576,"target":34963},{"buffer":0,"byteOffset":4160,"byteLength":552,"target":34962},{"buffer":0,"byteOffset":4712,"byteLength":552,"target":34962},{"buffer":0,"byteOffset":5264,"byteLength":736,"target":34962},{"buffer":0,"byteOffset":6000,"byteLength":368,"target":34962},{"buffer":0,"byteOffset":6368,"byteLength":368,"target":34962},{"buffer":0,"byteOffset":6736,"byteLength":368,"target":34962},{"buffer":0,"byteOffset":7104,"byteLength":480,"target":34963}],"buffers":[{"uri":"w012_pistol_cs_spectre_mark_v_mag__w012_pistol_cs_spectre_mark_v_mag_lod1.bin","byteLength":7584}]}