{"asset":{"version":"2.0","generator":"RBMesh"},"scene":0,"scenes":[{"nodes":[0]}],"nodes":[{"mesh":0}],"meshes":[{"name":"GeneralMkIII_0","primitives":[{"attributes":{"POSITION":0,"NORMAL":1,"TANGENT":2,"TEXCOORD_0":3,"TEXCOORD_1":4,"TEXCOORD_2":5},"indices":6,"material":0,"mode":4}]}],"materials":[{"name":"GeneralMkIII","pbrMetallicRoughness":{"baseColorTexture":{"index":0},"metallicFactor":0,"roughnessFactor":1},"normalTexture":{"index":1}}],"textures":[{"sampler":0,"source":0},{"sampler":0,"source":1}],"images":[{"uri":"w011_pistol_u_pozhar_98_dif.png"},{"uri":"w011_pistol_u_pozhar_98_nrm.png"}],"samplers":[{"wrapS":10497,"wrapT":10497}],"accessors":[{"bufferView":0,"componentType":5126,"count":1268,"type":"VEC3","min":[-0.013765665,0.073849656,-0.18180554],"max":[0.014198443,0.123153046,0.016179234]},{"bufferView":1,"componentType":5126,"count":1268,"type":"VEC3"},{"bufferView":2,"componentType":5126,"count":1268,"type":"VEC4"},{"bufferView":3,"componentType":5126,"count":1268,"type":"VEC2"},{"bufferView":4,"componentType":5126,"count":1268,"type":"VEC2"},{"bufferView":5,"componentType":5126,"count":1268,"type":"VEC2"},{"bufferView":6,"componentType":5125,"count":3930,"type":"SCALAR"}],"bufferViews":[{"buffer":0,"byteOffset":0,"byteLength":15216,"target":34962},{"buffer":0,"byteOffset":15216,"byteLength":15216,"target":34962},{"buffer":0,"byteOffset":30432,"byteLength":20288,"target":34962},{"buffer":0,"byteOffset":50720,"byteLength":10144,"target":34962},{"buffer":0,"byteOffset":60864,"byteLength":10144,"target":34962},{"buffer":0,"byteOffset":71008,"byteLength":10144,"target":34962},{"buffer":0,"byteOffset":81152,"byteLength":15720,"target":34963}],"buffers":[{"uri":"w013_pistol_balloon_head__w011_pistol_u_pozhar_98_slide_lod1.bin","byteLength":96872}]}