{"asset":{"version":"2.0","generator":"RBMesh"},"scene":0,"scenes":[{"nodes":[0]}],"nodes":[{"mesh":0}],"meshes":[{"name":"GeneralMkIII_0","primitives":[{"attributes":{"POSITION":0,"NORMAL":1,"TANGENT":2,"TEXCOORD_0":3,"TEXCOORD_1":4,"TEXCOORD_2":5},"indices":6,"material":0,"mode":4}]}],"materials":[{"name":"GeneralMkIII","pbrMetallicRoughness":{"baseColorTexture":{"index":0},"metallicFactor":0,"roughnessFactor":1},"normalTexture":{"index":1}}],"textures":[{"sampler":0,"source":0},{"sampler":0,"source":1}],"images":[{"uri":"w021_revolver_peacekeeper_diravello_dif.png"},{"uri":"w021_revolver_peacekeeper_diravello_nrm.png"}],"samplers":[{"wrapS":10497,"wrapT":10497}],"accessors":[{"bufferView":0,"componentType":5126,"count":2668,"type":"VEC3","min":[-0.02321454,-0.015366744,-0.2912216],"max":[0.02321454,0.14482424,0.0381369]},{"bufferView":1,"componentType":5126,"count":2668,"type":"VEC3"},{"bufferView":2,"componentType":5126,"count":2668,"type":"VEC4"},{"bufferView":3,"componentType":5126,"count":2668,"type":"VEC2"},{"bufferView":4,"componentType":5126,"count":2668,"type":"VEC2"},{"bufferView":5,"componentType":5126,"count":2668,"type":"VEC2"},{"bufferView":6,"componentType":5125,"count":9600,"type":"SCALAR"}],"bufferViews":[{"buffer":0,"byteOffset":0,"byteLength":32016,"target":34962},{"buffer":0,"byteOffset":32016,"byteLength":32016,"target":34962},{"buffer":0,"byteOffset":64032,"byteLength":42688,"target":34962},{"buffer":0,"byteOffset":106720,"byteLength":21344,"target":34962},{"buffer":0,"byteOffset":128064,"byteLength":21344,"target":34962},{"buffer":0,"byteOffset":149408,"byteLength":21344,"target":34962},{"buffer":0,"byteOffset":170752,"byteLength":38400,"target":34963}],"buffers":[{"uri":"w014_handgun_little_general__w021_revolver_peacekeeper_diravello_body_lod1.bin","byteLength":209152}]}