{"asset":{"version":"2.0","generator":"RBMesh"},"scene":0,"scenes":[{"nodes":[0,1]}],"nodes":[{"mesh":0},{"mesh":1}],"meshes":[{"name":"GeneralMkIII_0","primitives":[{"attributes":{"POSITION":0,"NORMAL":1,"TANGENT":2,"TEXCOORD_0":3,"TEXCOORD_1":4,"TEXCOORD_2":5},"indices":6,"material":0,"mode":4}]},{"name":"GeneralMkIII_1","primitives":[{"attributes":{"POSITION":7,"NORMAL":8,"TANGENT":9,"TEXCOORD_0":10,"TEXCOORD_1":11,"TEXCOORD_2":12},"indices":13,"material":1,"mode":4}]}],"materials":[{"name":"GeneralMkIII","pbrMetallicRoughness":{"baseColorTexture":{"index":0},"metallicFactor":0,"roughnessFactor":1},"normalTexture":{"index":1}},{"name":"GeneralMkIII","pbrMetallicRoughness":{"baseColorTexture":{"index":2},"metallicFactor":0,"roughnessFactor":1},"normalTexture":{"index":3}}],"textures":[{"sampler":0,"source":0},{"sampler":0,"source":1},{"sampler":0,"source":0},{"sampler":0,"source":1}],"images":[{"uri":"w021_revolver_peacekeeper_dif.png"},{"uri":"w021_revolver_peacekeeper_nrm.png"}],"samplers":[{"wrapS":10497,"wrapT":10497}],"accessors":[{"bufferView":0,"componentType":5126,"count":2053,"type":"VEC3","min":[-0.022361325,-0.015366744,-0.2912216],"max":[0.022361325,0.14482424,0.0381369]},{"bufferView":1,"componentType":5126,"count":2053,"type":"VEC3"},{"bufferView":2,"componentType":5126,"count":2053,"type":"VEC4"},{"bufferView":3,"componentType":5126,"count":2053,"type":"VEC2"},{"bufferView":4,"componentType":5126,"count":2053,"type":"VEC2"},{"bufferView":5,"componentType":5126,"count":2053,"type":"VEC2"},{"bufferView":6,"componentType":5125,"count":7185,"type":"SCALAR"},{"bufferView":7,"componentType":5126,"count":644,"type":"VEC3","min":[-0.02321454,0.08352613,-0.11066011],"max":[0.02321454,0.12996408,-0.05688984]},{"bufferView":8,"componentType":5126,"count":644,"type":"VEC3"},{"bufferView":9,"componentType":5126,"count":644,"type":"VEC4"},{"bufferView":10,"componentType":5126,"count":644,"type":"VEC2"},{"bufferView":11,"componentType":5126,"count":644,"type":"VEC2"},{"bufferView":12,"componentType":5126,"count":644,"type":"VEC2"},{"bufferView":13,"componentType":5125,"count":2508,"type":"SCALAR"}],"bufferViews":[{"buffer":0,"byteOffset":0,"byteLength":24636,"target":34962},{"buffer":0,"byteOffset":24636,"byteLength":24636,"target":34962},{"buffer":0,"byteOffset":49272,"byteLength":32848,"target":34962},{"buffer":0,"byteOffset":82120,"byteLength":16424,"target":34962},{"buffer":0,"byteOffset":98544,"byteLength":16424,"target":34962},{"buffer":0,"byteOffset":114968,"byteLength":16424,"target":34962},{"buffer":0,"byteOffset":131392,"byteLength":28740,"target":34963},{"buffer":0,"byteOffset":160132,"byteLength":7728,"target":34962},{"buffer":0,"byteOffset":167860,"byteLength":7728,"target":34962},{"buffer":0,"byteOffset":175588,"byteLength":10304,"target":34962},{"buffer":0,"byteOffset":185892,"byteLength":5152,"target":34962},{"buffer":0,"byteOffset":191044,"byteLength":5152,"target":34962},{"buffer":0,"byteOffset":196196,"byteLength":5152,"target":34962},{"buffer":0,"byteOffset":201348,"byteLength":10032,"target":34963}],"buffers":[{"uri":"w021_handgun_peacekeeper__w021_revolver_peacekeeper_body_lod1.bin","byteLength":211380}]}