{"asset":{"version":"2.0","generator":"RBMesh"},"scene":0,"scenes":[{"nodes":[0]}],"nodes":[{"mesh":0}],"meshes":[{"name":"GeneralMkIII_0","primitives":[{"attributes":{"POSITION":0,"NORMAL":1,"TANGENT":2,"TEXCOORD_0":3,"TEXCOORD_1":4,"TEXCOORD_2":5},"indices":6,"material":0,"mode":4}]}],"materials":[{"name":"GeneralMkIII","pbrMetallicRoughness":{"baseColorTexture":{"index":0},"metallicFactor":0,"roughnessFactor":1},"normalTexture":{"index":1}}],"textures":[{"sampler":0,"source":0},{"sampler":0,"source":1}],"images":[{"uri":"w031_smg_prizrak_u4_diff.png"},{"uri":"w031_smg_prizrak_u4_nrm.png"}],"samplers":[{"wrapS":10497,"wrapT":10497}],"accessors":[{"bufferView":0,"componentType":5126,"count":3202,"type":"VEC3","min":[-0.015050184,-0.12625559,-0.37760288],"max":[0.021549651,0.13410336,0.047305517]},{"bufferView":1,"componentType":5126,"count":3202,"type":"VEC3"},{"bufferView":2,"componentType":5126,"count":3202,"type":"VEC4"},{"bufferView":3,"componentType":5126,"count":3202,"type":"VEC2"},{"bufferView":4,"componentType":5126,"count":3202,"type":"VEC2"},{"bufferView":5,"componentType":5126,"count":3202,"type":"VEC2"},{"bufferView":6,"componentType":5125,"count":11337,"type":"SCALAR"}],"bufferViews":[{"buffer":0,"byteOffset":0,"byteLength":38424,"target":34962},{"buffer":0,"byteOffset":38424,"byteLength":38424,"target":34962},{"buffer":0,"byteOffset":76848,"byteLength":51232,"target":34962},{"buffer":0,"byteOffset":128080,"byteLength":25616,"target":34962},{"buffer":0,"byteOffset":153696,"byteLength":25616,"target":34962},{"buffer":0,"byteOffset":179312,"byteLength":25616,"target":34962},{"buffer":0,"byteOffset":204928,"byteLength":45348,"target":34963}],"buffers":[{"uri":"w031_smg_prizrak_u4__w031_smg_prizrak_u4_body_lod1.bin","byteLength":250276}]}