{"asset":{"version":"2.0","generator":"RBMesh"},"scene":0,"scenes":[{"nodes":[0]}],"nodes":[{"mesh":0}],"meshes":[{"name":"GeneralMkIII_0","primitives":[{"attributes":{"POSITION":0,"NORMAL":1,"TANGENT":2,"TEXCOORD_0":3,"TEXCOORD_1":4,"TEXCOORD_2":5},"indices":6,"material":0,"mode":4}]}],"materials":[{"name":"GeneralMkIII","pbrMetallicRoughness":{"baseColorTexture":{"index":0},"metallicFactor":0,"roughnessFactor":1},"normalTexture":{"index":1}}],"textures":[{"sampler":0,"source":0},{"sampler":0,"source":1}],"images":[{"uri":"bullet_casing_dif.png"},{"uri":"bullet_casing_nrm.png"}],"samplers":[{"wrapS":10497,"wrapT":10497}],"accessors":[{"bufferView":0,"componentType":5126,"count":176,"type":"VEC3","min":[-0.006476707,-0.0064034,-0.016229905],"max":[0.006291955,0.0063652615,0.016177896]},{"bufferView":1,"componentType":5126,"count":176,"type":"VEC3"},{"bufferView":2,"componentType":5126,"count":176,"type":"VEC4"},{"bufferView":3,"componentType":5126,"count":176,"type":"VEC2"},{"bufferView":4,"componentType":5126,"count":176,"type":"VEC2"},{"bufferView":5,"componentType":5126,"count":176,"type":"VEC2"},{"bufferView":6,"componentType":5125,"count":576,"type":"SCALAR"}],"bufferViews":[{"buffer":0,"byteOffset":0,"byteLength":2112,"target":34962},{"buffer":0,"byteOffset":2112,"byteLength":2112,"target":34962},{"buffer":0,"byteOffset":4224,"byteLength":2816,"target":34962},{"buffer":0,"byteOffset":7040,"byteLength":1408,"target":34962},{"buffer":0,"byteOffset":8448,"byteLength":1408,"target":34962},{"buffer":0,"byteOffset":9856,"byteLength":1408,"target":34962},{"buffer":0,"byteOffset":11264,"byteLength":2304,"target":34963}],"buffers":[{"uri":"w031_smg_prizrak_u4__pistol_casing_bullet_casing_lod1.bin","byteLength":13568}]}