{"asset":{"version":"2.0","generator":"RBMesh"},"scene":0,"scenes":[{"nodes":[0]}],"nodes":[{"mesh":0}],"meshes":[{"name":"GeneralMkIII_0","primitives":[{"attributes":{"POSITION":0,"NORMAL":1,"TANGENT":2,"TEXCOORD_0":3,"TEXCOORD_1":4,"TEXCOORD_2":5},"indices":6,"material":0,"mode":4}]}],"materials":[{"name":"GeneralMkIII","pbrMetallicRoughness":{"baseColorTexture":{"index":0},"metallicFactor":0,"roughnessFactor":1},"normalTexture":{"index":1}}],"textures":[{"sampler":0,"source":0},{"sampler":0,"source":1}],"images":[{"uri":"w032_smg_cs_wraith_2000_dif.png"},{"uri":"w032_smg_cs_wraith_2000_nrm.png"}],"samplers":[{"wrapS":10497,"wrapT":10497}],"accessors":[{"bufferView":0,"componentType":5126,"count":113,"type":"VEC3","min":[-0.010304607,-0.027905228,-0.03741664],"max":[0.010330045,0.075774476,0.021892665]},{"bufferView":1,"componentType":5126,"count":113,"type":"VEC3"},{"bufferView":2,"componentType":5126,"count":113,"type":"VEC4"},{"bufferView":3,"componentType":5126,"count":113,"type":"VEC2"},{"bufferView":4,"componentType":5126,"count":113,"type":"VEC2"},{"bufferView":5,"componentType":5126,"count":113,"type":"VEC2"},{"bufferView":6,"componentType":5125,"count":276,"type":"SCALAR"}],"bufferViews":[{"buffer":0,"byteOffset":0,"byteLength":1356,"target":34962},{"buffer":0,"byteOffset":1356,"byteLength":1356,"target":34962},{"buffer":0,"byteOffset":2712,"byteLength":1808,"target":34962},{"buffer":0,"byteOffset":4520,"byteLength":904,"target":34962},{"buffer":0,"byteOffset":5424,"byteLength":904,"target":34962},{"buffer":0,"byteOffset":6328,"byteLength":904,"target":34962},{"buffer":0,"byteOffset":7232,"byteLength":1104,"target":34963}],"buffers":[{"uri":"w032_smg_cs_wraith_2000_mag__w032_smg_cs_wraith_2000_mag_lod1.bin","byteLength":8336}]}