{"asset":{"version":"2.0","generator":"RBMesh"},"scene":0,"scenes":[{"nodes":[0]}],"nodes":[{"mesh":0}],"meshes":[{"name":"GeneralMkIII_0","primitives":[{"attributes":{"POSITION":0,"NORMAL":1,"TANGENT":2,"TEXCOORD_0":3,"TEXCOORD_1":4,"TEXCOORD_2":5},"indices":6,"material":0,"mode":4}]}],"materials":[{"name":"GeneralMkIII","pbrMetallicRoughness":{"baseColorTexture":{"index":0},"metallicFactor":0,"roughnessFactor":1},"normalTexture":{"index":1}}],"textures":[{"sampler":0,"source":0},{"sampler":0,"source":1}],"images":[{"uri":"w032_smg_cs_wraith_2000_dif.png"},{"uri":"w032_smg_cs_wraith_2000_nrm.png"}],"samplers":[{"wrapS":10497,"wrapT":10497}],"accessors":[{"bufferView":0,"componentType":5126,"count":4298,"type":"VEC3","min":[-0.01632646,-0.04048379,-0.29836535],"max":[0.025386598,0.15659015,0.087942526]},{"bufferView":1,"componentType":5126,"count":4298,"type":"VEC3"},{"bufferView":2,"componentType":5126,"count":4298,"type":"VEC4"},{"bufferView":3,"componentType":5126,"count":4298,"type":"VEC2"},{"bufferView":4,"componentType":5126,"count":4298,"type":"VEC2"},{"bufferView":5,"componentType":5126,"count":4298,"type":"VEC2"},{"bufferView":6,"componentType":5125,"count":11433,"type":"SCALAR"}],"bufferViews":[{"buffer":0,"byteOffset":0,"byteLength":51576,"target":34962},{"buffer":0,"byteOffset":51576,"byteLength":51576,"target":34962},{"buffer":0,"byteOffset":103152,"byteLength":68768,"target":34962},{"buffer":0,"byteOffset":171920,"byteLength":34384,"target":34962},{"buffer":0,"byteOffset":206304,"byteLength":34384,"target":34962},{"buffer":0,"byteOffset":240688,"byteLength":34384,"target":34962},{"buffer":0,"byteOffset":275072,"byteLength":45732,"target":34963}],"buffers":[{"uri":"w032_smg_cs_wraith_2000__w032_smg_cs_wraith_2000_body_lod1.bin","byteLength":320804}]}