{"asset":{"version":"2.0","generator":"RBMesh"},"scene":0,"scenes":[{"nodes":[0]}],"nodes":[{"mesh":0}],"meshes":[{"name":"GeneralMkIII_0","primitives":[{"attributes":{"POSITION":0,"NORMAL":1,"TANGENT":2,"TEXCOORD_0":3,"TEXCOORD_1":4,"TEXCOORD_2":5},"indices":6,"material":0,"mode":4}]}],"materials":[{"name":"GeneralMkIII","pbrMetallicRoughness":{"baseColorTexture":{"index":0},"metallicFactor":0,"roughnessFactor":1},"normalTexture":{"index":1}}],"textures":[{"sampler":0,"source":0},{"sampler":0,"source":1}],"images":[{"uri":"w033_cs9_dif.png"},{"uri":"w033_cs9_nrm.png"}],"samplers":[{"wrapS":10497,"wrapT":10497}],"accessors":[{"bufferView":0,"componentType":5126,"count":4968,"type":"VEC3","min":[-0.022841943,-0.051532127,-0.24074042],"max":[0.022841943,0.15652867,0.11670036]},{"bufferView":1,"componentType":5126,"count":4968,"type":"VEC3"},{"bufferView":2,"componentType":5126,"count":4968,"type":"VEC4"},{"bufferView":3,"componentType":5126,"count":4968,"type":"VEC2"},{"bufferView":4,"componentType":5126,"count":4968,"type":"VEC2"},{"bufferView":5,"componentType":5126,"count":4968,"type":"VEC2"},{"bufferView":6,"componentType":5125,"count":14568,"type":"SCALAR"}],"bufferViews":[{"buffer":0,"byteOffset":0,"byteLength":59616,"target":34962},{"buffer":0,"byteOffset":59616,"byteLength":59616,"target":34962},{"buffer":0,"byteOffset":119232,"byteLength":79488,"target":34962},{"buffer":0,"byteOffset":198720,"byteLength":39744,"target":34962},{"buffer":0,"byteOffset":238464,"byteLength":39744,"target":34962},{"buffer":0,"byteOffset":278208,"byteLength":39744,"target":34962},{"buffer":0,"byteOffset":317952,"byteLength":58272,"target":34963}],"buffers":[{"uri":"w033_smg_cs_9__w033_cs9_body_lod1.bin","byteLength":376224}]}