{"asset":{"version":"2.0","generator":"RBMesh"},"scene":0,"scenes":[{"nodes":[0]}],"nodes":[{"mesh":0}],"meshes":[{"name":"GeneralMkIII_0","primitives":[{"attributes":{"POSITION":0,"NORMAL":1,"TANGENT":2,"TEXCOORD_0":3,"TEXCOORD_1":4,"TEXCOORD_2":5},"indices":6,"material":0,"mode":4}]}],"materials":[{"name":"GeneralMkIII","pbrMetallicRoughness":{"baseColorTexture":{"index":0},"metallicFactor":0,"roughnessFactor":1},"normalTexture":{"index":1}}],"textures":[{"sampler":0,"source":0},{"sampler":0,"source":1}],"images":[{"uri":"w111_assault_rifle_up_39_dif.png"},{"uri":"w111_assault_rifle_up_39_nrm.png"}],"samplers":[{"wrapS":10497,"wrapT":10497}],"accessors":[{"bufferView":0,"componentType":5126,"count":2584,"type":"VEC3","min":[-0.027595177,-0.031397928,-0.55134827],"max":[0.040400013,0.19473109,0.2757162]},{"bufferView":1,"componentType":5126,"count":2584,"type":"VEC3"},{"bufferView":2,"componentType":5126,"count":2584,"type":"VEC4"},{"bufferView":3,"componentType":5126,"count":2584,"type":"VEC2"},{"bufferView":4,"componentType":5126,"count":2584,"type":"VEC2"},{"bufferView":5,"componentType":5126,"count":2584,"type":"VEC2"},{"bufferView":6,"componentType":5125,"count":8376,"type":"SCALAR"}],"bufferViews":[{"buffer":0,"byteOffset":0,"byteLength":31008,"target":34962},{"buffer":0,"byteOffset":31008,"byteLength":31008,"target":34962},{"buffer":0,"byteOffset":62016,"byteLength":41344,"target":34962},{"buffer":0,"byteOffset":103360,"byteLength":20672,"target":34962},{"buffer":0,"byteOffset":124032,"byteLength":20672,"target":34962},{"buffer":0,"byteOffset":144704,"byteLength":20672,"target":34962},{"buffer":0,"byteOffset":165376,"byteLength":33504,"target":34963}],"buffers":[{"uri":"w111_assault_rifle_up_39__w111_assault_rifle_up_39_body_lod1.bin","byteLength":198880}]}