{"asset":{"version":"2.0","generator":"RBMesh"},"scene":0,"scenes":[{"nodes":[0]}],"nodes":[{"mesh":0}],"meshes":[{"name":"GeneralMkIII_0","primitives":[{"attributes":{"POSITION":0,"NORMAL":1,"TANGENT":2,"TEXCOORD_0":3,"TEXCOORD_1":4,"TEXCOORD_2":5},"indices":6,"material":0,"mode":4}]}],"materials":[{"name":"GeneralMkIII","pbrMetallicRoughness":{"baseColorTexture":{"index":0},"metallicFactor":0,"roughnessFactor":1},"normalTexture":{"index":1}}],"textures":[{"sampler":0,"source":0},{"sampler":0,"source":1}],"images":[{"uri":"w111_assault_rifle_up_39_dif.png"},{"uri":"w111_assault_rifle_up_39_nrm.png"}],"samplers":[{"wrapS":10497,"wrapT":10497}],"accessors":[{"bufferView":0,"componentType":5126,"count":188,"type":"VEC3","min":[-0.012253164,-0.067866705,-0.042364135],"max":[0.01238572,0.067866705,0.042364135]},{"bufferView":1,"componentType":5126,"count":188,"type":"VEC3"},{"bufferView":2,"componentType":5126,"count":188,"type":"VEC4"},{"bufferView":3,"componentType":5126,"count":188,"type":"VEC2"},{"bufferView":4,"componentType":5126,"count":188,"type":"VEC2"},{"bufferView":5,"componentType":5126,"count":188,"type":"VEC2"},{"bufferView":6,"componentType":5125,"count":510,"type":"SCALAR"}],"bufferViews":[{"buffer":0,"byteOffset":0,"byteLength":2256,"target":34962},{"buffer":0,"byteOffset":2256,"byteLength":2256,"target":34962},{"buffer":0,"byteOffset":4512,"byteLength":3008,"target":34962},{"buffer":0,"byteOffset":7520,"byteLength":1504,"target":34962},{"buffer":0,"byteOffset":9024,"byteLength":1504,"target":34962},{"buffer":0,"byteOffset":10528,"byteLength":1504,"target":34962},{"buffer":0,"byteOffset":12032,"byteLength":2040,"target":34963}],"buffers":[{"uri":"w111_assault_rifle_up_39_mag__w111_assault_rifle_up_39_mag_mag_lod1.bin","byteLength":14072}]}