{"asset":{"version":"2.0","generator":"RBMesh"},"scene":0,"scenes":[{"nodes":[0]}],"nodes":[{"mesh":0}],"meshes":[{"name":"GeneralMkIII_0","primitives":[{"attributes":{"POSITION":0,"NORMAL":1,"TANGENT":2,"TEXCOORD_0":3,"TEXCOORD_1":4,"TEXCOORD_2":5},"indices":6,"material":0,"mode":4}]}],"materials":[{"name":"GeneralMkIII","pbrMetallicRoughness":{"baseColorTexture":{"index":0},"metallicFactor":0,"roughnessFactor":1},"normalTexture":{"index":1}}],"textures":[{"sampler":0,"source":0},{"sampler":0,"source":1}],"images":[{"uri":"bullet_casing_dif.png"},{"uri":"bullet_casing_nrm.png"}],"samplers":[{"wrapS":10497,"wrapT":10497}],"accessors":[{"bufferView":0,"componentType":5126,"count":194,"type":"VEC3","min":[-0.008165059,-0.008130889,-0.043062042],"max":[0.00809672,0.008130889,0.031231709]},{"bufferView":1,"componentType":5126,"count":194,"type":"VEC3"},{"bufferView":2,"componentType":5126,"count":194,"type":"VEC4"},{"bufferView":3,"componentType":5126,"count":194,"type":"VEC2"},{"bufferView":4,"componentType":5126,"count":194,"type":"VEC2"},{"bufferView":5,"componentType":5126,"count":194,"type":"VEC2"},{"bufferView":6,"componentType":5125,"count":576,"type":"SCALAR"}],"bufferViews":[{"buffer":0,"byteOffset":0,"byteLength":2328,"target":34962},{"buffer":0,"byteOffset":2328,"byteLength":2328,"target":34962},{"buffer":0,"byteOffset":4656,"byteLength":3104,"target":34962},{"buffer":0,"byteOffset":7760,"byteLength":1552,"target":34962},{"buffer":0,"byteOffset":9312,"byteLength":1552,"target":34962},{"buffer":0,"byteOffset":10864,"byteLength":1552,"target":34962},{"buffer":0,"byteOffset":12416,"byteLength":2304,"target":34963}],"buffers":[{"uri":"w112_assault_rifle_cs_predator__bullet_casing_bullet_casing_lod1.bin","byteLength":14720}]}