{"asset":{"version":"2.0","generator":"RBMesh"},"scene":0,"scenes":[{"nodes":[0]}],"nodes":[{"mesh":0}],"meshes":[{"name":"GeneralMkIII_0","primitives":[{"attributes":{"POSITION":0,"NORMAL":1,"TANGENT":2,"TEXCOORD_0":3,"TEXCOORD_1":4,"TEXCOORD_2":5},"indices":6,"material":0,"mode":4}]}],"materials":[{"name":"GeneralMkIII","pbrMetallicRoughness":{"baseColorTexture":{"index":0},"metallicFactor":0,"roughnessFactor":1},"normalTexture":{"index":1}}],"textures":[{"sampler":0,"source":0},{"sampler":0,"source":1}],"images":[{"uri":"w118_assault_rifle_up_61_dif.png"},{"uri":"w118_assault_rifle_up_61_nrm.png"}],"samplers":[{"wrapS":10497,"wrapT":10497}],"accessors":[{"bufferView":0,"componentType":5126,"count":158,"type":"VEC3","min":[-0.017265644,-0.077712,-0.051740013],"max":[0.017265644,0.077712,0.051740013]},{"bufferView":1,"componentType":5126,"count":158,"type":"VEC3"},{"bufferView":2,"componentType":5126,"count":158,"type":"VEC4"},{"bufferView":3,"componentType":5126,"count":158,"type":"VEC2"},{"bufferView":4,"componentType":5126,"count":158,"type":"VEC2"},{"bufferView":5,"componentType":5126,"count":158,"type":"VEC2"},{"bufferView":6,"componentType":5125,"count":390,"type":"SCALAR"}],"bufferViews":[{"buffer":0,"byteOffset":0,"byteLength":1896,"target":34962},{"buffer":0,"byteOffset":1896,"byteLength":1896,"target":34962},{"buffer":0,"byteOffset":3792,"byteLength":2528,"target":34962},{"buffer":0,"byteOffset":6320,"byteLength":1264,"target":34962},{"buffer":0,"byteOffset":7584,"byteLength":1264,"target":34962},{"buffer":0,"byteOffset":8848,"byteLength":1264,"target":34962},{"buffer":0,"byteOffset":10112,"byteLength":1560,"target":34963}],"buffers":[{"uri":"w118_assault_rifle_up_61_mag__w118_assault_rifle_up_61_mag_lod1.bin","byteLength":11672}]}