{"asset":{"version":"2.0","generator":"RBMesh"},"scene":0,"scenes":[{"nodes":[0]}],"nodes":[{"mesh":0}],"meshes":[{"name":"GeneralMkIII_0","primitives":[{"attributes":{"POSITION":0,"NORMAL":1,"TANGENT":2,"TEXCOORD_0":3,"TEXCOORD_1":4,"TEXCOORD_2":5},"indices":6,"material":0,"mode":4}]}],"materials":[{"name":"GeneralMkIII","pbrMetallicRoughness":{"baseColorTexture":{"index":0},"metallicFactor":0,"roughnessFactor":1},"normalTexture":{"index":1}}],"textures":[{"sampler":0,"source":0},{"sampler":0,"source":1}],"images":[{"uri":"w118_assault_rifle_up_61_dif.png"},{"uri":"w118_assault_rifle_up_61_nrm.png"}],"samplers":[{"wrapS":10497,"wrapT":10497}],"accessors":[{"bufferView":0,"componentType":5126,"count":3882,"type":"VEC3","min":[-0.028913848,-0.04997626,-0.6480301],"max":[0.040265795,0.23079658,0.2778854]},{"bufferView":1,"componentType":5126,"count":3882,"type":"VEC3"},{"bufferView":2,"componentType":5126,"count":3882,"type":"VEC4"},{"bufferView":3,"componentType":5126,"count":3882,"type":"VEC2"},{"bufferView":4,"componentType":5126,"count":3882,"type":"VEC2"},{"bufferView":5,"componentType":5126,"count":3882,"type":"VEC2"},{"bufferView":6,"componentType":5125,"count":12462,"type":"SCALAR"}],"bufferViews":[{"buffer":0,"byteOffset":0,"byteLength":46584,"target":34962},{"buffer":0,"byteOffset":46584,"byteLength":46584,"target":34962},{"buffer":0,"byteOffset":93168,"byteLength":62112,"target":34962},{"buffer":0,"byteOffset":155280,"byteLength":31056,"target":34962},{"buffer":0,"byteOffset":186336,"byteLength":31056,"target":34962},{"buffer":0,"byteOffset":217392,"byteLength":31056,"target":34962},{"buffer":0,"byteOffset":248448,"byteLength":49848,"target":34963}],"buffers":[{"uri":"w118_assault_rifle_up_61__w118_assault_rifle_up_61_body_lod1.bin","byteLength":298296}]}