{"asset":{"version":"2.0","generator":"RBMesh"},"scene":0,"scenes":[{"nodes":[0]}],"nodes":[{"mesh":0}],"meshes":[{"name":"GeneralMkIII_0","primitives":[{"attributes":{"POSITION":0,"NORMAL":1,"TANGENT":2,"TEXCOORD_0":3,"TEXCOORD_1":4,"TEXCOORD_2":5},"indices":6,"material":0,"mode":4}]}],"materials":[{"name":"GeneralMkIII","pbrMetallicRoughness":{"baseColorTexture":{"index":0},"metallicFactor":0,"roughnessFactor":1},"normalTexture":{"index":1}}],"textures":[{"sampler":0,"source":0},{"sampler":0,"source":1}],"images":[{"uri":"w121_grenade_launcher_cs_bildt_negotiator_dif.png"},{"uri":"w121_grenade_launcher_cs_bildt_negotiator_nrm.png"}],"samplers":[{"wrapS":10497,"wrapT":10497}],"accessors":[{"bufferView":0,"componentType":5126,"count":2182,"type":"VEC3","min":[-0.055123873,-0.051666908,-0.4390481],"max":[0.055123873,0.23686917,0.27979988]},{"bufferView":1,"componentType":5126,"count":2182,"type":"VEC3"},{"bufferView":2,"componentType":5126,"count":2182,"type":"VEC4"},{"bufferView":3,"componentType":5126,"count":2182,"type":"VEC2"},{"bufferView":4,"componentType":5126,"count":2182,"type":"VEC2"},{"bufferView":5,"componentType":5126,"count":2182,"type":"VEC2"},{"bufferView":6,"componentType":5125,"count":6714,"type":"SCALAR"}],"bufferViews":[{"buffer":0,"byteOffset":0,"byteLength":26184,"target":34962},{"buffer":0,"byteOffset":26184,"byteLength":26184,"target":34962},{"buffer":0,"byteOffset":52368,"byteLength":34912,"target":34962},{"buffer":0,"byteOffset":87280,"byteLength":17456,"target":34962},{"buffer":0,"byteOffset":104736,"byteLength":17456,"target":34962},{"buffer":0,"byteOffset":122192,"byteLength":17456,"target":34962},{"buffer":0,"byteOffset":139648,"byteLength":26856,"target":34963}],"buffers":[{"uri":"w121_grenade_launcher_cs_bildt_negotiator__w121_grenade_launcher_cs_bildt_negotiator_body_lod1.bin","byteLength":166504}]}