{"asset":{"version":"2.0","generator":"RBMesh"},"scene":0,"scenes":[{"nodes":[0]}],"nodes":[{"mesh":0}],"meshes":[{"name":"GeneralMkIII_0","primitives":[{"attributes":{"POSITION":0,"NORMAL":1,"TANGENT":2,"TEXCOORD_0":3,"TEXCOORD_1":4,"TEXCOORD_2":5},"indices":6,"material":0,"mode":4}]}],"materials":[{"name":"GeneralMkIII","pbrMetallicRoughness":{"baseColorTexture":{"index":0},"metallicFactor":0,"roughnessFactor":1},"normalTexture":{"index":1}}],"textures":[{"sampler":0,"source":0},{"sampler":0,"source":1}],"images":[{"uri":"w121_grenade_launcher_cs_bildt_negotiator_dif.png"},{"uri":"w121_grenade_launcher_cs_bildt_negotiator_nrm.png"}],"samplers":[{"wrapS":10497,"wrapT":10497}],"accessors":[{"bufferView":0,"componentType":5126,"count":92,"type":"VEC3","min":[-0.017446958,-0.06911915,-0.05300534],"max":[0.017446958,0.06911915,0.05300534]},{"bufferView":1,"componentType":5126,"count":92,"type":"VEC3"},{"bufferView":2,"componentType":5126,"count":92,"type":"VEC4"},{"bufferView":3,"componentType":5126,"count":92,"type":"VEC2"},{"bufferView":4,"componentType":5126,"count":92,"type":"VEC2"},{"bufferView":5,"componentType":5126,"count":92,"type":"VEC2"},{"bufferView":6,"componentType":5125,"count":228,"type":"SCALAR"}],"bufferViews":[{"buffer":0,"byteOffset":0,"byteLength":1104,"target":34962},{"buffer":0,"byteOffset":1104,"byteLength":1104,"target":34962},{"buffer":0,"byteOffset":2208,"byteLength":1472,"target":34962},{"buffer":0,"byteOffset":3680,"byteLength":736,"target":34962},{"buffer":0,"byteOffset":4416,"byteLength":736,"target":34962},{"buffer":0,"byteOffset":5152,"byteLength":736,"target":34962},{"buffer":0,"byteOffset":5888,"byteLength":912,"target":34963}],"buffers":[{"uri":"w121_grenade_launcher_cs_bildt_negotiator_mag__w121_grenade_launcher_cs_bildt_negotiator_mag_lod1.bin","byteLength":6800}]}