{"asset":{"version":"2.0","generator":"RBMesh"},"scene":0,"scenes":[{"nodes":[0,1]}],"nodes":[{"mesh":0},{"mesh":1}],"meshes":[{"name":"GeneralMkIII_0","primitives":[{"attributes":{"POSITION":0,"NORMAL":1,"TANGENT":2,"TEXCOORD_0":3,"TEXCOORD_1":4,"TEXCOORD_2":5},"indices":6,"material":0,"mode":4}]},{"name":"GeneralMkIII_1","primitives":[{"attributes":{"POSITION":7,"NORMAL":8,"TANGENT":9,"TEXCOORD_0":10,"TEXCOORD_1":11,"TEXCOORD_2":12},"indices":13,"material":1,"mode":4}]}],"materials":[{"name":"GeneralMkIII","pbrMetallicRoughness":{"baseColorTexture":{"index":0},"metallicFactor":0,"roughnessFactor":1},"normalTexture":{"index":1}},{"name":"GeneralMkIII","pbrMetallicRoughness":{"baseColorTexture":{"index":2},"metallicFactor":0,"roughnessFactor":1},"normalTexture":{"index":3}}],"textures":[{"sampler":0,"source":0},{"sampler":0,"source":1},{"sampler":0,"source":0},{"sampler":0,"source":1}],"images":[{"uri":"w123_grenade_launcher_upu_210_dif.png"},{"uri":"w123_grenade_launcher_upu_210_nrm.png"}],"samplers":[{"wrapS":10497,"wrapT":10497}],"accessors":[{"bufferView":0,"componentType":5126,"count":1741,"type":"VEC3","min":[-0.052353133,0.07682554,0.041974623],"max":[0.052583423,0.1902522,0.24096258]},{"bufferView":1,"componentType":5126,"count":1741,"type":"VEC3"},{"bufferView":2,"componentType":5126,"count":1741,"type":"VEC4"},{"bufferView":3,"componentType":5126,"count":1741,"type":"VEC2"},{"bufferView":4,"componentType":5126,"count":1741,"type":"VEC2"},{"bufferView":5,"componentType":5126,"count":1741,"type":"VEC2"},{"bufferView":6,"componentType":5125,"count":5784,"type":"SCALAR"},{"bufferView":7,"componentType":5126,"count":2686,"type":"VEC3","min":[-0.05141661,-0.025454985,-0.503066],"max":[0.051662255,0.2637001,0.055208758]},{"bufferView":8,"componentType":5126,"count":2686,"type":"VEC3"},{"bufferView":9,"componentType":5126,"count":2686,"type":"VEC4"},{"bufferView":10,"componentType":5126,"count":2686,"type":"VEC2"},{"bufferView":11,"componentType":5126,"count":2686,"type":"VEC2"},{"bufferView":12,"componentType":5126,"count":2686,"type":"VEC2"},{"bufferView":13,"componentType":5125,"count":8343,"type":"SCALAR"}],"bufferViews":[{"buffer":0,"byteOffset":0,"byteLength":20892,"target":34962},{"buffer":0,"byteOffset":20892,"byteLength":20892,"target":34962},{"buffer":0,"byteOffset":41784,"byteLength":27856,"target":34962},{"buffer":0,"byteOffset":69640,"byteLength":13928,"target":34962},{"buffer":0,"byteOffset":83568,"byteLength":13928,"target":34962},{"buffer":0,"byteOffset":97496,"byteLength":13928,"target":34962},{"buffer":0,"byteOffset":111424,"byteLength":23136,"target":34963},{"buffer":0,"byteOffset":134560,"byteLength":32232,"target":34962},{"buffer":0,"byteOffset":166792,"byteLength":32232,"target":34962},{"buffer":0,"byteOffset":199024,"byteLength":42976,"target":34962},{"buffer":0,"byteOffset":242000,"byteLength":21488,"target":34962},{"buffer":0,"byteOffset":263488,"byteLength":21488,"target":34962},{"buffer":0,"byteOffset":284976,"byteLength":21488,"target":34962},{"buffer":0,"byteOffset":306464,"byteLength":33372,"target":34963}],"buffers":[{"uri":"w123_grenade_launcher_upu_210__w123_grenade_launcher_upu_210_body_lod1.bin","byteLength":339836}]}