{"asset":{"version":"2.0","generator":"RBMesh"},"scene":0,"scenes":[{"nodes":[0]}],"nodes":[{"mesh":0}],"meshes":[{"name":"GeneralMkIII_0","primitives":[{"attributes":{"POSITION":0,"NORMAL":1,"TANGENT":2,"TEXCOORD_0":3,"TEXCOORD_1":4,"TEXCOORD_2":5},"indices":6,"material":0,"mode":4}]}],"materials":[{"name":"GeneralMkIII","pbrMetallicRoughness":{"baseColorTexture":{"index":0},"metallicFactor":0,"roughnessFactor":1},"normalTexture":{"index":1}}],"textures":[{"sampler":0,"source":0},{"sampler":0,"source":1}],"images":[{"uri":"w123_grenade_launcher_upu_210_dif.png"},{"uri":"w123_grenade_launcher_upu_210_nrm.png"}],"samplers":[{"wrapS":10497,"wrapT":10497}],"accessors":[{"bufferView":0,"componentType":5126,"count":263,"type":"VEC3","min":[-0.018921433,-0.018921433,-0.058123056],"max":[0.018921433,0.018921433,0.058121283]},{"bufferView":1,"componentType":5126,"count":263,"type":"VEC3"},{"bufferView":2,"componentType":5126,"count":263,"type":"VEC4"},{"bufferView":3,"componentType":5126,"count":263,"type":"VEC2"},{"bufferView":4,"componentType":5126,"count":263,"type":"VEC2"},{"bufferView":5,"componentType":5126,"count":263,"type":"VEC2"},{"bufferView":6,"componentType":5125,"count":1104,"type":"SCALAR"}],"bufferViews":[{"buffer":0,"byteOffset":0,"byteLength":3156,"target":34962},{"buffer":0,"byteOffset":3156,"byteLength":3156,"target":34962},{"buffer":0,"byteOffset":6312,"byteLength":4208,"target":34962},{"buffer":0,"byteOffset":10520,"byteLength":2104,"target":34962},{"buffer":0,"byteOffset":12624,"byteLength":2104,"target":34962},{"buffer":0,"byteOffset":14728,"byteLength":2104,"target":34962},{"buffer":0,"byteOffset":16832,"byteLength":4416,"target":34963}],"buffers":[{"uri":"w123_grenade_launcher_upu_210__w123_grenade_launcher_upu_210_grenade_lod1.bin","byteLength":21248}]}