{"asset":{"version":"2.0","generator":"RBMesh"},"scene":0,"scenes":[{"nodes":[0,1]}],"nodes":[{"mesh":0},{"mesh":1}],"meshes":[{"name":"GeneralMkIII_0","primitives":[{"attributes":{"POSITION":0,"NORMAL":1,"TANGENT":2,"TEXCOORD_0":3,"TEXCOORD_1":4,"TEXCOORD_2":5},"indices":6,"material":0,"mode":4}]},{"name":"GeneralMkIII_1","primitives":[{"attributes":{"POSITION":7,"NORMAL":8,"TANGENT":9,"TEXCOORD_0":10,"TEXCOORD_1":11,"TEXCOORD_2":12},"indices":13,"material":1,"mode":4}]}],"materials":[{"name":"GeneralMkIII","pbrMetallicRoughness":{"baseColorTexture":{"index":0},"metallicFactor":0,"roughnessFactor":1},"normalTexture":{"index":1}},{"name":"GeneralMkIII","pbrMetallicRoughness":{"baseColorTexture":{"index":2},"metallicFactor":0,"roughnessFactor":1},"normalTexture":{"index":3}}],"textures":[{"sampler":0,"source":0},{"sampler":0,"source":1},{"sampler":0,"source":2},{"sampler":0,"source":3}],"images":[{"uri":"w123_grenade_launcher_upu_210_dif.png"},{"uri":"w123_grenade_launcher_upu_210_nrm.png"},{"uri":"w144_capstone_hydra_dif.png"},{"uri":"w144_capstone_hydra_nrm.png"}],"samplers":[{"wrapS":10497,"wrapT":10497}],"accessors":[{"bufferView":0,"componentType":5126,"count":576,"type":"VEC3","min":[-0.052473504,-0.051161446,-0.097488195],"max":[0.052473504,0.051161446,-0.022090819]},{"bufferView":1,"componentType":5126,"count":576,"type":"VEC3"},{"bufferView":2,"componentType":5126,"count":576,"type":"VEC4"},{"bufferView":3,"componentType":5126,"count":576,"type":"VEC2"},{"bufferView":4,"componentType":5126,"count":576,"type":"VEC2"},{"bufferView":5,"componentType":5126,"count":576,"type":"VEC2"},{"bufferView":6,"componentType":5125,"count":1626,"type":"SCALAR"},{"bufferView":7,"componentType":5126,"count":228,"type":"VEC3","min":[-0.08670014,-0.0076998034,-0.04660642],"max":[0.08421882,0.007211871,0.029734092]},{"bufferView":8,"componentType":5126,"count":228,"type":"VEC3"},{"bufferView":9,"componentType":5126,"count":228,"type":"VEC4"},{"bufferView":10,"componentType":5126,"count":228,"type":"VEC2"},{"bufferView":11,"componentType":5126,"count":228,"type":"VEC2"},{"bufferView":12,"componentType":5126,"count":228,"type":"VEC2"},{"bufferView":13,"componentType":5125,"count":1044,"type":"SCALAR"}],"bufferViews":[{"buffer":0,"byteOffset":0,"byteLength":6912,"target":34962},{"buffer":0,"byteOffset":6912,"byteLength":6912,"target":34962},{"buffer":0,"byteOffset":13824,"byteLength":9216,"target":34962},{"buffer":0,"byteOffset":23040,"byteLength":4608,"target":34962},{"buffer":0,"byteOffset":27648,"byteLength":4608,"target":34962},{"buffer":0,"byteOffset":32256,"byteLength":4608,"target":34962},{"buffer":0,"byteOffset":36864,"byteLength":6504,"target":34963},{"buffer":0,"byteOffset":43368,"byteLength":2736,"target":34962},{"buffer":0,"byteOffset":46104,"byteLength":2736,"target":34962},{"buffer":0,"byteOffset":48840,"byteLength":3648,"target":34962},{"buffer":0,"byteOffset":52488,"byteLength":1824,"target":34962},{"buffer":0,"byteOffset":54312,"byteLength":1824,"target":34962},{"buffer":0,"byteOffset":56136,"byteLength":1824,"target":34962},{"buffer":0,"byteOffset":57960,"byteLength":4176,"target":34963}],"buffers":[{"uri":"w123_grenade_launcher_upu_210__w123_grenade_launcher_upu_210_cartridge_empty_lod1.bin","byteLength":62136}]}