{"asset":{"version":"2.0","generator":"RBMesh"},"scene":0,"scenes":[{"nodes":[0,1]}],"nodes":[{"mesh":0},{"mesh":1}],"meshes":[{"name":"GeneralMkIII_0","primitives":[{"attributes":{"POSITION":0,"NORMAL":1,"TANGENT":2,"TEXCOORD_0":3,"TEXCOORD_1":4,"TEXCOORD_2":5},"indices":6,"material":0,"mode":4}]},{"name":"GeneralMkIII_1","primitives":[{"attributes":{"POSITION":7,"NORMAL":8,"TANGENT":9,"TEXCOORD_0":10,"TEXCOORD_1":11,"TEXCOORD_2":12},"indices":13,"material":1,"mode":4}]}],"materials":[{"name":"GeneralMkIII","pbrMetallicRoughness":{"baseColorTexture":{"index":0},"metallicFactor":0,"roughnessFactor":1},"normalTexture":{"index":1}},{"name":"GeneralMkIII","pbrMetallicRoughness":{"baseColorTexture":{"index":2},"metallicFactor":0,"roughnessFactor":1},"normalTexture":{"index":3}}],"textures":[{"sampler":0,"source":0},{"sampler":0,"source":1},{"sampler":0,"source":2},{"sampler":0,"source":3}],"images":[{"uri":"w123_grenade_launcher_upu_210_dif.png"},{"uri":"w123_grenade_launcher_upu_210_nrm.png"},{"uri":"w144_capstone_hydra_dif.png"},{"uri":"w144_capstone_hydra_nrm.png"}],"samplers":[{"wrapS":10497,"wrapT":10497}],"accessors":[{"bufferView":0,"componentType":5126,"count":1628,"type":"VEC3","min":[-0.05247399,-0.051160682,-0.14687069],"max":[0.05247399,0.051160682,-0.022088649]},{"bufferView":1,"componentType":5126,"count":1628,"type":"VEC3"},{"bufferView":2,"componentType":5126,"count":1628,"type":"VEC4"},{"bufferView":3,"componentType":5126,"count":1628,"type":"VEC2"},{"bufferView":4,"componentType":5126,"count":1628,"type":"VEC2"},{"bufferView":5,"componentType":5126,"count":1628,"type":"VEC2"},{"bufferView":6,"componentType":5125,"count":6042,"type":"SCALAR"},{"bufferView":7,"componentType":5126,"count":228,"type":"VEC3","min":[-0.08670063,-0.0077005476,-0.04660669],"max":[0.08421746,0.0072074975,0.029735409]},{"bufferView":8,"componentType":5126,"count":228,"type":"VEC3"},{"bufferView":9,"componentType":5126,"count":228,"type":"VEC4"},{"bufferView":10,"componentType":5126,"count":228,"type":"VEC2"},{"bufferView":11,"componentType":5126,"count":228,"type":"VEC2"},{"bufferView":12,"componentType":5126,"count":228,"type":"VEC2"},{"bufferView":13,"componentType":5125,"count":1044,"type":"SCALAR"}],"bufferViews":[{"buffer":0,"byteOffset":0,"byteLength":19536,"target":34962},{"buffer":0,"byteOffset":19536,"byteLength":19536,"target":34962},{"buffer":0,"byteOffset":39072,"byteLength":26048,"target":34962},{"buffer":0,"byteOffset":65120,"byteLength":13024,"target":34962},{"buffer":0,"byteOffset":78144,"byteLength":13024,"target":34962},{"buffer":0,"byteOffset":91168,"byteLength":13024,"target":34962},{"buffer":0,"byteOffset":104192,"byteLength":24168,"target":34963},{"buffer":0,"byteOffset":128360,"byteLength":2736,"target":34962},{"buffer":0,"byteOffset":131096,"byteLength":2736,"target":34962},{"buffer":0,"byteOffset":133832,"byteLength":3648,"target":34962},{"buffer":0,"byteOffset":137480,"byteLength":1824,"target":34962},{"buffer":0,"byteOffset":139304,"byteLength":1824,"target":34962},{"buffer":0,"byteOffset":141128,"byteLength":1824,"target":34962},{"buffer":0,"byteOffset":142952,"byteLength":4176,"target":34963}],"buffers":[{"uri":"w123_grenade_launcher_upu_210__w123_grenade_launcher_upu_210_cartridge_full_lod1.bin","byteLength":147128}]}