{"asset":{"version":"2.0","generator":"RBMesh"},"scene":0,"scenes":[{"nodes":[0,1]}],"nodes":[{"mesh":0},{"mesh":1}],"meshes":[{"name":"GeneralMkIII_0","primitives":[{"attributes":{"POSITION":0,"NORMAL":1,"TANGENT":2,"TEXCOORD_0":3,"TEXCOORD_1":4,"TEXCOORD_2":5},"indices":6,"material":0,"mode":4}]},{"name":"GeneralMkIII_1","primitives":[{"attributes":{"POSITION":7,"NORMAL":8,"TANGENT":9,"TEXCOORD_0":10,"TEXCOORD_1":11,"TEXCOORD_2":12},"indices":13,"material":1,"mode":4}]}],"materials":[{"name":"GeneralMkIII","pbrMetallicRoughness":{"baseColorTexture":{"index":0},"metallicFactor":0,"roughnessFactor":1},"normalTexture":{"index":1}},{"name":"GeneralMkIII","pbrMetallicRoughness":{"baseColorTexture":{"index":2},"metallicFactor":0,"roughnessFactor":1},"normalTexture":{"index":3}}],"textures":[{"sampler":0,"source":0},{"sampler":0,"source":1},{"sampler":0,"source":0},{"sampler":0,"source":1}],"images":[{"uri":"w131_machine_gun_urga_vdova_89_dif.png"},{"uri":"w131_machine_gun_urga_vdova_89_nrm.png"}],"samplers":[{"wrapS":10497,"wrapT":10497}],"accessors":[{"bufferView":0,"componentType":5126,"count":4623,"type":"VEC3","min":[-0.036859136,-0.0218323,-0.74830437],"max":[0.017561756,0.22800595,0.26000077]},{"bufferView":1,"componentType":5126,"count":4623,"type":"VEC3"},{"bufferView":2,"componentType":5126,"count":4623,"type":"VEC4"},{"bufferView":3,"componentType":5126,"count":4623,"type":"VEC2"},{"bufferView":4,"componentType":5126,"count":4623,"type":"VEC2"},{"bufferView":5,"componentType":5126,"count":4623,"type":"VEC2"},{"bufferView":6,"componentType":5125,"count":12381,"type":"SCALAR"},{"bufferView":7,"componentType":5126,"count":627,"type":"VEC3","min":[-0.03720169,0.11879877,-0.25705478],"max":[0.010847638,0.17351654,0.09121151]},{"bufferView":8,"componentType":5126,"count":627,"type":"VEC3"},{"bufferView":9,"componentType":5126,"count":627,"type":"VEC4"},{"bufferView":10,"componentType":5126,"count":627,"type":"VEC2"},{"bufferView":11,"componentType":5126,"count":627,"type":"VEC2"},{"bufferView":12,"componentType":5126,"count":627,"type":"VEC2"},{"bufferView":13,"componentType":5125,"count":1743,"type":"SCALAR"}],"bufferViews":[{"buffer":0,"byteOffset":0,"byteLength":55476,"target":34962},{"buffer":0,"byteOffset":55476,"byteLength":55476,"target":34962},{"buffer":0,"byteOffset":110952,"byteLength":73968,"target":34962},{"buffer":0,"byteOffset":184920,"byteLength":36984,"target":34962},{"buffer":0,"byteOffset":221904,"byteLength":36984,"target":34962},{"buffer":0,"byteOffset":258888,"byteLength":36984,"target":34962},{"buffer":0,"byteOffset":295872,"byteLength":49524,"target":34963},{"buffer":0,"byteOffset":345396,"byteLength":7524,"target":34962},{"buffer":0,"byteOffset":352920,"byteLength":7524,"target":34962},{"buffer":0,"byteOffset":360444,"byteLength":10032,"target":34962},{"buffer":0,"byteOffset":370476,"byteLength":5016,"target":34962},{"buffer":0,"byteOffset":375492,"byteLength":5016,"target":34962},{"buffer":0,"byteOffset":380508,"byteLength":5016,"target":34962},{"buffer":0,"byteOffset":385524,"byteLength":6972,"target":34963}],"buffers":[{"uri":"w132_machine_gun_capstone_a_92__w131_machine_gun_urga_vdova_89_body_lod1.bin","byteLength":392496}]}