{"asset":{"version":"2.0","generator":"RBMesh"},"scene":0,"scenes":[{"nodes":[0]}],"nodes":[{"mesh":0}],"meshes":[{"name":"GeneralMkIII_0","primitives":[{"attributes":{"POSITION":0,"NORMAL":1,"TANGENT":2,"TEXCOORD_0":3,"TEXCOORD_1":4,"TEXCOORD_2":5},"indices":6,"material":0,"mode":4}]}],"materials":[{"name":"GeneralMkIII","pbrMetallicRoughness":{"baseColorTexture":{"index":0},"metallicFactor":0,"roughnessFactor":1},"normalTexture":{"index":1}}],"textures":[{"sampler":0,"source":0},{"sampler":0,"source":1}],"images":[{"uri":"w142_rpg_capstone_bloodhound_projectile_dif.png"},{"uri":"w142_rpg_capstone_bloodhound_projectile_nrm.png"}],"samplers":[{"wrapS":10497,"wrapT":10497}],"accessors":[{"bufferView":0,"componentType":5126,"count":706,"type":"VEC3","min":[-0.043739337,-0.043300185,-0.33816743],"max":[0.04300376,0.043431934,0.3597297]},{"bufferView":1,"componentType":5126,"count":706,"type":"VEC3"},{"bufferView":2,"componentType":5126,"count":706,"type":"VEC4"},{"bufferView":3,"componentType":5126,"count":706,"type":"VEC2"},{"bufferView":4,"componentType":5126,"count":706,"type":"VEC2"},{"bufferView":5,"componentType":5126,"count":706,"type":"VEC2"},{"bufferView":6,"componentType":5125,"count":2250,"type":"SCALAR"}],"bufferViews":[{"buffer":0,"byteOffset":0,"byteLength":8472,"target":34962},{"buffer":0,"byteOffset":8472,"byteLength":8472,"target":34962},{"buffer":0,"byteOffset":16944,"byteLength":11296,"target":34962},{"buffer":0,"byteOffset":28240,"byteLength":5648,"target":34962},{"buffer":0,"byteOffset":33888,"byteLength":5648,"target":34962},{"buffer":0,"byteOffset":39536,"byteLength":5648,"target":34962},{"buffer":0,"byteOffset":45184,"byteLength":9000,"target":34963}],"buffers":[{"uri":"w142_rpg_capstone_bloodhound__w142_rpg_capstone_bloodhound_projectile_body_lod1.bin","byteLength":54184}]}