{"asset":{"version":"2.0","generator":"RBMesh"},"scene":0,"scenes":[{"nodes":[0]}],"nodes":[{"mesh":0}],"meshes":[{"name":"GeneralMkIII_0","primitives":[{"attributes":{"POSITION":0,"NORMAL":1,"TANGENT":2,"TEXCOORD_0":3,"TEXCOORD_1":4,"TEXCOORD_2":5},"indices":6,"material":0,"mode":4}]}],"materials":[{"name":"GeneralMkIII","pbrMetallicRoughness":{"baseColorTexture":{"index":0},"metallicFactor":0,"roughnessFactor":1},"normalTexture":{"index":1}}],"textures":[{"sampler":0,"source":0},{"sampler":0,"source":1}],"images":[{"uri":"w142_rpg_capstone_bloodhound_base_dif.png"},{"uri":"w142_rpg_capstone_bloodhound_base_nrm.png"}],"samplers":[{"wrapS":10497,"wrapT":10497}],"accessors":[{"bufferView":0,"componentType":5126,"count":5121,"type":"VEC3","min":[-0.18536635,-0.11227565,-0.38937366],"max":[0.082032636,0.22588134,0.6704823]},{"bufferView":1,"componentType":5126,"count":5121,"type":"VEC3"},{"bufferView":2,"componentType":5126,"count":5121,"type":"VEC4"},{"bufferView":3,"componentType":5126,"count":5121,"type":"VEC2"},{"bufferView":4,"componentType":5126,"count":5121,"type":"VEC2"},{"bufferView":5,"componentType":5126,"count":5121,"type":"VEC2"},{"bufferView":6,"componentType":5125,"count":15000,"type":"SCALAR"}],"bufferViews":[{"buffer":0,"byteOffset":0,"byteLength":61452,"target":34962},{"buffer":0,"byteOffset":61452,"byteLength":61452,"target":34962},{"buffer":0,"byteOffset":122904,"byteLength":81936,"target":34962},{"buffer":0,"byteOffset":204840,"byteLength":40968,"target":34962},{"buffer":0,"byteOffset":245808,"byteLength":40968,"target":34962},{"buffer":0,"byteOffset":286776,"byteLength":40968,"target":34962},{"buffer":0,"byteOffset":327744,"byteLength":60000,"target":34963}],"buffers":[{"uri":"w142_rpg_capstone_bloodhound__w142_rpg_capstone_bloodhound_base_body_lod1.bin","byteLength":387744}]}