{"asset":{"version":"2.0","generator":"RBMesh"},"scene":0,"scenes":[{"nodes":[0]}],"nodes":[{"mesh":0}],"meshes":[{"name":"GeneralMkIII_0","primitives":[{"attributes":{"POSITION":0,"NORMAL":1,"TANGENT":2,"TEXCOORD_0":3,"TEXCOORD_1":4,"TEXCOORD_2":5},"indices":6,"material":0,"mode":4}]}],"materials":[{"name":"GeneralMkIII","pbrMetallicRoughness":{"baseColorTexture":{"index":0},"metallicFactor":0,"roughnessFactor":1},"normalTexture":{"index":1}}],"textures":[{"sampler":0,"source":0},{"sampler":0,"source":1}],"images":[{"uri":"w143_rpg_fire_leach_launcher_dif.png"},{"uri":"w143_rpg_fire_leach_launcher_nrm.png"}],"samplers":[{"wrapS":10497,"wrapT":10497}],"accessors":[{"bufferView":0,"componentType":5126,"count":3196,"type":"VEC3","min":[-0.09065051,-0.10055511,-0.38534433],"max":[0.06089418,0.25411898,0.69644666]},{"bufferView":1,"componentType":5126,"count":3196,"type":"VEC3"},{"bufferView":2,"componentType":5126,"count":3196,"type":"VEC4"},{"bufferView":3,"componentType":5126,"count":3196,"type":"VEC2"},{"bufferView":4,"componentType":5126,"count":3196,"type":"VEC2"},{"bufferView":5,"componentType":5126,"count":3196,"type":"VEC2"},{"bufferView":6,"componentType":5125,"count":9900,"type":"SCALAR"}],"bufferViews":[{"buffer":0,"byteOffset":0,"byteLength":38352,"target":34962},{"buffer":0,"byteOffset":38352,"byteLength":38352,"target":34962},{"buffer":0,"byteOffset":76704,"byteLength":51136,"target":34962},{"buffer":0,"byteOffset":127840,"byteLength":25568,"target":34962},{"buffer":0,"byteOffset":153408,"byteLength":25568,"target":34962},{"buffer":0,"byteOffset":178976,"byteLength":25568,"target":34962},{"buffer":0,"byteOffset":204544,"byteLength":39600,"target":34963}],"buffers":[{"uri":"w143_rpg_fire_leach__w143_rpg_fire_leach_base_body_lod1.bin","byteLength":244144}]}