{"asset":{"version":"2.0","generator":"RBMesh"},"scene":0,"scenes":[{"nodes":[0]}],"nodes":[{"mesh":0}],"meshes":[{"name":"GeneralMkIII_0","primitives":[{"attributes":{"POSITION":0,"NORMAL":1,"TANGENT":2,"TEXCOORD_0":3,"TEXCOORD_1":4,"TEXCOORD_2":5},"indices":6,"material":0,"mode":4}]}],"materials":[{"name":"GeneralMkIII","pbrMetallicRoughness":{"baseColorTexture":{"index":0},"metallicFactor":0,"roughnessFactor":1},"normalTexture":{"index":1}}],"textures":[{"sampler":0,"source":0},{"sampler":0,"source":1}],"images":[{"uri":"w144_capstone_hydra_rocket_dif.png"},{"uri":"w144_capstone_hydra_rocket_nrm.png"}],"samplers":[{"wrapS":10497,"wrapT":10497}],"accessors":[{"bufferView":0,"componentType":5126,"count":747,"type":"VEC3","min":[-0.027501833,-0.027501833,-0.19857316],"max":[0.027501833,0.027501833,0.12509759]},{"bufferView":1,"componentType":5126,"count":747,"type":"VEC3"},{"bufferView":2,"componentType":5126,"count":747,"type":"VEC4"},{"bufferView":3,"componentType":5126,"count":747,"type":"VEC2"},{"bufferView":4,"componentType":5126,"count":747,"type":"VEC2"},{"bufferView":5,"componentType":5126,"count":747,"type":"VEC2"},{"bufferView":6,"componentType":5125,"count":2568,"type":"SCALAR"}],"bufferViews":[{"buffer":0,"byteOffset":0,"byteLength":8964,"target":34962},{"buffer":0,"byteOffset":8964,"byteLength":8964,"target":34962},{"buffer":0,"byteOffset":17928,"byteLength":11952,"target":34962},{"buffer":0,"byteOffset":29880,"byteLength":5976,"target":34962},{"buffer":0,"byteOffset":35856,"byteLength":5976,"target":34962},{"buffer":0,"byteOffset":41832,"byteLength":5976,"target":34962},{"buffer":0,"byteOffset":47808,"byteLength":10272,"target":34963}],"buffers":[{"uri":"w144_rpg_capstone_hydra__w144_capstone_hydra_rocket_body_lod1.bin","byteLength":58080}]}