{"asset":{"version":"2.0","generator":"RBMesh"},"scene":0,"scenes":[{"nodes":[0]}],"nodes":[{"mesh":0}],"meshes":[{"name":"GeneralMkIII_0","primitives":[{"attributes":{"POSITION":0,"NORMAL":1,"TANGENT":2,"TEXCOORD_0":3,"TEXCOORD_1":4,"TEXCOORD_2":5},"indices":6,"material":0,"mode":4}]}],"materials":[{"name":"GeneralMkIII","pbrMetallicRoughness":{"baseColorTexture":{"index":0},"metallicFactor":0,"roughnessFactor":1},"normalTexture":{"index":1}}],"textures":[{"sampler":0,"source":0},{"sampler":0,"source":1}],"images":[{"uri":"w144_capstone_hydra_dif.png"},{"uri":"w144_capstone_hydra_nrm.png"}],"samplers":[{"wrapS":10497,"wrapT":10497}],"accessors":[{"bufferView":0,"componentType":5126,"count":3095,"type":"VEC3","min":[-0.102868386,-0.09090225,-0.33088136],"max":[0.090407446,0.25737798,0.23009317]},{"bufferView":1,"componentType":5126,"count":3095,"type":"VEC3"},{"bufferView":2,"componentType":5126,"count":3095,"type":"VEC4"},{"bufferView":3,"componentType":5126,"count":3095,"type":"VEC2"},{"bufferView":4,"componentType":5126,"count":3095,"type":"VEC2"},{"bufferView":5,"componentType":5126,"count":3095,"type":"VEC2"},{"bufferView":6,"componentType":5125,"count":9516,"type":"SCALAR"}],"bufferViews":[{"buffer":0,"byteOffset":0,"byteLength":37140,"target":34962},{"buffer":0,"byteOffset":37140,"byteLength":37140,"target":34962},{"buffer":0,"byteOffset":74280,"byteLength":49520,"target":34962},{"buffer":0,"byteOffset":123800,"byteLength":24760,"target":34962},{"buffer":0,"byteOffset":148560,"byteLength":24760,"target":34962},{"buffer":0,"byteOffset":173320,"byteLength":24760,"target":34962},{"buffer":0,"byteOffset":198080,"byteLength":38064,"target":34963}],"buffers":[{"uri":"w144_rpg_capstone_hydra__w144_capstone_hydra_body_lod1.bin","byteLength":236144}]}