{"asset":{"version":"2.0","generator":"RBMesh"},"scene":0,"scenes":[{"nodes":[0]}],"nodes":[{"mesh":0}],"meshes":[{"name":"GeneralMkIII_0","primitives":[{"attributes":{"POSITION":0,"NORMAL":1,"TANGENT":2,"TEXCOORD_0":3,"TEXCOORD_1":4,"TEXCOORD_2":5},"indices":6,"material":0,"mode":4}]}],"materials":[{"name":"GeneralMkIII","pbrMetallicRoughness":{"baseColorTexture":{"index":0},"metallicFactor":0,"roughnessFactor":1},"normalTexture":{"index":1}}],"textures":[{"sampler":0,"source":0},{"sampler":0,"source":1}],"images":[{"uri":"w144_capstone_hydra_dif.png"},{"uri":"w144_capstone_hydra_nrm.png"}],"samplers":[{"wrapS":10497,"wrapT":10497}],"accessors":[{"bufferView":0,"componentType":5126,"count":1485,"type":"VEC3","min":[-0.086691216,-0.050986394,-0.33561093],"max":[0.084212564,0.042536464,0.007548609]},{"bufferView":1,"componentType":5126,"count":1485,"type":"VEC3"},{"bufferView":2,"componentType":5126,"count":1485,"type":"VEC4"},{"bufferView":3,"componentType":5126,"count":1485,"type":"VEC2"},{"bufferView":4,"componentType":5126,"count":1485,"type":"VEC2"},{"bufferView":5,"componentType":5126,"count":1485,"type":"VEC2"},{"bufferView":6,"componentType":5125,"count":4485,"type":"SCALAR"}],"bufferViews":[{"buffer":0,"byteOffset":0,"byteLength":17820,"target":34962},{"buffer":0,"byteOffset":17820,"byteLength":17820,"target":34962},{"buffer":0,"byteOffset":35640,"byteLength":23760,"target":34962},{"buffer":0,"byteOffset":59400,"byteLength":11880,"target":34962},{"buffer":0,"byteOffset":71280,"byteLength":11880,"target":34962},{"buffer":0,"byteOffset":83160,"byteLength":11880,"target":34962},{"buffer":0,"byteOffset":95040,"byteLength":17940,"target":34963}],"buffers":[{"uri":"w144_rpg_capstone_hydra_mag__w144_capstone_hydra_rocket_pods_lod1.bin","byteLength":112980}]}