{"asset":{"version":"2.0","generator":"RBMesh"},"scene":0,"scenes":[{"nodes":[0]}],"nodes":[{"mesh":0}],"meshes":[{"name":"GeneralMkIII_0","primitives":[{"attributes":{"POSITION":0,"NORMAL":1,"TANGENT":2,"TEXCOORD_0":3,"TEXCOORD_1":4,"TEXCOORD_2":5},"indices":6,"material":0,"mode":4}]}],"materials":[{"name":"GeneralMkIII","pbrMetallicRoughness":{"baseColorTexture":{"index":0},"metallicFactor":0,"roughnessFactor":1},"normalTexture":{"index":1}}],"textures":[{"sampler":0,"source":0},{"sampler":0,"source":1}],"images":[{"uri":"beacon_box_01_dif.png"},{"uri":"beacon_box_01_nrm.png"}],"samplers":[{"wrapS":10497,"wrapT":10497}],"accessors":[{"bufferView":0,"componentType":5126,"count":641,"type":"VEC3","min":[-0.06407241,-0.06272643,-0.64858216],"max":[0.070762694,0.42847553,0.49801102]},{"bufferView":1,"componentType":5126,"count":641,"type":"VEC3"},{"bufferView":2,"componentType":5126,"count":641,"type":"VEC4"},{"bufferView":3,"componentType":5126,"count":641,"type":"VEC2"},{"bufferView":4,"componentType":5126,"count":641,"type":"VEC2"},{"bufferView":5,"componentType":5126,"count":641,"type":"VEC2"},{"bufferView":6,"componentType":5125,"count":1842,"type":"SCALAR"}],"bufferViews":[{"buffer":0,"byteOffset":0,"byteLength":7692,"target":34962},{"buffer":0,"byteOffset":7692,"byteLength":7692,"target":34962},{"buffer":0,"byteOffset":15384,"byteLength":10256,"target":34962},{"buffer":0,"byteOffset":25640,"byteLength":5128,"target":34962},{"buffer":0,"byteOffset":30768,"byteLength":5128,"target":34962},{"buffer":0,"byteOffset":35896,"byteLength":5128,"target":34962},{"buffer":0,"byteOffset":41024,"byteLength":7368,"target":34963}],"buffers":[{"uri":"w147_rpg_guitar_case__w147_rpg_guitar_case_body_lod1.bin","byteLength":48392}]}