{"asset":{"version":"2.0","generator":"RBMesh"},"scene":0,"scenes":[{"nodes":[0,1]}],"nodes":[{"mesh":0},{"mesh":1}],"meshes":[{"name":"GeneralMkIII_0","primitives":[{"attributes":{"POSITION":0,"NORMAL":1,"TANGENT":2,"TEXCOORD_0":3,"TEXCOORD_1":4,"TEXCOORD_2":5},"indices":6,"material":0,"mode":4}]},{"name":"GeneralMkIII_1","primitives":[{"attributes":{"POSITION":7,"NORMAL":8,"TANGENT":9,"TEXCOORD_0":10,"TEXCOORD_1":11,"TEXCOORD_2":12},"indices":13,"material":1,"mode":4}]}],"materials":[{"name":"GeneralMkIII","pbrMetallicRoughness":{"baseColorTexture":{"index":0},"metallicFactor":0,"roughnessFactor":1},"normalTexture":{"index":1}},{"name":"GeneralMkIII","pbrMetallicRoughness":{"baseColorTexture":{"index":2},"metallicFactor":0,"roughnessFactor":1},"normalTexture":{"index":3}}],"textures":[{"sampler":0,"source":0},{"sampler":0,"source":1},{"sampler":0,"source":0},{"sampler":0,"source":1}],"images":[{"uri":"w151_shotgun_u_rys_96_dif.png"},{"uri":"w151_shotgun_u_rys_96_nrm.png"}],"samplers":[{"wrapS":10497,"wrapT":10497}],"accessors":[{"bufferView":0,"componentType":5126,"count":2522,"type":"VEC3","min":[-0.030870728,-0.02558946,-0.6224869],"max":[0.030870728,0.15205497,0.046695538]},{"bufferView":1,"componentType":5126,"count":2522,"type":"VEC3"},{"bufferView":2,"componentType":5126,"count":2522,"type":"VEC4"},{"bufferView":3,"componentType":5126,"count":2522,"type":"VEC2"},{"bufferView":4,"componentType":5126,"count":2522,"type":"VEC2"},{"bufferView":5,"componentType":5126,"count":2522,"type":"VEC2"},{"bufferView":6,"componentType":5125,"count":8898,"type":"SCALAR"},{"bufferView":7,"componentType":5126,"count":510,"type":"VEC3","min":[-0.016793678,0.06801059,-0.4523844],"max":[0.016793678,0.12107025,-0.25106928]},{"bufferView":8,"componentType":5126,"count":510,"type":"VEC3"},{"bufferView":9,"componentType":5126,"count":510,"type":"VEC4"},{"bufferView":10,"componentType":5126,"count":510,"type":"VEC2"},{"bufferView":11,"componentType":5126,"count":510,"type":"VEC2"},{"bufferView":12,"componentType":5126,"count":510,"type":"VEC2"},{"bufferView":13,"componentType":5125,"count":1872,"type":"SCALAR"}],"bufferViews":[{"buffer":0,"byteOffset":0,"byteLength":30264,"target":34962},{"buffer":0,"byteOffset":30264,"byteLength":30264,"target":34962},{"buffer":0,"byteOffset":60528,"byteLength":40352,"target":34962},{"buffer":0,"byteOffset":100880,"byteLength":20176,"target":34962},{"buffer":0,"byteOffset":121056,"byteLength":20176,"target":34962},{"buffer":0,"byteOffset":141232,"byteLength":20176,"target":34962},{"buffer":0,"byteOffset":161408,"byteLength":35592,"target":34963},{"buffer":0,"byteOffset":197000,"byteLength":6120,"target":34962},{"buffer":0,"byteOffset":203120,"byteLength":6120,"target":34962},{"buffer":0,"byteOffset":209240,"byteLength":8160,"target":34962},{"buffer":0,"byteOffset":217400,"byteLength":4080,"target":34962},{"buffer":0,"byteOffset":221480,"byteLength":4080,"target":34962},{"buffer":0,"byteOffset":225560,"byteLength":4080,"target":34962},{"buffer":0,"byteOffset":229640,"byteLength":7488,"target":34963}],"buffers":[{"uri":"w151_shotgun_u_rys_96__w151_shotgun_u_rys_96_body_lod1.bin","byteLength":237128}]}