{"asset":{"version":"2.0","generator":"RBMesh"},"scene":0,"scenes":[{"nodes":[0]}],"nodes":[{"mesh":0}],"meshes":[{"name":"GeneralMkIII_0","primitives":[{"attributes":{"POSITION":0,"NORMAL":1,"TANGENT":2,"TEXCOORD_0":3,"TEXCOORD_1":4,"TEXCOORD_2":5},"indices":6,"material":0,"mode":4}]}],"materials":[{"name":"GeneralMkIII","pbrMetallicRoughness":{"baseColorTexture":{"index":0},"metallicFactor":0,"roughnessFactor":1},"normalTexture":{"index":1}}],"textures":[{"sampler":0,"source":0},{"sampler":0,"source":1}],"images":[{"uri":"w153_shotgun_automat_dif.png"},{"uri":"w153_shotgun_automat_nrm.png"}],"samplers":[{"wrapS":10497,"wrapT":10497}],"accessors":[{"bufferView":0,"componentType":5126,"count":4653,"type":"VEC3","min":[-0.041697536,-0.058179125,-0.49006566],"max":[0.041697536,0.2554946,0.2752067]},{"bufferView":1,"componentType":5126,"count":4653,"type":"VEC3"},{"bufferView":2,"componentType":5126,"count":4653,"type":"VEC4"},{"bufferView":3,"componentType":5126,"count":4653,"type":"VEC2"},{"bufferView":4,"componentType":5126,"count":4653,"type":"VEC2"},{"bufferView":5,"componentType":5126,"count":4653,"type":"VEC2"},{"bufferView":6,"componentType":5125,"count":13437,"type":"SCALAR"}],"bufferViews":[{"buffer":0,"byteOffset":0,"byteLength":55836,"target":34962},{"buffer":0,"byteOffset":55836,"byteLength":55836,"target":34962},{"buffer":0,"byteOffset":111672,"byteLength":74448,"target":34962},{"buffer":0,"byteOffset":186120,"byteLength":37224,"target":34962},{"buffer":0,"byteOffset":223344,"byteLength":37224,"target":34962},{"buffer":0,"byteOffset":260568,"byteLength":37224,"target":34962},{"buffer":0,"byteOffset":297792,"byteLength":53748,"target":34963}],"buffers":[{"uri":"w153_shotgun_automat_12__w153_shotgun_automat_12_body_lod1.bin","byteLength":351540}]}