{"asset":{"version":"2.0","generator":"RBMesh"},"scene":0,"scenes":[{"nodes":[0,1]}],"nodes":[{"mesh":0},{"mesh":1}],"meshes":[{"name":"GeneralMkIII_0","primitives":[{"attributes":{"POSITION":0,"NORMAL":1,"TANGENT":2,"TEXCOORD_0":3,"TEXCOORD_1":4,"TEXCOORD_2":5},"indices":6,"material":0,"mode":4}]},{"name":"GeneralMkIII_1","primitives":[{"attributes":{"POSITION":7,"NORMAL":8,"TANGENT":9,"TEXCOORD_0":10,"TEXCOORD_1":11,"TEXCOORD_2":12},"indices":13,"material":1,"mode":4}]}],"materials":[{"name":"GeneralMkIII","pbrMetallicRoughness":{"baseColorTexture":{"index":0},"metallicFactor":0,"roughnessFactor":1},"normalTexture":{"index":1}},{"name":"GeneralMkIII","pbrMetallicRoughness":{"baseColorTexture":{"index":2},"metallicFactor":0,"roughnessFactor":1},"normalTexture":{"index":3}}],"textures":[{"sampler":0,"source":0},{"sampler":0,"source":1},{"sampler":0,"source":0},{"sampler":0,"source":1}],"images":[{"uri":"w155_u_rys_12_dif.png"},{"uri":"w155_u_rys_12_nrm.png"}],"samplers":[{"wrapS":10497,"wrapT":10497}],"accessors":[{"bufferView":0,"componentType":5126,"count":770,"type":"VEC3","min":[-0.0067334296,-0.045126025,-0.15913919],"max":[0.0062381276,0.08341153,-0.020575112]},{"bufferView":1,"componentType":5126,"count":770,"type":"VEC3"},{"bufferView":2,"componentType":5126,"count":770,"type":"VEC4"},{"bufferView":3,"componentType":5126,"count":770,"type":"VEC2"},{"bufferView":4,"componentType":5126,"count":770,"type":"VEC2"},{"bufferView":5,"componentType":5126,"count":770,"type":"VEC2"},{"bufferView":6,"componentType":5125,"count":2511,"type":"SCALAR"},{"bufferView":7,"componentType":5126,"count":1549,"type":"VEC3","min":[-0.02190038,-0.033185232,-0.43863675],"max":[0.021619262,0.14915283,0.040882494]},{"bufferView":8,"componentType":5126,"count":1549,"type":"VEC3"},{"bufferView":9,"componentType":5126,"count":1549,"type":"VEC4"},{"bufferView":10,"componentType":5126,"count":1549,"type":"VEC2"},{"bufferView":11,"componentType":5126,"count":1549,"type":"VEC2"},{"bufferView":12,"componentType":5126,"count":1549,"type":"VEC2"},{"bufferView":13,"componentType":5125,"count":6576,"type":"SCALAR"}],"bufferViews":[{"buffer":0,"byteOffset":0,"byteLength":9240,"target":34962},{"buffer":0,"byteOffset":9240,"byteLength":9240,"target":34962},{"buffer":0,"byteOffset":18480,"byteLength":12320,"target":34962},{"buffer":0,"byteOffset":30800,"byteLength":6160,"target":34962},{"buffer":0,"byteOffset":36960,"byteLength":6160,"target":34962},{"buffer":0,"byteOffset":43120,"byteLength":6160,"target":34962},{"buffer":0,"byteOffset":49280,"byteLength":10044,"target":34963},{"buffer":0,"byteOffset":59324,"byteLength":18588,"target":34962},{"buffer":0,"byteOffset":77912,"byteLength":18588,"target":34962},{"buffer":0,"byteOffset":96500,"byteLength":24784,"target":34962},{"buffer":0,"byteOffset":121284,"byteLength":12392,"target":34962},{"buffer":0,"byteOffset":133676,"byteLength":12392,"target":34962},{"buffer":0,"byteOffset":146068,"byteLength":12392,"target":34962},{"buffer":0,"byteOffset":158460,"byteLength":26304,"target":34963}],"buffers":[{"uri":"w155_shotgun_u_rys_12__w155_shotgun_u_rys_12_body_lod1.bin","byteLength":184764}]}