{"asset":{"version":"2.0","generator":"RBMesh"},"scene":0,"scenes":[{"nodes":[0]}],"nodes":[{"mesh":0}],"meshes":[{"name":"GeneralMkIII_0","primitives":[{"attributes":{"POSITION":0,"NORMAL":1,"TANGENT":2,"TEXCOORD_0":3,"TEXCOORD_1":4,"TEXCOORD_2":5},"indices":6,"material":0,"mode":4}]}],"materials":[{"name":"GeneralMkIII","pbrMetallicRoughness":{"baseColorTexture":{"index":0},"metallicFactor":0,"roughnessFactor":1},"normalTexture":{"index":1}}],"textures":[{"sampler":0,"source":0},{"sampler":0,"source":1}],"images":[{"uri":"w161_sniper_rifle_u_sv_45_dif.png"},{"uri":"w161_sniper_rifle_u_sv_45_nrm.png"}],"samplers":[{"wrapS":10497,"wrapT":10497}],"accessors":[{"bufferView":0,"componentType":5126,"count":97,"type":"VEC3","min":[0.012388718,0.118565455,-0.28170794],"max":[0.043218657,0.13880351,-0.16508548]},{"bufferView":1,"componentType":5126,"count":97,"type":"VEC3"},{"bufferView":2,"componentType":5126,"count":97,"type":"VEC4"},{"bufferView":3,"componentType":5126,"count":97,"type":"VEC2"},{"bufferView":4,"componentType":5126,"count":97,"type":"VEC2"},{"bufferView":5,"componentType":5126,"count":97,"type":"VEC2"},{"bufferView":6,"componentType":5125,"count":270,"type":"SCALAR"}],"bufferViews":[{"buffer":0,"byteOffset":0,"byteLength":1164,"target":34962},{"buffer":0,"byteOffset":1164,"byteLength":1164,"target":34962},{"buffer":0,"byteOffset":2328,"byteLength":1552,"target":34962},{"buffer":0,"byteOffset":3880,"byteLength":776,"target":34962},{"buffer":0,"byteOffset":4656,"byteLength":776,"target":34962},{"buffer":0,"byteOffset":5432,"byteLength":776,"target":34962},{"buffer":0,"byteOffset":6208,"byteLength":1080,"target":34963}],"buffers":[{"uri":"w161_sniper_rifle_u_sv_45__w161_sniper_rifle_u_sv_45_ejection_port_lod1.bin","byteLength":7288}]}