{"asset":{"version":"2.0","generator":"RBMesh"},"scene":0,"scenes":[{"nodes":[0]}],"nodes":[{"mesh":0}],"meshes":[{"name":"GeneralMkIII_0","primitives":[{"attributes":{"POSITION":0,"NORMAL":1,"TANGENT":2,"TEXCOORD_0":3,"TEXCOORD_1":4,"TEXCOORD_2":5},"indices":6,"material":0,"mode":4}]}],"materials":[{"name":"GeneralMkIII","pbrMetallicRoughness":{"baseColorTexture":{"index":0},"metallicFactor":0,"roughnessFactor":1},"normalTexture":{"index":1}}],"textures":[{"sampler":0,"source":0},{"sampler":0,"source":1}],"images":[{"uri":"w161_sniper_rifle_u_sv_45_dif.png"},{"uri":"w161_sniper_rifle_u_sv_45_nrm.png"}],"samplers":[{"wrapS":10497,"wrapT":10497}],"accessors":[{"bufferView":0,"componentType":5126,"count":4947,"type":"VEC3","min":[-0.027542429,-0.04858783,-1.0186036],"max":[0.037396774,0.24607886,0.27184936]},{"bufferView":1,"componentType":5126,"count":4947,"type":"VEC3"},{"bufferView":2,"componentType":5126,"count":4947,"type":"VEC4"},{"bufferView":3,"componentType":5126,"count":4947,"type":"VEC2"},{"bufferView":4,"componentType":5126,"count":4947,"type":"VEC2"},{"bufferView":5,"componentType":5126,"count":4947,"type":"VEC2"},{"bufferView":6,"componentType":5125,"count":15600,"type":"SCALAR"}],"bufferViews":[{"buffer":0,"byteOffset":0,"byteLength":59364,"target":34962},{"buffer":0,"byteOffset":59364,"byteLength":59364,"target":34962},{"buffer":0,"byteOffset":118728,"byteLength":79152,"target":34962},{"buffer":0,"byteOffset":197880,"byteLength":39576,"target":34962},{"buffer":0,"byteOffset":237456,"byteLength":39576,"target":34962},{"buffer":0,"byteOffset":277032,"byteLength":39576,"target":34962},{"buffer":0,"byteOffset":316608,"byteLength":62400,"target":34963}],"buffers":[{"uri":"w161_sniper_rifle_u_sv_45__w161_sniper_rifle_u_sv_45_body_lod1.bin","byteLength":379008}]}