{"asset":{"version":"2.0","generator":"RBMesh"},"scene":0,"scenes":[{"nodes":[0]}],"nodes":[{"mesh":0}],"meshes":[{"name":"GeneralMkIII_0","primitives":[{"attributes":{"POSITION":0,"NORMAL":1,"TANGENT":2,"TEXCOORD_0":3,"TEXCOORD_1":4,"TEXCOORD_2":5},"indices":6,"material":0,"mode":4}]}],"materials":[{"name":"GeneralMkIII","pbrMetallicRoughness":{"baseColorTexture":{"index":0},"metallicFactor":0,"roughnessFactor":1},"normalTexture":{"index":1}}],"textures":[{"sampler":0,"source":0},{"sampler":0,"source":1}],"images":[{"uri":"w162_sniper_rifle_cs111_archangel_dif.png"},{"uri":"w162_sniper_rifle_cs111_archangel_nrm.png"}],"samplers":[{"wrapS":10497,"wrapT":10497}],"accessors":[{"bufferView":0,"componentType":5126,"count":60,"type":"VEC3","min":[-0.00971405,-0.022420634,-0.044621],"max":[0.008234471,0.072904326,0.044621]},{"bufferView":1,"componentType":5126,"count":60,"type":"VEC3"},{"bufferView":2,"componentType":5126,"count":60,"type":"VEC4"},{"bufferView":3,"componentType":5126,"count":60,"type":"VEC2"},{"bufferView":4,"componentType":5126,"count":60,"type":"VEC2"},{"bufferView":5,"componentType":5126,"count":60,"type":"VEC2"},{"bufferView":6,"componentType":5125,"count":114,"type":"SCALAR"}],"bufferViews":[{"buffer":0,"byteOffset":0,"byteLength":720,"target":34962},{"buffer":0,"byteOffset":720,"byteLength":720,"target":34962},{"buffer":0,"byteOffset":1440,"byteLength":960,"target":34962},{"buffer":0,"byteOffset":2400,"byteLength":480,"target":34962},{"buffer":0,"byteOffset":2880,"byteLength":480,"target":34962},{"buffer":0,"byteOffset":3360,"byteLength":480,"target":34962},{"buffer":0,"byteOffset":3840,"byteLength":456,"target":34963}],"buffers":[{"uri":"w162_sniper_rifle_cs111_archangel__w162_sniper_rifle_cs111_archangel_mag_lod1.bin","byteLength":4296}]}