{"asset":{"version":"2.0","generator":"RBMesh"},"scene":0,"scenes":[{"nodes":[0]}],"nodes":[{"mesh":0}],"meshes":[{"name":"GeneralMkIII_0","primitives":[{"attributes":{"POSITION":0,"NORMAL":1,"TANGENT":2,"TEXCOORD_0":3,"TEXCOORD_1":4,"TEXCOORD_2":5},"indices":6,"material":0,"mode":4}]}],"materials":[{"name":"GeneralMkIII","pbrMetallicRoughness":{"baseColorTexture":{"index":0},"metallicFactor":0,"roughnessFactor":1},"normalTexture":{"index":1}}],"textures":[{"sampler":0,"source":0},{"sampler":0,"source":1}],"images":[{"uri":"w162_sniper_rifle_cs111_archangel_dif.png"},{"uri":"w162_sniper_rifle_cs111_archangel_nrm.png"}],"samplers":[{"wrapS":10497,"wrapT":10497}],"accessors":[{"bufferView":0,"componentType":5126,"count":5703,"type":"VEC3","min":[-0.040473636,-0.029928548,-0.99864435],"max":[0.056169365,0.23031572,0.24829723]},{"bufferView":1,"componentType":5126,"count":5703,"type":"VEC3"},{"bufferView":2,"componentType":5126,"count":5703,"type":"VEC4"},{"bufferView":3,"componentType":5126,"count":5703,"type":"VEC2"},{"bufferView":4,"componentType":5126,"count":5703,"type":"VEC2"},{"bufferView":5,"componentType":5126,"count":5703,"type":"VEC2"},{"bufferView":6,"componentType":5125,"count":15372,"type":"SCALAR"}],"bufferViews":[{"buffer":0,"byteOffset":0,"byteLength":68436,"target":34962},{"buffer":0,"byteOffset":68436,"byteLength":68436,"target":34962},{"buffer":0,"byteOffset":136872,"byteLength":91248,"target":34962},{"buffer":0,"byteOffset":228120,"byteLength":45624,"target":34962},{"buffer":0,"byteOffset":273744,"byteLength":45624,"target":34962},{"buffer":0,"byteOffset":319368,"byteLength":45624,"target":34962},{"buffer":0,"byteOffset":364992,"byteLength":61488,"target":34963}],"buffers":[{"uri":"w162_sniper_rifle_cs111_archangel__w162_sniper_rifle_cs111_archangel_body_lod1.bin","byteLength":426480}]}