{"asset":{"version":"2.0","generator":"RBMesh"},"scene":0,"scenes":[{"nodes":[0]}],"nodes":[{"mesh":0}],"meshes":[{"name":"GeneralMkIII_0","primitives":[{"attributes":{"POSITION":0,"NORMAL":1,"TANGENT":2,"TEXCOORD_0":3,"TEXCOORD_1":4,"TEXCOORD_2":5},"indices":6,"material":0,"mode":4}]}],"materials":[{"name":"GeneralMkIII","pbrMetallicRoughness":{"baseColorTexture":{"index":0},"metallicFactor":0,"roughnessFactor":1},"normalTexture":{"index":1}}],"textures":[{"sampler":0,"source":0},{"sampler":0,"source":1}],"images":[{"uri":"w163_sniper_rifle_final_argument_dif.png"},{"uri":"w163_sniper_rifle_final_argument_nrm.png"}],"samplers":[{"wrapS":10497,"wrapT":10497}],"accessors":[{"bufferView":0,"componentType":5126,"count":3343,"type":"VEC3","min":[-0.06038021,-0.02743993,-1.0125272],"max":[0.077406555,0.2440238,0.2883356]},{"bufferView":1,"componentType":5126,"count":3343,"type":"VEC3"},{"bufferView":2,"componentType":5126,"count":3343,"type":"VEC4"},{"bufferView":3,"componentType":5126,"count":3343,"type":"VEC2"},{"bufferView":4,"componentType":5126,"count":3343,"type":"VEC2"},{"bufferView":5,"componentType":5126,"count":3343,"type":"VEC2"},{"bufferView":6,"componentType":5125,"count":10566,"type":"SCALAR"}],"bufferViews":[{"buffer":0,"byteOffset":0,"byteLength":40116,"target":34962},{"buffer":0,"byteOffset":40116,"byteLength":40116,"target":34962},{"buffer":0,"byteOffset":80232,"byteLength":53488,"target":34962},{"buffer":0,"byteOffset":133720,"byteLength":26744,"target":34962},{"buffer":0,"byteOffset":160464,"byteLength":26744,"target":34962},{"buffer":0,"byteOffset":187208,"byteLength":26744,"target":34962},{"buffer":0,"byteOffset":213952,"byteLength":42264,"target":34963}],"buffers":[{"uri":"w163_sniper_rifle_final_argument__w163_sniper_rifle_final_argument_body_lod1.bin","byteLength":256216}]}