{"asset":{"version":"2.0","generator":"RBMesh"},"scene":0,"scenes":[{"nodes":[0]}],"nodes":[{"mesh":0}],"meshes":[{"name":"GeneralMkIII_0","primitives":[{"attributes":{"POSITION":0,"NORMAL":1,"TANGENT":2,"TEXCOORD_0":3,"TEXCOORD_1":4,"TEXCOORD_2":5},"indices":6,"material":0,"mode":4}]}],"materials":[{"name":"GeneralMkIII","pbrMetallicRoughness":{"baseColorTexture":{"index":0},"metallicFactor":0,"roughnessFactor":1},"normalTexture":{"index":1}}],"textures":[{"sampler":0,"source":0},{"sampler":0,"source":1}],"images":[{"uri":"w163_sniper_rifle_final_argument_dif.png"},{"uri":"w163_sniper_rifle_final_argument_nrm.png"}],"samplers":[{"wrapS":10497,"wrapT":10497}],"accessors":[{"bufferView":0,"componentType":5126,"count":376,"type":"VEC3","min":[-0.012371887,-0.029268367,-0.043276593],"max":[0.012371887,0.046827957,0.043276593]},{"bufferView":1,"componentType":5126,"count":376,"type":"VEC3"},{"bufferView":2,"componentType":5126,"count":376,"type":"VEC4"},{"bufferView":3,"componentType":5126,"count":376,"type":"VEC2"},{"bufferView":4,"componentType":5126,"count":376,"type":"VEC2"},{"bufferView":5,"componentType":5126,"count":376,"type":"VEC2"},{"bufferView":6,"componentType":5125,"count":1296,"type":"SCALAR"}],"bufferViews":[{"buffer":0,"byteOffset":0,"byteLength":4512,"target":34962},{"buffer":0,"byteOffset":4512,"byteLength":4512,"target":34962},{"buffer":0,"byteOffset":9024,"byteLength":6016,"target":34962},{"buffer":0,"byteOffset":15040,"byteLength":3008,"target":34962},{"buffer":0,"byteOffset":18048,"byteLength":3008,"target":34962},{"buffer":0,"byteOffset":21056,"byteLength":3008,"target":34962},{"buffer":0,"byteOffset":24064,"byteLength":5184,"target":34963}],"buffers":[{"uri":"w163_sniper_rifle_final_argument_mag__w163_sniper_rifle_final_argument_mag_lod1.bin","byteLength":29248}]}