{"asset":{"version":"2.0","generator":"RBMesh"},"scene":0,"scenes":[{"nodes":[0]}],"nodes":[{"mesh":0}],"meshes":[{"name":"GeneralMkIII_0","primitives":[{"attributes":{"POSITION":0,"NORMAL":1,"TANGENT":2,"TEXCOORD_0":3,"TEXCOORD_1":4,"TEXCOORD_2":5},"indices":6,"material":0,"mode":4}]}],"materials":[{"name":"GeneralMkIII","pbrMetallicRoughness":{"baseColorTexture":{"index":0},"metallicFactor":0,"roughnessFactor":1},"normalTexture":{"index":1}}],"textures":[{"sampler":0,"source":0},{"sampler":0,"source":1}],"images":[{"uri":"w176_stupka_210_base_dif.png"},{"uri":"w176_stupka_210_base_nrm.png"}],"samplers":[{"wrapS":10497,"wrapT":10497}],"accessors":[{"bufferView":0,"componentType":5126,"count":2717,"type":"VEC3","min":[-0.059265595,-0.08055781,-0.39777115],"max":[0.059265595,0.25249586,0.44438347]},{"bufferView":1,"componentType":5126,"count":2717,"type":"VEC3"},{"bufferView":2,"componentType":5126,"count":2717,"type":"VEC4"},{"bufferView":3,"componentType":5126,"count":2717,"type":"VEC2"},{"bufferView":4,"componentType":5126,"count":2717,"type":"VEC2"},{"bufferView":5,"componentType":5126,"count":2717,"type":"VEC2"},{"bufferView":6,"componentType":5125,"count":9573,"type":"SCALAR"}],"bufferViews":[{"buffer":0,"byteOffset":0,"byteLength":32604,"target":34962},{"buffer":0,"byteOffset":32604,"byteLength":32604,"target":34962},{"buffer":0,"byteOffset":65208,"byteLength":43472,"target":34962},{"buffer":0,"byteOffset":108680,"byteLength":21736,"target":34962},{"buffer":0,"byteOffset":130416,"byteLength":21736,"target":34962},{"buffer":0,"byteOffset":152152,"byteLength":21736,"target":34962},{"buffer":0,"byteOffset":173888,"byteLength":38292,"target":34963}],"buffers":[{"uri":"w176_stupka_210__w176_stupka_210_base_body_lod1.bin","byteLength":212180}]}