{"asset":{"version":"2.0","generator":"RBMesh"},"scene":0,"scenes":[{"nodes":[0]}],"nodes":[{"mesh":0}],"meshes":[{"name":"GeneralMkIII_0","primitives":[{"attributes":{"POSITION":0,"NORMAL":1,"TANGENT":2,"TEXCOORD_0":3,"TEXCOORD_1":4,"TEXCOORD_2":5},"indices":6,"material":0,"mode":4}]}],"materials":[{"name":"GeneralMkIII","pbrMetallicRoughness":{"baseColorTexture":{"index":0},"metallicFactor":0,"roughnessFactor":1},"normalTexture":{"index":1}}],"textures":[{"sampler":0,"source":0},{"sampler":0,"source":1}],"images":[{"uri":"w176_stupka_210_projectile_dif.png"},{"uri":"w176_stupka_210_projectile_nrm.png"}],"samplers":[{"wrapS":10497,"wrapT":10497}],"accessors":[{"bufferView":0,"componentType":5126,"count":605,"type":"VEC3","min":[-0.025407106,-0.025407106,-0.13596515],"max":[0.025407106,0.025407106,0.13596515]},{"bufferView":1,"componentType":5126,"count":605,"type":"VEC3"},{"bufferView":2,"componentType":5126,"count":605,"type":"VEC4"},{"bufferView":3,"componentType":5126,"count":605,"type":"VEC2"},{"bufferView":4,"componentType":5126,"count":605,"type":"VEC2"},{"bufferView":5,"componentType":5126,"count":605,"type":"VEC2"},{"bufferView":6,"componentType":5125,"count":1944,"type":"SCALAR"}],"bufferViews":[{"buffer":0,"byteOffset":0,"byteLength":7260,"target":34962},{"buffer":0,"byteOffset":7260,"byteLength":7260,"target":34962},{"buffer":0,"byteOffset":14520,"byteLength":9680,"target":34962},{"buffer":0,"byteOffset":24200,"byteLength":4840,"target":34962},{"buffer":0,"byteOffset":29040,"byteLength":4840,"target":34962},{"buffer":0,"byteOffset":33880,"byteLength":4840,"target":34962},{"buffer":0,"byteOffset":38720,"byteLength":7776,"target":34963}],"buffers":[{"uri":"w176_stupka_210__w176_stupka_210_projectile_body_lod1.bin","byteLength":46496}]}