{"asset":{"version":"2.0","generator":"RBMesh"},"scene":0,"scenes":[{"nodes":[0,1,2,3]}],"nodes":[{"mesh":0},{"mesh":1},{"mesh":2},{"mesh":3}],"meshes":[{"name":"GeneralMkIII_0","primitives":[{"attributes":{"POSITION":0,"NORMAL":1,"TANGENT":2,"TEXCOORD_0":3,"TEXCOORD_1":4,"TEXCOORD_2":5},"indices":6,"material":0,"mode":4}]},{"name":"GeneralMkIII_1","primitives":[{"attributes":{"POSITION":7,"NORMAL":8,"TANGENT":9,"TEXCOORD_0":10,"TEXCOORD_1":11,"TEXCOORD_2":12},"indices":13,"material":1,"mode":4}]},{"name":"GeneralMkIII_2","primitives":[{"attributes":{"POSITION":14,"NORMAL":15,"TANGENT":16,"TEXCOORD_0":17,"TEXCOORD_1":18,"TEXCOORD_2":19},"indices":20,"material":2,"mode":4}]},{"name":"General_3","primitives":[{"attributes":{"POSITION":21,"NORMAL":22,"TANGENT":23,"TEXCOORD_0":24,"TEXCOORD_1":25,"TEXCOORD_2":26},"indices":27,"material":3,"mode":4}]}],"materials":[{"name":"GeneralMkIII","pbrMetallicRoughness":{"baseColorTexture":{"index":0},"metallicFactor":0,"roughnessFactor":1},"normalTexture":{"index":1}},{"name":"GeneralMkIII","pbrMetallicRoughness":{"baseColorTexture":{"index":2},"metallicFactor":0,"roughnessFactor":1},"normalTexture":{"index":3}},{"name":"GeneralMkIII","pbrMetallicRoughness":{"baseColorTexture":{"index":4},"metallicFactor":0,"roughnessFactor":1},"normalTexture":{"index":5}},{"name":"General","pbrMetallicRoughness":{"baseColorTexture":{"index":6},"metallicFactor":0,"roughnessFactor":1},"normalTexture":{"index":7}}],"textures":[{"sampler":0,"source":0},{"sampler":0,"source":1},{"sampler":0,"source":2},{"sampler":0,"source":1},{"sampler":0,"source":3},{"sampler":0,"source":1},{"sampler":0,"source":4},{"sampler":0,"source":1}],"images":[{"uri":"w174_special_leafblower_03_dif.png"},{"uri":"dummy_nrm.png"},{"uri":"dummy_darkgrey.png"},{"uri":"w174_special_leafblower_01_dif.png"},{"uri":"dummy_dif.png"}],"samplers":[{"wrapS":10497,"wrapT":10497}],"accessors":[{"bufferView":0,"componentType":5126,"count":2423,"type":"VEC3","min":[-0.021116279,0.22449027,0.1838924],"max":[0.021904774,0.2702422,0.27062684]},{"bufferView":1,"componentType":5126,"count":2423,"type":"VEC3"},{"bufferView":2,"componentType":5126,"count":2423,"type":"VEC4"},{"bufferView":3,"componentType":5126,"count":2423,"type":"VEC2"},{"bufferView":4,"componentType":5126,"count":2423,"type":"VEC2"},{"bufferView":5,"componentType":5126,"count":2423,"type":"VEC2"},{"bufferView":6,"componentType":5125,"count":12276,"type":"SCALAR"},{"bufferView":7,"componentType":5126,"count":3045,"type":"VEC3","min":[-0.02938586,-0.01373135,-0.6301613],"max":[0.116120294,0.2080088,0.2769348]},{"bufferView":8,"componentType":5126,"count":3045,"type":"VEC3"},{"bufferView":9,"componentType":5126,"count":3045,"type":"VEC4"},{"bufferView":10,"componentType":5126,"count":3045,"type":"VEC2"},{"bufferView":11,"componentType":5126,"count":3045,"type":"VEC2"},{"bufferView":12,"componentType":5126,"count":3045,"type":"VEC2"},{"bufferView":13,"componentType":5125,"count":14430,"type":"SCALAR"},{"bufferView":14,"componentType":5126,"count":6352,"type":"VEC3","min":[-0.08104189,0.047809716,0.07338772],"max":[0.033289872,0.23751006,0.27895412]},{"bufferView":15,"componentType":5126,"count":6352,"type":"VEC3"},{"bufferView":16,"componentType":5126,"count":6352,"type":"VEC4"},{"bufferView":17,"componentType":5126,"count":6352,"type":"VEC2"},{"bufferView":18,"componentType":5126,"count":6352,"type":"VEC2"},{"bufferView":19,"componentType":5126,"count":6352,"type":"VEC2"},{"bufferView":20,"componentType":5125,"count":29499,"type":"SCALAR"},{"bufferView":21,"componentType":5126,"count":61,"type":"VEC3","min":[-0.011096624,0.18500784,0.15666048],"max":[0.014212141,0.20920116,0.19883534]},{"bufferView":22,"componentType":5126,"count":61,"type":"VEC3"},{"bufferView":23,"componentType":5126,"count":61,"type":"VEC4"},{"bufferView":24,"componentType":5126,"count":61,"type":"VEC2"},{"bufferView":25,"componentType":5126,"count":61,"type":"VEC2"},{"bufferView":26,"componentType":5126,"count":61,"type":"VEC2"},{"bufferView":27,"componentType":5125,"count":117,"type":"SCALAR"}],"bufferViews":[{"buffer":0,"byteOffset":0,"byteLength":29076,"target":34962},{"buffer":0,"byteOffset":29076,"byteLength":29076,"target":34962},{"buffer":0,"byteOffset":58152,"byteLength":38768,"target":34962},{"buffer":0,"byteOffset":96920,"byteLength":19384,"target":34962},{"buffer":0,"byteOffset":116304,"byteLength":19384,"target":34962},{"buffer":0,"byteOffset":135688,"byteLength":19384,"target":34962},{"buffer":0,"byteOffset":155072,"byteLength":49104,"target":34963},{"buffer":0,"byteOffset":204176,"byteLength":36540,"target":34962},{"buffer":0,"byteOffset":240716,"byteLength":36540,"target":34962},{"buffer":0,"byteOffset":277256,"byteLength":48720,"target":34962},{"buffer":0,"byteOffset":325976,"byteLength":24360,"target":34962},{"buffer":0,"byteOffset":350336,"byteLength":24360,"target":34962},{"buffer":0,"byteOffset":374696,"byteLength":24360,"target":34962},{"buffer":0,"byteOffset":399056,"byteLength":57720,"target":34963},{"buffer":0,"byteOffset":456776,"byteLength":76224,"target":34962},{"buffer":0,"byteOffset":533000,"byteLength":76224,"target":34962},{"buffer":0,"byteOffset":609224,"byteLength":101632,"target":34962},{"buffer":0,"byteOffset":710856,"byteLength":50816,"target":34962},{"buffer":0,"byteOffset":761672,"byteLength":50816,"target":34962},{"buffer":0,"byteOffset":812488,"byteLength":50816,"target":34962},{"buffer":0,"byteOffset":863304,"byteLength":117996,"target":34963},{"buffer":0,"byteOffset":981300,"byteLength":732,"target":34962},{"buffer":0,"byteOffset":982032,"byteLength":732,"target":34962},{"buffer":0,"byteOffset":982764,"byteLength":976,"target":34962},{"buffer":0,"byteOffset":983740,"byteLength":488,"target":34962},{"buffer":0,"byteOffset":984228,"byteLength":488,"target":34962},{"buffer":0,"byteOffset":984716,"byteLength":488,"target":34962},{"buffer":0,"byteOffset":985204,"byteLength":468,"target":34963}],"buffers":[{"uri":"w177_typhoon__w174_special_leafblower_body_lod1.bin","byteLength":985672}]}