{"asset":{"version":"2.0","generator":"RBMesh"},"scene":0,"scenes":[{"nodes":[0]}],"nodes":[{"mesh":0}],"meshes":[{"name":"GeneralMkIII_0","primitives":[{"attributes":{"POSITION":0,"NORMAL":1,"TANGENT":2,"TEXCOORD_0":3,"TEXCOORD_1":4,"TEXCOORD_2":5},"indices":6,"material":0,"mode":4}]}],"materials":[{"name":"GeneralMkIII","pbrMetallicRoughness":{"baseColorTexture":{"index":0},"metallicFactor":0,"roughnessFactor":1},"normalTexture":{"index":1}}],"textures":[{"sampler":0,"source":0},{"sampler":0,"source":1}],"images":[{"uri":"w112_assault_rifle_cs_predator_dif.png"},{"uri":"w112_assault_rifle_cs_predator_nrm.png"}],"samplers":[{"wrapS":10497,"wrapT":10497}],"accessors":[{"bufferView":0,"componentType":5126,"count":4591,"type":"VEC3","min":[-0.029742353,-0.056376982,-0.68340665],"max":[0.051892687,0.21416162,0.27654546]},{"bufferView":1,"componentType":5126,"count":4591,"type":"VEC3"},{"bufferView":2,"componentType":5126,"count":4591,"type":"VEC4"},{"bufferView":3,"componentType":5126,"count":4591,"type":"VEC2"},{"bufferView":4,"componentType":5126,"count":4591,"type":"VEC2"},{"bufferView":5,"componentType":5126,"count":4591,"type":"VEC2"},{"bufferView":6,"componentType":5125,"count":14487,"type":"SCALAR"}],"bufferViews":[{"buffer":0,"byteOffset":0,"byteLength":55092,"target":34962},{"buffer":0,"byteOffset":55092,"byteLength":55092,"target":34962},{"buffer":0,"byteOffset":110184,"byteLength":73456,"target":34962},{"buffer":0,"byteOffset":183640,"byteLength":36728,"target":34962},{"buffer":0,"byteOffset":220368,"byteLength":36728,"target":34962},{"buffer":0,"byteOffset":257096,"byteLength":36728,"target":34962},{"buffer":0,"byteOffset":293824,"byteLength":57948,"target":34963}],"buffers":[{"uri":"w179_namaste__w112_assault_rifle_cs_predator_body_lod1.bin","byteLength":351772}]}