{"asset":{"version":"2.0","generator":"RBMesh"},"scene":0,"scenes":[{"nodes":[0]}],"nodes":[{"mesh":0}],"meshes":[{"name":"GeneralMkIII_0","primitives":[{"attributes":{"POSITION":0,"NORMAL":1,"TANGENT":2,"TEXCOORD_0":3,"TEXCOORD_1":4,"TEXCOORD_2":5},"indices":6,"material":0,"mode":4}]}],"materials":[{"name":"GeneralMkIII","pbrMetallicRoughness":{"baseColorTexture":{"index":0},"metallicFactor":0,"roughnessFactor":1},"normalTexture":{"index":1}}],"textures":[{"sampler":0,"source":0},{"sampler":0,"source":1}],"images":[{"uri":"w201_mini_gun_mount_dif.png"},{"uri":"w201_mini_gun_mount_nrm.png"}],"samplers":[{"wrapS":10497,"wrapT":10497}],"accessors":[{"bufferView":0,"componentType":5126,"count":1308,"type":"VEC3","min":[-0.27212924,-0.026819194,-0.24204323],"max":[0.27212924,0.4674243,0.22208576]},{"bufferView":1,"componentType":5126,"count":1308,"type":"VEC3"},{"bufferView":2,"componentType":5126,"count":1308,"type":"VEC4"},{"bufferView":3,"componentType":5126,"count":1308,"type":"VEC2"},{"bufferView":4,"componentType":5126,"count":1308,"type":"VEC2"},{"bufferView":5,"componentType":5126,"count":1308,"type":"VEC2"},{"bufferView":6,"componentType":5125,"count":2820,"type":"SCALAR"}],"bufferViews":[{"buffer":0,"byteOffset":0,"byteLength":15696,"target":34962},{"buffer":0,"byteOffset":15696,"byteLength":15696,"target":34962},{"buffer":0,"byteOffset":31392,"byteLength":20928,"target":34962},{"buffer":0,"byteOffset":52320,"byteLength":10464,"target":34962},{"buffer":0,"byteOffset":62784,"byteLength":10464,"target":34962},{"buffer":0,"byteOffset":73248,"byteLength":10464,"target":34962},{"buffer":0,"byteOffset":83712,"byteLength":11280,"target":34963}],"buffers":[{"uri":"w201_minigun_mount__mini_gun_mount_horizontal_lod1.bin","byteLength":94992}]}