{"asset":{"version":"2.0","generator":"RBMesh"},"scene":0,"scenes":[{"nodes":[0,1,2]}],"nodes":[{"mesh":0},{"mesh":1},{"mesh":2}],"meshes":[{"name":"GeneralMkIII_0","primitives":[{"attributes":{"POSITION":0,"NORMAL":1,"TANGENT":2,"TEXCOORD_0":3,"TEXCOORD_1":4,"TEXCOORD_2":5},"indices":6,"material":0,"mode":4}]},{"name":"GeneralMkIII_1","primitives":[{"attributes":{"POSITION":7,"NORMAL":8,"TANGENT":9,"TEXCOORD_0":10,"TEXCOORD_1":11,"TEXCOORD_2":12},"indices":13,"material":1,"mode":4}]},{"name":"GeneralMkIII_2","primitives":[{"attributes":{"POSITION":14,"NORMAL":15,"TANGENT":16,"TEXCOORD_0":17,"TEXCOORD_1":18,"TEXCOORD_2":19},"indices":20,"material":2,"mode":4}]}],"materials":[{"name":"GeneralMkIII","pbrMetallicRoughness":{"baseColorTexture":{"index":0},"metallicFactor":0,"roughnessFactor":1},"normalTexture":{"index":1}},{"name":"GeneralMkIII","pbrMetallicRoughness":{"baseColorTexture":{"index":2},"metallicFactor":0,"roughnessFactor":1},"normalTexture":{"index":3}},{"name":"GeneralMkIII","pbrMetallicRoughness":{"baseColorTexture":{"index":4},"metallicFactor":0,"roughnessFactor":1},"normalTexture":{"index":5}}],"textures":[{"sampler":0,"source":0},{"sampler":0,"source":1},{"sampler":0,"source":2},{"sampler":0,"source":3},{"sampler":0,"source":0},{"sampler":0,"source":1}],"images":[{"uri":"w201_mini_gun_urga_vulkan_dif.png"},{"uri":"w201_mini_gun_urga_vulkan_nrm.png"},{"uri":"w201_mini_gun_urga_vulkan_ammo_alpha_dif.png"},{"uri":"w201_mini_gun_urga_vulkan_ammo_nrm.png"}],"samplers":[{"wrapS":10497,"wrapT":10497}],"accessors":[{"bufferView":0,"componentType":5126,"count":4846,"type":"VEC3","min":[-0.1502835,-0.447003,-0.66997147],"max":[0.16576613,0.12446367,0.05391108]},{"bufferView":1,"componentType":5126,"count":4846,"type":"VEC3"},{"bufferView":2,"componentType":5126,"count":4846,"type":"VEC4"},{"bufferView":3,"componentType":5126,"count":4846,"type":"VEC2"},{"bufferView":4,"componentType":5126,"count":4846,"type":"VEC2"},{"bufferView":5,"componentType":5126,"count":4846,"type":"VEC2"},{"bufferView":6,"componentType":5125,"count":14688,"type":"SCALAR"},{"bufferView":7,"componentType":5126,"count":240,"type":"VEC3","min":[0.08932644,-0.37505978,-0.34729302],"max":[0.20794934,-0.13099974,-0.27984625]},{"bufferView":8,"componentType":5126,"count":240,"type":"VEC3"},{"bufferView":9,"componentType":5126,"count":240,"type":"VEC4"},{"bufferView":10,"componentType":5126,"count":240,"type":"VEC2"},{"bufferView":11,"componentType":5126,"count":240,"type":"VEC2"},{"bufferView":12,"componentType":5126,"count":240,"type":"VEC2"},{"bufferView":13,"componentType":5125,"count":840,"type":"SCALAR"},{"bufferView":14,"componentType":5126,"count":1439,"type":"VEC3","min":[-0.0835784,-0.17582521,-1.5189203],"max":[0.0835784,-0.005840753,-0.50244385]},{"bufferView":15,"componentType":5126,"count":1439,"type":"VEC3"},{"bufferView":16,"componentType":5126,"count":1439,"type":"VEC4"},{"bufferView":17,"componentType":5126,"count":1439,"type":"VEC2"},{"bufferView":18,"componentType":5126,"count":1439,"type":"VEC2"},{"bufferView":19,"componentType":5126,"count":1439,"type":"VEC2"},{"bufferView":20,"componentType":5125,"count":4236,"type":"SCALAR"}],"bufferViews":[{"buffer":0,"byteOffset":0,"byteLength":58152,"target":34962},{"buffer":0,"byteOffset":58152,"byteLength":58152,"target":34962},{"buffer":0,"byteOffset":116304,"byteLength":77536,"target":34962},{"buffer":0,"byteOffset":193840,"byteLength":38768,"target":34962},{"buffer":0,"byteOffset":232608,"byteLength":38768,"target":34962},{"buffer":0,"byteOffset":271376,"byteLength":38768,"target":34962},{"buffer":0,"byteOffset":310144,"byteLength":58752,"target":34963},{"buffer":0,"byteOffset":368896,"byteLength":2880,"target":34962},{"buffer":0,"byteOffset":371776,"byteLength":2880,"target":34962},{"buffer":0,"byteOffset":374656,"byteLength":3840,"target":34962},{"buffer":0,"byteOffset":378496,"byteLength":1920,"target":34962},{"buffer":0,"byteOffset":380416,"byteLength":1920,"target":34962},{"buffer":0,"byteOffset":382336,"byteLength":1920,"target":34962},{"buffer":0,"byteOffset":384256,"byteLength":3360,"target":34963},{"buffer":0,"byteOffset":387616,"byteLength":17268,"target":34962},{"buffer":0,"byteOffset":404884,"byteLength":17268,"target":34962},{"buffer":0,"byteOffset":422152,"byteLength":23024,"target":34962},{"buffer":0,"byteOffset":445176,"byteLength":11512,"target":34962},{"buffer":0,"byteOffset":456688,"byteLength":11512,"target":34962},{"buffer":0,"byteOffset":468200,"byteLength":11512,"target":34962},{"buffer":0,"byteOffset":479712,"byteLength":16944,"target":34963}],"buffers":[{"uri":"w201_minigun__w201_mini_gun_urga_vulkan_body_lod1.bin","byteLength":496656}]}