{"asset":{"version":"2.0","generator":"RBMesh"},"scene":0,"scenes":[{"nodes":[0]}],"nodes":[{"mesh":0}],"meshes":[{"name":"GeneralMkIII_0","primitives":[{"attributes":{"POSITION":0,"NORMAL":1,"TANGENT":2,"TEXCOORD_0":3,"TEXCOORD_1":4,"TEXCOORD_2":5},"indices":6,"material":0,"mode":4}]}],"materials":[{"name":"GeneralMkIII","pbrMetallicRoughness":{"baseColorTexture":{"index":0},"metallicFactor":0,"roughnessFactor":1},"normalTexture":{"index":1}}],"textures":[{"sampler":0,"source":0},{"sampler":0,"source":1}],"images":[{"uri":"w205_mounted_urga_uzhas_120_dif.png"},{"uri":"w205_mounted_urga_uzhas_120_nrm.png"}],"samplers":[{"wrapS":10497,"wrapT":10497}],"accessors":[{"bufferView":0,"componentType":5126,"count":4343,"type":"VEC3","min":[-0.058624726,-0.05558586,-1.382978],"max":[0.05465732,0.23956367,0.27868903]},{"bufferView":1,"componentType":5126,"count":4343,"type":"VEC3"},{"bufferView":2,"componentType":5126,"count":4343,"type":"VEC4"},{"bufferView":3,"componentType":5126,"count":4343,"type":"VEC2"},{"bufferView":4,"componentType":5126,"count":4343,"type":"VEC2"},{"bufferView":5,"componentType":5126,"count":4343,"type":"VEC2"},{"bufferView":6,"componentType":5125,"count":14847,"type":"SCALAR"}],"bufferViews":[{"buffer":0,"byteOffset":0,"byteLength":52116,"target":34962},{"buffer":0,"byteOffset":52116,"byteLength":52116,"target":34962},{"buffer":0,"byteOffset":104232,"byteLength":69488,"target":34962},{"buffer":0,"byteOffset":173720,"byteLength":34744,"target":34962},{"buffer":0,"byteOffset":208464,"byteLength":34744,"target":34962},{"buffer":0,"byteOffset":243208,"byteLength":34744,"target":34962},{"buffer":0,"byteOffset":277952,"byteLength":59388,"target":34963}],"buffers":[{"uri":"w205_mounted_urga_uzhas_120__w205_mounted_urga_uzhas_120_body_lod1.bin","byteLength":337340}]}