{"asset":{"version":"2.0","generator":"RBMesh"},"scene":0,"scenes":[{"nodes":[0]}],"nodes":[{"mesh":0}],"meshes":[{"name":"GeneralMkIII_0","primitives":[{"attributes":{"POSITION":0,"NORMAL":1,"TANGENT":2,"TEXCOORD_0":3,"TEXCOORD_1":4,"TEXCOORD_2":5},"indices":6,"material":0,"mode":4}]}],"materials":[{"name":"GeneralMkIII","pbrMetallicRoughness":{"baseColorTexture":{"index":0},"metallicFactor":0,"roughnessFactor":1},"normalTexture":{"index":1}}],"textures":[{"sampler":0,"source":0},{"sampler":0,"source":1}],"images":[{"uri":"w201_mini_gun_mount_dif.png"},{"uri":"w201_mini_gun_mount_nrm.png"}],"samplers":[{"wrapS":10497,"wrapT":10497}],"accessors":[{"bufferView":0,"componentType":5126,"count":2031,"type":"VEC3","min":[-0.3857331,-0.21450415,-0.29017687],"max":[0.2609814,0.14868489,0.35742056]},{"bufferView":1,"componentType":5126,"count":2031,"type":"VEC3"},{"bufferView":2,"componentType":5126,"count":2031,"type":"VEC4"},{"bufferView":3,"componentType":5126,"count":2031,"type":"VEC2"},{"bufferView":4,"componentType":5126,"count":2031,"type":"VEC2"},{"bufferView":5,"componentType":5126,"count":2031,"type":"VEC2"},{"bufferView":6,"componentType":5125,"count":4947,"type":"SCALAR"}],"bufferViews":[{"buffer":0,"byteOffset":0,"byteLength":24372,"target":34962},{"buffer":0,"byteOffset":24372,"byteLength":24372,"target":34962},{"buffer":0,"byteOffset":48744,"byteLength":32496,"target":34962},{"buffer":0,"byteOffset":81240,"byteLength":16248,"target":34962},{"buffer":0,"byteOffset":97488,"byteLength":16248,"target":34962},{"buffer":0,"byteOffset":113736,"byteLength":16248,"target":34962},{"buffer":0,"byteOffset":129984,"byteLength":19788,"target":34963}],"buffers":[{"uri":"w205_mounted_urga_uzhas_120_mount__mini_gun_mount_vertical_lod1.bin","byteLength":149772}]}