{"asset":{"version":"2.0","generator":"RBMesh"},"scene":0,"scenes":[{"nodes":[0]}],"nodes":[{"mesh":0}],"meshes":[{"name":"GeneralMkIII_0","primitives":[{"attributes":{"POSITION":0,"NORMAL":1,"TANGENT":2,"TEXCOORD_0":3,"TEXCOORD_1":4,"TEXCOORD_2":5},"indices":6,"material":0,"mode":4}]}],"materials":[{"name":"GeneralMkIII","pbrMetallicRoughness":{"baseColorTexture":{"index":0},"metallicFactor":0,"roughnessFactor":1},"normalTexture":{"index":1}}],"textures":[{"sampler":0,"source":0},{"sampler":0,"source":1}],"images":[{"uri":"w201_mini_gun_mount_dif.png"},{"uri":"w201_mini_gun_mount_nrm.png"}],"samplers":[{"wrapS":10497,"wrapT":10497}],"accessors":[{"bufferView":0,"componentType":5126,"count":1936,"type":"VEC3","min":[-0.41507223,0.0040049423,-0.50280714],"max":[0.41528583,0.8748663,0.33492]},{"bufferView":1,"componentType":5126,"count":1936,"type":"VEC3"},{"bufferView":2,"componentType":5126,"count":1936,"type":"VEC4"},{"bufferView":3,"componentType":5126,"count":1936,"type":"VEC2"},{"bufferView":4,"componentType":5126,"count":1936,"type":"VEC2"},{"bufferView":5,"componentType":5126,"count":1936,"type":"VEC2"},{"bufferView":6,"componentType":5125,"count":5580,"type":"SCALAR"}],"bufferViews":[{"buffer":0,"byteOffset":0,"byteLength":23232,"target":34962},{"buffer":0,"byteOffset":23232,"byteLength":23232,"target":34962},{"buffer":0,"byteOffset":46464,"byteLength":30976,"target":34962},{"buffer":0,"byteOffset":77440,"byteLength":15488,"target":34962},{"buffer":0,"byteOffset":92928,"byteLength":15488,"target":34962},{"buffer":0,"byteOffset":108416,"byteLength":15488,"target":34962},{"buffer":0,"byteOffset":123904,"byteLength":22320,"target":34963}],"buffers":[{"uri":"w205_mounted_urga_uzhas_120_mount__mini_gun_mount_tripod_lod1.bin","byteLength":146224}]}