{"asset":{"version":"2.0","generator":"RBMesh"},"scene":0,"scenes":[{"nodes":[0]}],"nodes":[{"mesh":0}],"meshes":[{"name":"GeneralMkIII_0","primitives":[{"attributes":{"POSITION":0,"NORMAL":1,"TANGENT":2,"TEXCOORD_0":3,"TEXCOORD_1":4,"TEXCOORD_2":5},"indices":6,"material":0,"mode":4}]}],"materials":[{"name":"GeneralMkIII","pbrMetallicRoughness":{"baseColorTexture":{"index":0},"metallicFactor":0,"roughnessFactor":1},"normalTexture":{"index":1}}],"textures":[{"sampler":0,"source":0},{"sampler":0,"source":1}],"images":[{"uri":"w206_mounted_capstone_m2hm_dif.png"},{"uri":"w206_mounted_capstone_m2hm_nrm.png"}],"samplers":[{"wrapS":10497,"wrapT":10497}],"accessors":[{"bufferView":0,"componentType":5126,"count":5963,"type":"VEC3","min":[-0.068318985,0.029904537,-0.9818457],"max":[0.23626982,0.35031456,0.3638885]},{"bufferView":1,"componentType":5126,"count":5963,"type":"VEC3"},{"bufferView":2,"componentType":5126,"count":5963,"type":"VEC4"},{"bufferView":3,"componentType":5126,"count":5963,"type":"VEC2"},{"bufferView":4,"componentType":5126,"count":5963,"type":"VEC2"},{"bufferView":5,"componentType":5126,"count":5963,"type":"VEC2"},{"bufferView":6,"componentType":5125,"count":18390,"type":"SCALAR"}],"bufferViews":[{"buffer":0,"byteOffset":0,"byteLength":71556,"target":34962},{"buffer":0,"byteOffset":71556,"byteLength":71556,"target":34962},{"buffer":0,"byteOffset":143112,"byteLength":95408,"target":34962},{"buffer":0,"byteOffset":238520,"byteLength":47704,"target":34962},{"buffer":0,"byteOffset":286224,"byteLength":47704,"target":34962},{"buffer":0,"byteOffset":333928,"byteLength":47704,"target":34962},{"buffer":0,"byteOffset":381632,"byteLength":73560,"target":34963}],"buffers":[{"uri":"w206_mounted_capstone_m2hm__w206_mounted_capstone_m2hm_body_lod1.bin","byteLength":455192}]}