{"asset":{"version":"2.0","generator":"RBMesh"},"scene":0,"scenes":[{"nodes":[0]}],"nodes":[{"mesh":0}],"meshes":[{"name":"GeneralMkIII_0","primitives":[{"attributes":{"POSITION":0,"NORMAL":1,"TANGENT":2,"TEXCOORD_0":3,"TEXCOORD_1":4,"TEXCOORD_2":5},"indices":6,"material":0,"mode":4}]}],"materials":[{"name":"GeneralMkIII","pbrMetallicRoughness":{"baseColorTexture":{"index":0},"metallicFactor":0,"roughnessFactor":1},"normalTexture":{"index":1}}],"textures":[{"sampler":0,"source":0},{"sampler":0,"source":1}],"images":[{"uri":"w301_grenade_frag_dif.png"},{"uri":"w301_grenade_frag_nrm.png"}],"samplers":[{"wrapS":10497,"wrapT":10497}],"accessors":[{"bufferView":0,"componentType":5126,"count":1168,"type":"VEC3","min":[-0.033920214,-0.042054128,-0.033920214],"max":[0.033920214,0.08877943,0.035356246]},{"bufferView":1,"componentType":5126,"count":1168,"type":"VEC3"},{"bufferView":2,"componentType":5126,"count":1168,"type":"VEC4"},{"bufferView":3,"componentType":5126,"count":1168,"type":"VEC2"},{"bufferView":4,"componentType":5126,"count":1168,"type":"VEC2"},{"bufferView":5,"componentType":5126,"count":1168,"type":"VEC2"},{"bufferView":6,"componentType":5125,"count":4350,"type":"SCALAR"}],"bufferViews":[{"buffer":0,"byteOffset":0,"byteLength":14016,"target":34962},{"buffer":0,"byteOffset":14016,"byteLength":14016,"target":34962},{"buffer":0,"byteOffset":28032,"byteLength":18688,"target":34962},{"buffer":0,"byteOffset":46720,"byteLength":9344,"target":34962},{"buffer":0,"byteOffset":56064,"byteLength":9344,"target":34962},{"buffer":0,"byteOffset":65408,"byteLength":9344,"target":34962},{"buffer":0,"byteOffset":74752,"byteLength":17400,"target":34963}],"buffers":[{"uri":"w301_grenade__w301_grenade_frag_body_lod1.bin","byteLength":92152}]}