{"asset":{"version":"2.0","generator":"RBMesh"},"scene":0,"scenes":[{"nodes":[0,1]}],"nodes":[{"mesh":0},{"mesh":1}],"meshes":[{"name":"GeneralMkIII_0","primitives":[{"attributes":{"POSITION":0,"NORMAL":1,"TANGENT":2,"TEXCOORD_0":3,"TEXCOORD_1":4,"TEXCOORD_2":5},"indices":6,"material":0,"mode":4}]},{"name":"GeneralMkIII_1","primitives":[{"attributes":{"POSITION":7,"NORMAL":8,"TANGENT":9,"TEXCOORD_0":10,"TEXCOORD_1":11,"TEXCOORD_2":12},"indices":13,"material":1,"mode":4}]}],"materials":[{"name":"GeneralMkIII","pbrMetallicRoughness":{"baseColorTexture":{"index":0},"metallicFactor":0,"roughnessFactor":1},"normalTexture":{"index":1}},{"name":"GeneralMkIII","pbrMetallicRoughness":{"baseColorTexture":{"index":2},"metallicFactor":0,"roughnessFactor":1},"normalTexture":{"index":3}}],"textures":[{"sampler":0,"source":0},{"sampler":0,"source":1},{"sampler":0,"source":2},{"sampler":0,"source":3}],"images":[{"uri":"rebel_beacon_01_dif.png"},{"uri":"rebel_beacon_01_nrm.png"},{"uri":"rebel_beacon_02_dif.png"},{"uri":"dummy_nrm.png"}],"samplers":[{"wrapS":10497,"wrapT":10497}],"accessors":[{"bufferView":0,"componentType":5126,"count":88,"type":"VEC3","min":[-0.034608103,-0.04996297,-0.034608103],"max":[0.034608103,0.04996297,0.034608103]},{"bufferView":1,"componentType":5126,"count":88,"type":"VEC3"},{"bufferView":2,"componentType":5126,"count":88,"type":"VEC4"},{"bufferView":3,"componentType":5126,"count":88,"type":"VEC2"},{"bufferView":4,"componentType":5126,"count":88,"type":"VEC2"},{"bufferView":5,"componentType":5126,"count":88,"type":"VEC2"},{"bufferView":6,"componentType":5125,"count":360,"type":"SCALAR"},{"bufferView":7,"componentType":5126,"count":281,"type":"VEC3","min":[-0.031416137,-0.060140055,-0.031416137],"max":[0.031416137,0.061560377,0.031416137]},{"bufferView":8,"componentType":5126,"count":281,"type":"VEC3"},{"bufferView":9,"componentType":5126,"count":281,"type":"VEC4"},{"bufferView":10,"componentType":5126,"count":281,"type":"VEC2"},{"bufferView":11,"componentType":5126,"count":281,"type":"VEC2"},{"bufferView":12,"componentType":5126,"count":281,"type":"VEC2"},{"bufferView":13,"componentType":5125,"count":600,"type":"SCALAR"}],"bufferViews":[{"buffer":0,"byteOffset":0,"byteLength":1056,"target":34962},{"buffer":0,"byteOffset":1056,"byteLength":1056,"target":34962},{"buffer":0,"byteOffset":2112,"byteLength":1408,"target":34962},{"buffer":0,"byteOffset":3520,"byteLength":704,"target":34962},{"buffer":0,"byteOffset":4224,"byteLength":704,"target":34962},{"buffer":0,"byteOffset":4928,"byteLength":704,"target":34962},{"buffer":0,"byteOffset":5632,"byteLength":1440,"target":34963},{"buffer":0,"byteOffset":7072,"byteLength":3372,"target":34962},{"buffer":0,"byteOffset":10444,"byteLength":3372,"target":34962},{"buffer":0,"byteOffset":13816,"byteLength":4496,"target":34962},{"buffer":0,"byteOffset":18312,"byteLength":2248,"target":34962},{"buffer":0,"byteOffset":20560,"byteLength":2248,"target":34962},{"buffer":0,"byteOffset":22808,"byteLength":2248,"target":34962},{"buffer":0,"byteOffset":25056,"byteLength":2400,"target":34963}],"buffers":[{"uri":"w302_beacon__rebel_beacon_a_01_lod1.bin","byteLength":27456}]}