{"asset":{"version":"2.0","generator":"RBMesh"},"scene":0,"scenes":[{"nodes":[0]}],"nodes":[{"mesh":0}],"meshes":[{"name":"GeneralMkIII_0","primitives":[{"attributes":{"POSITION":0,"NORMAL":1,"TANGENT":2,"TEXCOORD_0":3,"TEXCOORD_1":4,"TEXCOORD_2":5},"indices":6,"material":0,"mode":4}]}],"materials":[{"name":"GeneralMkIII","pbrMetallicRoughness":{"baseColorTexture":{"index":0},"metallicFactor":0,"roughnessFactor":1},"normalTexture":{"index":1}}],"textures":[{"sampler":0,"source":0},{"sampler":0,"source":1}],"images":[{"uri":"w401_explosives_c4_dif.png"},{"uri":"w401_explosives_c4_nrm.png"}],"samplers":[{"wrapS":10497,"wrapT":10497}],"accessors":[{"bufferView":0,"componentType":5126,"count":247,"type":"VEC3","min":[-0.016327513,0,-0.016739378],"max":[0.016327513,0.08763368,0.016739378]},{"bufferView":1,"componentType":5126,"count":247,"type":"VEC3"},{"bufferView":2,"componentType":5126,"count":247,"type":"VEC4"},{"bufferView":3,"componentType":5126,"count":247,"type":"VEC2"},{"bufferView":4,"componentType":5126,"count":247,"type":"VEC2"},{"bufferView":5,"componentType":5126,"count":247,"type":"VEC2"},{"bufferView":6,"componentType":5125,"count":852,"type":"SCALAR"}],"bufferViews":[{"buffer":0,"byteOffset":0,"byteLength":2964,"target":34962},{"buffer":0,"byteOffset":2964,"byteLength":2964,"target":34962},{"buffer":0,"byteOffset":5928,"byteLength":3952,"target":34962},{"buffer":0,"byteOffset":9880,"byteLength":1976,"target":34962},{"buffer":0,"byteOffset":11856,"byteLength":1976,"target":34962},{"buffer":0,"byteOffset":13832,"byteLength":1976,"target":34962},{"buffer":0,"byteOffset":15808,"byteLength":3408,"target":34963}],"buffers":[{"uri":"w401_explosives_c4__w401_explosive_c4_trigger_lod1.bin","byteLength":19216}]}