{"asset":{"version":"2.0","generator":"RBMesh"},"scene":0,"scenes":[{"nodes":[0]}],"nodes":[{"mesh":0}],"meshes":[{"name":"GeneralMkIII_0","primitives":[{"attributes":{"POSITION":0,"NORMAL":1,"TANGENT":2,"TEXCOORD_0":3,"TEXCOORD_1":4,"TEXCOORD_2":5},"indices":6,"material":0,"mode":4}]}],"materials":[{"name":"GeneralMkIII","pbrMetallicRoughness":{"baseColorTexture":{"index":0},"metallicFactor":0,"roughnessFactor":1},"normalTexture":{"index":1}}],"textures":[{"sampler":0,"source":0},{"sampler":0,"source":1}],"images":[{"uri":"dummy_dark_green_dif.png"},{"uri":"w401_explosives_c4_nrm.png"}],"samplers":[{"wrapS":10497,"wrapT":10497}],"accessors":[{"bufferView":0,"componentType":5126,"count":1149,"type":"VEC3","min":[-0.05929152,-0.004695932,-0.06405979],"max":[0.058978718,0.029368147,0.043127503]},{"bufferView":1,"componentType":5126,"count":1149,"type":"VEC3"},{"bufferView":2,"componentType":5126,"count":1149,"type":"VEC4"},{"bufferView":3,"componentType":5126,"count":1149,"type":"VEC2"},{"bufferView":4,"componentType":5126,"count":1149,"type":"VEC2"},{"bufferView":5,"componentType":5126,"count":1149,"type":"VEC2"},{"bufferView":6,"componentType":5125,"count":3069,"type":"SCALAR"}],"bufferViews":[{"buffer":0,"byteOffset":0,"byteLength":13788,"target":34962},{"buffer":0,"byteOffset":13788,"byteLength":13788,"target":34962},{"buffer":0,"byteOffset":27576,"byteLength":18384,"target":34962},{"buffer":0,"byteOffset":45960,"byteLength":9192,"target":34962},{"buffer":0,"byteOffset":55152,"byteLength":9192,"target":34962},{"buffer":0,"byteOffset":64344,"byteLength":9192,"target":34962},{"buffer":0,"byteOffset":73536,"byteLength":12276,"target":34963}],"buffers":[{"uri":"w401_explosives_c4__w401_explosive_c4_ghost_body_lod1.bin","byteLength":85812}]}