{"asset":{"version":"2.0","generator":"RBMesh"},"scene":0,"scenes":[{"nodes":[0]}],"nodes":[{"mesh":0}],"meshes":[{"name":"GeneralMkIII_0","primitives":[{"attributes":{"POSITION":0,"NORMAL":1,"TANGENT":2,"TEXCOORD_0":3,"TEXCOORD_1":4,"TEXCOORD_2":5},"indices":6,"material":0,"mode":4}]}],"materials":[{"name":"GeneralMkIII","pbrMetallicRoughness":{"baseColorTexture":{"index":0},"metallicFactor":0,"roughnessFactor":1},"normalTexture":{"index":1}}],"textures":[{"sampler":0,"source":0},{"sampler":0,"source":1}],"images":[{"uri":"w501_sam_capstone_skyshield_body_dif.png"},{"uri":"w501_sam_capstone_skyshield_body_nrm.png"}],"samplers":[{"wrapS":10497,"wrapT":10497}],"accessors":[{"bufferView":0,"componentType":5126,"count":411,"type":"VEC3","min":[-0.595923,-0.26741698,-0.25761434],"max":[0,0.2579599,0.25828725]},{"bufferView":1,"componentType":5126,"count":411,"type":"VEC3"},{"bufferView":2,"componentType":5126,"count":411,"type":"VEC4"},{"bufferView":3,"componentType":5126,"count":411,"type":"VEC2"},{"bufferView":4,"componentType":5126,"count":411,"type":"VEC2"},{"bufferView":5,"componentType":5126,"count":411,"type":"VEC2"},{"bufferView":6,"componentType":5125,"count":966,"type":"SCALAR"}],"bufferViews":[{"buffer":0,"byteOffset":0,"byteLength":4932,"target":34962},{"buffer":0,"byteOffset":4932,"byteLength":4932,"target":34962},{"buffer":0,"byteOffset":9864,"byteLength":6576,"target":34962},{"buffer":0,"byteOffset":16440,"byteLength":3288,"target":34962},{"buffer":0,"byteOffset":19728,"byteLength":3288,"target":34962},{"buffer":0,"byteOffset":23016,"byteLength":3288,"target":34962},{"buffer":0,"byteOffset":26304,"byteLength":3864,"target":34963}],"buffers":[{"uri":"w501_turret_sam_v2_custom_scripted__w501_sam_capstone_skyshield_missile_launcher_l_dst_lod1.bin","byteLength":30168}]}