{"asset":{"version":"2.0","generator":"RBMesh"},"scene":0,"scenes":[{"nodes":[0,1]}],"nodes":[{"mesh":0},{"mesh":1}],"meshes":[{"name":"GeneralMkIII_0","primitives":[{"attributes":{"POSITION":0,"NORMAL":1,"TANGENT":2,"TEXCOORD_0":3,"TEXCOORD_1":4,"TEXCOORD_2":5},"indices":6,"material":0,"mode":4}]},{"name":"GeneralMkIII_1","primitives":[{"attributes":{"POSITION":7,"NORMAL":8,"TANGENT":9,"TEXCOORD_0":10,"TEXCOORD_1":11,"TEXCOORD_2":12},"indices":13,"material":1,"mode":4}]}],"materials":[{"name":"GeneralMkIII","pbrMetallicRoughness":{"baseColorTexture":{"index":0},"metallicFactor":0,"roughnessFactor":1},"normalTexture":{"index":1}},{"name":"GeneralMkIII","pbrMetallicRoughness":{"baseColorTexture":{"index":2},"metallicFactor":0,"roughnessFactor":1},"normalTexture":{"index":3}}],"textures":[{"sampler":0,"source":0},{"sampler":0,"source":1},{"sampler":0,"source":2},{"sampler":0,"source":3}],"images":[{"uri":"w501_sam_capstone_skyshield_interior_dif.png"},{"uri":"w501_sam_capstone_skyshield_interior_nrm.png"},{"uri":"w501_sam_capstone_skyshield_body_dif.png"},{"uri":"w501_sam_capstone_skyshield_body_nrm.png"}],"samplers":[{"wrapS":10497,"wrapT":10497}],"accessors":[{"bufferView":0,"componentType":5126,"count":1776,"type":"VEC3","min":[-1.5002707,-0.06545902,-3.148377],"max":[1.5002707,0.636327,2.7970514]},{"bufferView":1,"componentType":5126,"count":1776,"type":"VEC3"},{"bufferView":2,"componentType":5126,"count":1776,"type":"VEC4"},{"bufferView":3,"componentType":5126,"count":1776,"type":"VEC2"},{"bufferView":4,"componentType":5126,"count":1776,"type":"VEC2"},{"bufferView":5,"componentType":5126,"count":1776,"type":"VEC2"},{"bufferView":6,"componentType":5125,"count":3864,"type":"SCALAR"},{"bufferView":7,"componentType":5126,"count":1591,"type":"VEC3","min":[-1.7634525,-0.09814047,-3.0951254],"max":[1.5753419,1.0596479,3.1496265]},{"bufferView":8,"componentType":5126,"count":1591,"type":"VEC3"},{"bufferView":9,"componentType":5126,"count":1591,"type":"VEC4"},{"bufferView":10,"componentType":5126,"count":1591,"type":"VEC2"},{"bufferView":11,"componentType":5126,"count":1591,"type":"VEC2"},{"bufferView":12,"componentType":5126,"count":1591,"type":"VEC2"},{"bufferView":13,"componentType":5125,"count":5598,"type":"SCALAR"}],"bufferViews":[{"buffer":0,"byteOffset":0,"byteLength":21312,"target":34962},{"buffer":0,"byteOffset":21312,"byteLength":21312,"target":34962},{"buffer":0,"byteOffset":42624,"byteLength":28416,"target":34962},{"buffer":0,"byteOffset":71040,"byteLength":14208,"target":34962},{"buffer":0,"byteOffset":85248,"byteLength":14208,"target":34962},{"buffer":0,"byteOffset":99456,"byteLength":14208,"target":34962},{"buffer":0,"byteOffset":113664,"byteLength":15456,"target":34963},{"buffer":0,"byteOffset":129120,"byteLength":19092,"target":34962},{"buffer":0,"byteOffset":148212,"byteLength":19092,"target":34962},{"buffer":0,"byteOffset":167304,"byteLength":25456,"target":34962},{"buffer":0,"byteOffset":192760,"byteLength":12728,"target":34962},{"buffer":0,"byteOffset":205488,"byteLength":12728,"target":34962},{"buffer":0,"byteOffset":218216,"byteLength":12728,"target":34962},{"buffer":0,"byteOffset":230944,"byteLength":22392,"target":34963}],"buffers":[{"uri":"w501_turret_sam_v2__w501_sam_capstone_skyshield_wagon_lod1.bin","byteLength":253336}]}