{"asset":{"version":"2.0","generator":"RBMesh"},"scene":0,"scenes":[{"nodes":[0,1]}],"nodes":[{"mesh":0},{"mesh":1}],"meshes":[{"name":"GeneralMkIII_0","primitives":[{"attributes":{"POSITION":0,"NORMAL":1,"TANGENT":2,"TEXCOORD_0":3,"TEXCOORD_1":4,"TEXCOORD_2":5},"indices":6,"material":0,"mode":4}]},{"name":"GeneralMkIII_1","primitives":[{"attributes":{"POSITION":7,"NORMAL":8,"TANGENT":9,"TEXCOORD_0":10,"TEXCOORD_1":11,"TEXCOORD_2":12},"indices":13,"material":1,"mode":4}]}],"materials":[{"name":"GeneralMkIII","pbrMetallicRoughness":{"baseColorTexture":{"index":0},"metallicFactor":0,"roughnessFactor":1},"normalTexture":{"index":1}},{"name":"GeneralMkIII","pbrMetallicRoughness":{"baseColorTexture":{"index":2},"metallicFactor":0,"roughnessFactor":1},"normalTexture":{"index":3}}],"textures":[{"sampler":0,"source":0},{"sampler":0,"source":1},{"sampler":0,"source":2},{"sampler":0,"source":3}],"images":[{"uri":"industrial_light_set_03_dif.png"},{"uri":"industrial_light_set_03_nrm.png"},{"uri":"industrial_light_set_04_dif.png"},{"uri":"industrial_light_set_04_nrm.png"}],"samplers":[{"wrapS":10497,"wrapT":10497}],"accessors":[{"bufferView":0,"componentType":5126,"count":338,"type":"VEC3","min":[-0.09332914,0,-0.09332914],"max":[0.09332914,0.20717166,0.09332914]},{"bufferView":1,"componentType":5126,"count":338,"type":"VEC3"},{"bufferView":2,"componentType":5126,"count":338,"type":"VEC4"},{"bufferView":3,"componentType":5126,"count":338,"type":"VEC2"},{"bufferView":4,"componentType":5126,"count":338,"type":"VEC2"},{"bufferView":5,"componentType":5126,"count":338,"type":"VEC2"},{"bufferView":6,"componentType":5125,"count":1182,"type":"SCALAR"},{"bufferView":7,"componentType":5126,"count":123,"type":"VEC3","min":[-0.08820754,0.049954135,-0.08820754],"max":[0.08820754,0.22109917,0.08820754]},{"bufferView":8,"componentType":5126,"count":123,"type":"VEC3"},{"bufferView":9,"componentType":5126,"count":123,"type":"VEC4"},{"bufferView":10,"componentType":5126,"count":123,"type":"VEC2"},{"bufferView":11,"componentType":5126,"count":123,"type":"VEC2"},{"bufferView":12,"componentType":5126,"count":123,"type":"VEC2"},{"bufferView":13,"componentType":5125,"count":528,"type":"SCALAR"}],"bufferViews":[{"buffer":0,"byteOffset":0,"byteLength":4056,"target":34962},{"buffer":0,"byteOffset":4056,"byteLength":4056,"target":34962},{"buffer":0,"byteOffset":8112,"byteLength":5408,"target":34962},{"buffer":0,"byteOffset":13520,"byteLength":2704,"target":34962},{"buffer":0,"byteOffset":16224,"byteLength":2704,"target":34962},{"buffer":0,"byteOffset":18928,"byteLength":2704,"target":34962},{"buffer":0,"byteOffset":21632,"byteLength":4728,"target":34963},{"buffer":0,"byteOffset":26360,"byteLength":1476,"target":34962},{"buffer":0,"byteOffset":27836,"byteLength":1476,"target":34962},{"buffer":0,"byteOffset":29312,"byteLength":1968,"target":34962},{"buffer":0,"byteOffset":31280,"byteLength":984,"target":34962},{"buffer":0,"byteOffset":32264,"byteLength":984,"target":34962},{"buffer":0,"byteOffset":33248,"byteLength":984,"target":34962},{"buffer":0,"byteOffset":34232,"byteLength":2112,"target":34963}],"buffers":[{"uri":"w501_turret_sam_v2__industrial_emergency_warning_light_lod1.bin","byteLength":36344}]}