{"asset":{"version":"2.0","generator":"RBMesh"},"scene":0,"scenes":[{"nodes":[0,1]}],"nodes":[{"mesh":0},{"mesh":1}],"meshes":[{"name":"CarPaintMM_0","primitives":[{"attributes":{"POSITION":0,"NORMAL":1,"TANGENT":2,"TEXCOORD_0":3,"TEXCOORD_1":4,"TEXCOORD_2":5},"indices":6,"material":0,"mode":4}]},{"name":"GeneralMkIII_1","primitives":[{"attributes":{"POSITION":7,"NORMAL":8,"TANGENT":9,"TEXCOORD_0":10,"TEXCOORD_1":11,"TEXCOORD_2":12},"indices":13,"material":1,"mode":4}]}],"materials":[{"name":"CarPaintMM","pbrMetallicRoughness":{"baseColorTexture":{"index":0},"metallicFactor":0,"roughnessFactor":1},"normalTexture":{"index":1}},{"name":"GeneralMkIII","pbrMetallicRoughness":{"baseColorTexture":{"index":2},"metallicFactor":0,"roughnessFactor":1},"normalTexture":{"index":3}}],"textures":[{"sampler":0,"source":0},{"sampler":0,"source":1},{"sampler":0,"source":2},{"sampler":0,"source":3}],"images":[{"uri":"air_engine_dif.png"},{"uri":"air_engine_nrm.png"},{"uri":"w501_sam_capstone_skyshield_body_dif.png"},{"uri":"w501_sam_capstone_skyshield_body_nrm.png"}],"samplers":[{"wrapS":10497,"wrapT":10497}],"accessors":[{"bufferView":0,"componentType":5126,"count":1369,"type":"VEC3","min":[-0.5895016,1.1971949,-0.5787203],"max":[0.58949876,3.8816285,0.55202013]},{"bufferView":1,"componentType":5126,"count":1369,"type":"VEC3"},{"bufferView":2,"componentType":5126,"count":1369,"type":"VEC4"},{"bufferView":3,"componentType":5126,"count":1369,"type":"VEC2"},{"bufferView":4,"componentType":5126,"count":1369,"type":"VEC2"},{"bufferView":5,"componentType":5126,"count":1369,"type":"VEC2"},{"bufferView":6,"componentType":5125,"count":3123,"type":"SCALAR"},{"bufferView":7,"componentType":5126,"count":1488,"type":"VEC3","min":[-1.4345689,0.8556475,-1.2657613],"max":[1.4345689,2.9979055,1.0117798]},{"bufferView":8,"componentType":5126,"count":1488,"type":"VEC3"},{"bufferView":9,"componentType":5126,"count":1488,"type":"VEC4"},{"bufferView":10,"componentType":5126,"count":1488,"type":"VEC2"},{"bufferView":11,"componentType":5126,"count":1488,"type":"VEC2"},{"bufferView":12,"componentType":5126,"count":1488,"type":"VEC2"},{"bufferView":13,"componentType":5125,"count":4908,"type":"SCALAR"}],"bufferViews":[{"buffer":0,"byteOffset":0,"byteLength":16428,"target":34962},{"buffer":0,"byteOffset":16428,"byteLength":16428,"target":34962},{"buffer":0,"byteOffset":32856,"byteLength":21904,"target":34962},{"buffer":0,"byteOffset":54760,"byteLength":10952,"target":34962},{"buffer":0,"byteOffset":65712,"byteLength":10952,"target":34962},{"buffer":0,"byteOffset":76664,"byteLength":10952,"target":34962},{"buffer":0,"byteOffset":87616,"byteLength":12492,"target":34963},{"buffer":0,"byteOffset":100108,"byteLength":17856,"target":34962},{"buffer":0,"byteOffset":117964,"byteLength":17856,"target":34962},{"buffer":0,"byteOffset":135820,"byteLength":23808,"target":34962},{"buffer":0,"byteOffset":159628,"byteLength":11904,"target":34962},{"buffer":0,"byteOffset":171532,"byteLength":11904,"target":34962},{"buffer":0,"byteOffset":183436,"byteLength":11904,"target":34962},{"buffer":0,"byteOffset":195340,"byteLength":19632,"target":34963}],"buffers":[{"uri":"w501_turret_sam_v2_custom_scripted__w501_sam_capstone_skyshield_tower_dst_lod1.bin","byteLength":214972}]}