{"asset":{"version":"2.0","generator":"RBMesh"},"scene":0,"scenes":[{"nodes":[0,1]}],"nodes":[{"mesh":0},{"mesh":1}],"meshes":[{"name":"GeneralMkIII_0","primitives":[{"attributes":{"POSITION":0,"NORMAL":1,"TANGENT":2,"TEXCOORD_0":3,"TEXCOORD_1":4,"TEXCOORD_2":5},"indices":6,"material":0,"mode":4}]},{"name":"GeneralMkIII_1","primitives":[{"attributes":{"POSITION":7,"NORMAL":8,"TANGENT":9,"TEXCOORD_0":10,"TEXCOORD_1":11,"TEXCOORD_2":12},"indices":13,"material":1,"mode":4}]}],"materials":[{"name":"GeneralMkIII","pbrMetallicRoughness":{"baseColorTexture":{"index":0},"metallicFactor":0,"roughnessFactor":1},"normalTexture":{"index":1}},{"name":"GeneralMkIII","pbrMetallicRoughness":{"baseColorTexture":{"index":2},"metallicFactor":0,"roughnessFactor":1},"normalTexture":{"index":3}}],"textures":[{"sampler":0,"source":0},{"sampler":0,"source":1},{"sampler":0,"source":2},{"sampler":0,"source":3}],"images":[{"uri":"w501_sam_capstone_skyshield_interior_dif.png"},{"uri":"w501_sam_capstone_skyshield_interior_nrm.png"},{"uri":"w501_sam_capstone_skyshield_body_dif.png"},{"uri":"w501_sam_capstone_skyshield_body_nrm.png"}],"samplers":[{"wrapS":10497,"wrapT":10497}],"accessors":[{"bufferView":0,"componentType":5126,"count":40,"type":"VEC3","min":[-0.2758978,0.5510844,-0.31892347],"max":[0.16203973,0.59119433,0.31892347]},{"bufferView":1,"componentType":5126,"count":40,"type":"VEC3"},{"bufferView":2,"componentType":5126,"count":40,"type":"VEC4"},{"bufferView":3,"componentType":5126,"count":40,"type":"VEC2"},{"bufferView":4,"componentType":5126,"count":40,"type":"VEC2"},{"bufferView":5,"componentType":5126,"count":40,"type":"VEC2"},{"bufferView":6,"componentType":5125,"count":60,"type":"SCALAR"},{"bufferView":7,"componentType":5126,"count":217,"type":"VEC3","min":[-0.22103116,0.18671726,-1.1651428],"max":[0.22103116,0.63859373,1.1651428]},{"bufferView":8,"componentType":5126,"count":217,"type":"VEC3"},{"bufferView":9,"componentType":5126,"count":217,"type":"VEC4"},{"bufferView":10,"componentType":5126,"count":217,"type":"VEC2"},{"bufferView":11,"componentType":5126,"count":217,"type":"VEC2"},{"bufferView":12,"componentType":5126,"count":217,"type":"VEC2"},{"bufferView":13,"componentType":5125,"count":900,"type":"SCALAR"}],"bufferViews":[{"buffer":0,"byteOffset":0,"byteLength":480,"target":34962},{"buffer":0,"byteOffset":480,"byteLength":480,"target":34962},{"buffer":0,"byteOffset":960,"byteLength":640,"target":34962},{"buffer":0,"byteOffset":1600,"byteLength":320,"target":34962},{"buffer":0,"byteOffset":1920,"byteLength":320,"target":34962},{"buffer":0,"byteOffset":2240,"byteLength":320,"target":34962},{"buffer":0,"byteOffset":2560,"byteLength":240,"target":34963},{"buffer":0,"byteOffset":2800,"byteLength":2604,"target":34962},{"buffer":0,"byteOffset":5404,"byteLength":2604,"target":34962},{"buffer":0,"byteOffset":8008,"byteLength":3472,"target":34962},{"buffer":0,"byteOffset":11480,"byteLength":1736,"target":34962},{"buffer":0,"byteOffset":13216,"byteLength":1736,"target":34962},{"buffer":0,"byteOffset":14952,"byteLength":1736,"target":34962},{"buffer":0,"byteOffset":16688,"byteLength":3600,"target":34963}],"buffers":[{"uri":"w501_turret_sam_wheelcover__w501_sam_capstone_skyshield_wheelcover_lod1.bin","byteLength":20288}]}