{"asset":{"version":"2.0","generator":"RBMesh"},"scene":0,"scenes":[{"nodes":[0,1]}],"nodes":[{"mesh":0},{"mesh":1}],"meshes":[{"name":"CarPaintMM_0","primitives":[{"attributes":{"POSITION":0,"NORMAL":1,"TANGENT":2,"TEXCOORD_0":3,"TEXCOORD_1":4,"TEXCOORD_2":5},"indices":6,"material":0,"mode":4}]},{"name":"GeneralMkIII_1","primitives":[{"attributes":{"POSITION":7,"NORMAL":8,"TANGENT":9,"TEXCOORD_0":10,"TEXCOORD_1":11,"TEXCOORD_2":12},"indices":13,"material":1,"mode":4}]}],"materials":[{"name":"CarPaintMM","pbrMetallicRoughness":{"baseColorTexture":{"index":0},"metallicFactor":0,"roughnessFactor":1},"normalTexture":{"index":1}},{"name":"GeneralMkIII","pbrMetallicRoughness":{"baseColorTexture":{"index":2},"metallicFactor":0,"roughnessFactor":1},"normalTexture":{"index":3}}],"textures":[{"sampler":0,"source":0},{"sampler":0,"source":1},{"sampler":0,"source":2},{"sampler":0,"source":3}],"images":[{"uri":"air_engine_dif.png"},{"uri":"air_engine_nrm.png"},{"uri":"w501_sam_capstone_skyshield_body_dif.png"},{"uri":"w501_sam_capstone_skyshield_body_nrm.png"}],"samplers":[{"wrapS":10497,"wrapT":10497}],"accessors":[{"bufferView":0,"componentType":5126,"count":904,"type":"VEC3","min":[-0.45533183,1.1103344,-0.4553323],"max":[0.4553318,1.5215381,0.5511084]},{"bufferView":1,"componentType":5126,"count":904,"type":"VEC3"},{"bufferView":2,"componentType":5126,"count":904,"type":"VEC4"},{"bufferView":3,"componentType":5126,"count":904,"type":"VEC2"},{"bufferView":4,"componentType":5126,"count":904,"type":"VEC2"},{"bufferView":5,"componentType":5126,"count":904,"type":"VEC2"},{"bufferView":6,"componentType":5125,"count":1818,"type":"SCALAR"},{"bufferView":7,"componentType":5126,"count":236,"type":"VEC3","min":[-0.578256,0.8556591,-0.530335],"max":[0.5538776,1.3850654,0.55847466]},{"bufferView":8,"componentType":5126,"count":236,"type":"VEC3"},{"bufferView":9,"componentType":5126,"count":236,"type":"VEC4"},{"bufferView":10,"componentType":5126,"count":236,"type":"VEC2"},{"bufferView":11,"componentType":5126,"count":236,"type":"VEC2"},{"bufferView":12,"componentType":5126,"count":236,"type":"VEC2"},{"bufferView":13,"componentType":5125,"count":654,"type":"SCALAR"}],"bufferViews":[{"buffer":0,"byteOffset":0,"byteLength":10848,"target":34962},{"buffer":0,"byteOffset":10848,"byteLength":10848,"target":34962},{"buffer":0,"byteOffset":21696,"byteLength":14464,"target":34962},{"buffer":0,"byteOffset":36160,"byteLength":7232,"target":34962},{"buffer":0,"byteOffset":43392,"byteLength":7232,"target":34962},{"buffer":0,"byteOffset":50624,"byteLength":7232,"target":34962},{"buffer":0,"byteOffset":57856,"byteLength":7272,"target":34963},{"buffer":0,"byteOffset":65128,"byteLength":2832,"target":34962},{"buffer":0,"byteOffset":67960,"byteLength":2832,"target":34962},{"buffer":0,"byteOffset":70792,"byteLength":3776,"target":34962},{"buffer":0,"byteOffset":74568,"byteLength":1888,"target":34962},{"buffer":0,"byteOffset":76456,"byteLength":1888,"target":34962},{"buffer":0,"byteOffset":78344,"byteLength":1888,"target":34962},{"buffer":0,"byteOffset":80232,"byteLength":2616,"target":34963}],"buffers":[{"uri":"w501_turret_sam_v2__w501_sam_capstone_skyshield_tower_destroyed_lod1.bin","byteLength":82848}]}