{"asset":{"version":"2.0","generator":"RBMesh"},"scene":0,"scenes":[{"nodes":[0]}],"nodes":[{"mesh":0}],"meshes":[{"name":"GeneralMkIII_0","primitives":[{"attributes":{"POSITION":0,"NORMAL":1,"TANGENT":2,"TEXCOORD_0":3,"TEXCOORD_1":4,"TEXCOORD_2":5},"indices":6,"material":0,"mode":4}]}],"materials":[{"name":"GeneralMkIII","pbrMetallicRoughness":{"baseColorTexture":{"index":0},"metallicFactor":0,"roughnessFactor":1},"normalTexture":{"index":1}}],"textures":[{"sampler":0,"source":0},{"sampler":0,"source":1}],"images":[{"uri":"w501_sam_capstone_skyshield_body_dif.png"},{"uri":"w501_sam_capstone_skyshield_body_nrm.png"}],"samplers":[{"wrapS":10497,"wrapT":10497}],"accessors":[{"bufferView":0,"componentType":5126,"count":248,"type":"VEC3","min":[-0.4781446,1.6371762,-0.78119993],"max":[0.4781446,2.3115025,-0.4703848]},{"bufferView":1,"componentType":5126,"count":248,"type":"VEC3"},{"bufferView":2,"componentType":5126,"count":248,"type":"VEC4"},{"bufferView":3,"componentType":5126,"count":248,"type":"VEC2"},{"bufferView":4,"componentType":5126,"count":248,"type":"VEC2"},{"bufferView":5,"componentType":5126,"count":248,"type":"VEC2"},{"bufferView":6,"componentType":5125,"count":588,"type":"SCALAR"}],"bufferViews":[{"buffer":0,"byteOffset":0,"byteLength":2976,"target":34962},{"buffer":0,"byteOffset":2976,"byteLength":2976,"target":34962},{"buffer":0,"byteOffset":5952,"byteLength":3968,"target":34962},{"buffer":0,"byteOffset":9920,"byteLength":1984,"target":34962},{"buffer":0,"byteOffset":11904,"byteLength":1984,"target":34962},{"buffer":0,"byteOffset":13888,"byteLength":1984,"target":34962},{"buffer":0,"byteOffset":15872,"byteLength":2352,"target":34963}],"buffers":[{"uri":"w501_turret_sam_v2_custom_scripted__w501_sam_capstone_skyshield_tower_hatch_01_lod1.bin","byteLength":18224}]}