{"asset":{"version":"2.0","generator":"RBMesh"},"scene":0,"scenes":[{"nodes":[0]}],"nodes":[{"mesh":0}],"meshes":[{"name":"CarPaintMM_0","primitives":[{"attributes":{"POSITION":0,"NORMAL":1,"TANGENT":2,"TEXCOORD_0":3,"TEXCOORD_1":4,"TEXCOORD_2":5},"indices":6,"material":0,"mode":4}]}],"materials":[{"name":"CarPaintMM","pbrMetallicRoughness":{"baseColorTexture":{"index":0},"metallicFactor":0,"roughnessFactor":1},"normalTexture":{"index":1}}],"textures":[{"sampler":0,"source":0},{"sampler":0,"source":1}],"images":[{"uri":"vehicle_debris_dif.png"},{"uri":"vehicle_debris_nrm.png"}],"samplers":[{"wrapS":10497,"wrapT":10497}],"accessors":[{"bufferView":0,"componentType":5126,"count":614,"type":"VEC3","min":[-0.13382721,-0.067634486,-0.27239946],"max":[0.13382716,0.067634486,0.27239946]},{"bufferView":1,"componentType":5126,"count":614,"type":"VEC3"},{"bufferView":2,"componentType":5126,"count":614,"type":"VEC4"},{"bufferView":3,"componentType":5126,"count":614,"type":"VEC2"},{"bufferView":4,"componentType":5126,"count":614,"type":"VEC2"},{"bufferView":5,"componentType":5126,"count":614,"type":"VEC2"},{"bufferView":6,"componentType":5125,"count":1224,"type":"SCALAR"}],"bufferViews":[{"buffer":0,"byteOffset":0,"byteLength":7368,"target":34962},{"buffer":0,"byteOffset":7368,"byteLength":7368,"target":34962},{"buffer":0,"byteOffset":14736,"byteLength":9824,"target":34962},{"buffer":0,"byteOffset":24560,"byteLength":4912,"target":34962},{"buffer":0,"byteOffset":29472,"byteLength":4912,"target":34962},{"buffer":0,"byteOffset":34384,"byteLength":4912,"target":34962},{"buffer":0,"byteOffset":39296,"byteLength":4896,"target":34963}],"buffers":[{"uri":"w501_turret_sam_v2__debris_wheel_debri01_lod1.bin","byteLength":44192}]}