{"asset":{"version":"2.0","generator":"RBMesh"},"scene":0,"scenes":[{"nodes":[0]}],"nodes":[{"mesh":0}],"meshes":[{"name":"GeneralMkIII_0","primitives":[{"attributes":{"POSITION":0,"NORMAL":1,"TANGENT":2,"TEXCOORD_0":3,"TEXCOORD_1":4,"TEXCOORD_2":5},"indices":6,"material":0,"mode":4}]}],"materials":[{"name":"GeneralMkIII","pbrMetallicRoughness":{"baseColorTexture":{"index":0},"metallicFactor":0,"roughnessFactor":1},"normalTexture":{"index":1}}],"textures":[{"sampler":0,"source":0},{"sampler":0,"source":1}],"images":[{"uri":"w501_sam_capstone_skyshield_interior_dif.png"},{"uri":"w501_sam_capstone_skyshield_interior_nrm.png"}],"samplers":[{"wrapS":10497,"wrapT":10497}],"accessors":[{"bufferView":0,"componentType":5126,"count":2676,"type":"VEC3","min":[-1.2682836,-0.37902194,-0.6843065],"max":[1.2682836,0.30067837,0.6843065]},{"bufferView":1,"componentType":5126,"count":2676,"type":"VEC3"},{"bufferView":2,"componentType":5126,"count":2676,"type":"VEC4"},{"bufferView":3,"componentType":5126,"count":2676,"type":"VEC2"},{"bufferView":4,"componentType":5126,"count":2676,"type":"VEC2"},{"bufferView":5,"componentType":5126,"count":2676,"type":"VEC2"},{"bufferView":6,"componentType":5125,"count":7116,"type":"SCALAR"}],"bufferViews":[{"buffer":0,"byteOffset":0,"byteLength":32112,"target":34962},{"buffer":0,"byteOffset":32112,"byteLength":32112,"target":34962},{"buffer":0,"byteOffset":64224,"byteLength":42816,"target":34962},{"buffer":0,"byteOffset":107040,"byteLength":21408,"target":34962},{"buffer":0,"byteOffset":128448,"byteLength":21408,"target":34962},{"buffer":0,"byteOffset":149856,"byteLength":21408,"target":34962},{"buffer":0,"byteOffset":171264,"byteLength":28464,"target":34963}],"buffers":[{"uri":"w501_turret_sam_v2_custom_scripted__w501_sam_capstone_skyshield_bogie_lod1.bin","byteLength":199728}]}