{"asset":{"version":"2.0","generator":"RBMesh"},"scene":0,"scenes":[{"nodes":[0,1]}],"nodes":[{"mesh":0},{"mesh":1}],"meshes":[{"name":"GeneralMkIII_0","primitives":[{"attributes":{"POSITION":0,"NORMAL":1,"TANGENT":2,"TEXCOORD_0":3,"TEXCOORD_1":4,"TEXCOORD_2":5},"indices":6,"material":0,"mode":4}]},{"name":"GeneralMkIII_1","primitives":[{"attributes":{"POSITION":7,"NORMAL":8,"TANGENT":9,"TEXCOORD_0":10,"TEXCOORD_1":11,"TEXCOORD_2":12},"indices":13,"material":1,"mode":4}]}],"materials":[{"name":"GeneralMkIII","pbrMetallicRoughness":{"baseColorTexture":{"index":0},"metallicFactor":0,"roughnessFactor":1},"normalTexture":{"index":1}},{"name":"GeneralMkIII","pbrMetallicRoughness":{"baseColorTexture":{"index":2},"metallicFactor":0,"roughnessFactor":1},"normalTexture":{"index":3}}],"textures":[{"sampler":0,"source":0},{"sampler":0,"source":1},{"sampler":0,"source":2},{"sampler":0,"source":3}],"images":[{"uri":"industrial_light_set_03_dif.png"},{"uri":"industrial_light_set_03_nrm.png"},{"uri":"industrial_light_set_04_dif.png"},{"uri":"industrial_light_set_04_nrm.png"}],"samplers":[{"wrapS":10497,"wrapT":10497}],"accessors":[{"bufferView":0,"componentType":5126,"count":322,"type":"VEC3","min":[-0.09332917,0,-0.09332917],"max":[0.09332917,0.20717174,0.09332917]},{"bufferView":1,"componentType":5126,"count":322,"type":"VEC3"},{"bufferView":2,"componentType":5126,"count":322,"type":"VEC4"},{"bufferView":3,"componentType":5126,"count":322,"type":"VEC2"},{"bufferView":4,"componentType":5126,"count":322,"type":"VEC2"},{"bufferView":5,"componentType":5126,"count":322,"type":"VEC2"},{"bufferView":6,"componentType":5125,"count":1140,"type":"SCALAR"},{"bufferView":7,"componentType":5126,"count":123,"type":"VEC3","min":[-0.08820757,0.049954154,-0.08820757],"max":[0.08820757,0.221106,0.08820757]},{"bufferView":8,"componentType":5126,"count":123,"type":"VEC3"},{"bufferView":9,"componentType":5126,"count":123,"type":"VEC4"},{"bufferView":10,"componentType":5126,"count":123,"type":"VEC2"},{"bufferView":11,"componentType":5126,"count":123,"type":"VEC2"},{"bufferView":12,"componentType":5126,"count":123,"type":"VEC2"},{"bufferView":13,"componentType":5125,"count":528,"type":"SCALAR"}],"bufferViews":[{"buffer":0,"byteOffset":0,"byteLength":3864,"target":34962},{"buffer":0,"byteOffset":3864,"byteLength":3864,"target":34962},{"buffer":0,"byteOffset":7728,"byteLength":5152,"target":34962},{"buffer":0,"byteOffset":12880,"byteLength":2576,"target":34962},{"buffer":0,"byteOffset":15456,"byteLength":2576,"target":34962},{"buffer":0,"byteOffset":18032,"byteLength":2576,"target":34962},{"buffer":0,"byteOffset":20608,"byteLength":4560,"target":34963},{"buffer":0,"byteOffset":25168,"byteLength":1476,"target":34962},{"buffer":0,"byteOffset":26644,"byteLength":1476,"target":34962},{"buffer":0,"byteOffset":28120,"byteLength":1968,"target":34962},{"buffer":0,"byteOffset":30088,"byteLength":984,"target":34962},{"buffer":0,"byteOffset":31072,"byteLength":984,"target":34962},{"buffer":0,"byteOffset":32056,"byteLength":984,"target":34962},{"buffer":0,"byteOffset":33040,"byteLength":2112,"target":34963}],"buffers":[{"uri":"w501_turret_sam_v2__industrial_emergency_warning_light_blue_lod1.bin","byteLength":35152}]}