{"asset":{"version":"2.0","generator":"RBMesh"},"scene":0,"scenes":[{"nodes":[0]}],"nodes":[{"mesh":0}],"meshes":[{"name":"GeneralMkIII_0","primitives":[{"attributes":{"POSITION":0,"NORMAL":1,"TANGENT":2,"TEXCOORD_0":3,"TEXCOORD_1":4,"TEXCOORD_2":5},"indices":6,"material":0,"mode":4}]}],"materials":[{"name":"GeneralMkIII","pbrMetallicRoughness":{"baseColorTexture":{"index":0},"metallicFactor":0,"roughnessFactor":1},"normalTexture":{"index":1}}],"textures":[{"sampler":0,"source":0},{"sampler":0,"source":1}],"images":[{"uri":"w501_sam_capstone_skyshield_interior_dif.png"},{"uri":"w501_sam_capstone_skyshield_interior_nrm.png"}],"samplers":[{"wrapS":10497,"wrapT":10497}],"accessors":[{"bufferView":0,"componentType":5126,"count":427,"type":"VEC3","min":[-0.5369471,-0.119932555,-2.4348388],"max":[0.5369471,0.107151635,0.12245901]},{"bufferView":1,"componentType":5126,"count":427,"type":"VEC3"},{"bufferView":2,"componentType":5126,"count":427,"type":"VEC4"},{"bufferView":3,"componentType":5126,"count":427,"type":"VEC2"},{"bufferView":4,"componentType":5126,"count":427,"type":"VEC2"},{"bufferView":5,"componentType":5126,"count":427,"type":"VEC2"},{"bufferView":6,"componentType":5125,"count":1434,"type":"SCALAR"}],"bufferViews":[{"buffer":0,"byteOffset":0,"byteLength":5124,"target":34962},{"buffer":0,"byteOffset":5124,"byteLength":5124,"target":34962},{"buffer":0,"byteOffset":10248,"byteLength":6832,"target":34962},{"buffer":0,"byteOffset":17080,"byteLength":3416,"target":34962},{"buffer":0,"byteOffset":20496,"byteLength":3416,"target":34962},{"buffer":0,"byteOffset":23912,"byteLength":3416,"target":34962},{"buffer":0,"byteOffset":27328,"byteLength":5736,"target":34963}],"buffers":[{"uri":"w501_turret_sam_v2__w501_sam_capstone_skyshield_hitch_lod1.bin","byteLength":33064}]}