{"asset":{"version":"2.0","generator":"RBMesh"},"scene":0,"scenes":[{"nodes":[0]}],"nodes":[{"mesh":0}],"meshes":[{"name":"GeneralMkIII_0","primitives":[{"attributes":{"POSITION":0,"NORMAL":1,"TANGENT":2,"TEXCOORD_0":3,"TEXCOORD_1":4,"TEXCOORD_2":5},"indices":6,"material":0,"mode":4}]}],"materials":[{"name":"GeneralMkIII","pbrMetallicRoughness":{"baseColorTexture":{"index":0},"metallicFactor":0,"roughnessFactor":1},"normalTexture":{"index":1}}],"textures":[{"sampler":0,"source":0},{"sampler":0,"source":1}],"images":[{"uri":"w501_sam_capstone_skyshield_body_dif.png"},{"uri":"w501_sam_capstone_skyshield_body_nrm.png"}],"samplers":[{"wrapS":10497,"wrapT":10497}],"accessors":[{"bufferView":0,"componentType":5126,"count":557,"type":"VEC3","min":[-0.34718937,-0.28409898,-0.7002988],"max":[0.34718937,0.28409898,0.7002988]},{"bufferView":1,"componentType":5126,"count":557,"type":"VEC3"},{"bufferView":2,"componentType":5126,"count":557,"type":"VEC4"},{"bufferView":3,"componentType":5126,"count":557,"type":"VEC2"},{"bufferView":4,"componentType":5126,"count":557,"type":"VEC2"},{"bufferView":5,"componentType":5126,"count":557,"type":"VEC2"},{"bufferView":6,"componentType":5125,"count":2034,"type":"SCALAR"}],"bufferViews":[{"buffer":0,"byteOffset":0,"byteLength":6684,"target":34962},{"buffer":0,"byteOffset":6684,"byteLength":6684,"target":34962},{"buffer":0,"byteOffset":13368,"byteLength":8912,"target":34962},{"buffer":0,"byteOffset":22280,"byteLength":4456,"target":34962},{"buffer":0,"byteOffset":26736,"byteLength":4456,"target":34962},{"buffer":0,"byteOffset":31192,"byteLength":4456,"target":34962},{"buffer":0,"byteOffset":35648,"byteLength":8136,"target":34963}],"buffers":[{"uri":"w501_turret_sam_v2_custom_scripted__w501_sam_capstone_skyshield_missile_launcher_debris1_lod1.bin","byteLength":43784}]}