{"asset":{"version":"2.0","generator":"RBMesh"},"scene":0,"scenes":[{"nodes":[0]}],"nodes":[{"mesh":0}],"meshes":[{"name":"GeneralMkIII_0","primitives":[{"attributes":{"POSITION":0,"NORMAL":1,"TANGENT":2,"TEXCOORD_0":3,"TEXCOORD_1":4,"TEXCOORD_2":5},"indices":6,"material":0,"mode":4}]}],"materials":[{"name":"GeneralMkIII","pbrMetallicRoughness":{"baseColorTexture":{"index":0},"metallicFactor":0,"roughnessFactor":1},"normalTexture":{"index":1}}],"textures":[{"sampler":0,"source":0},{"sampler":0,"source":1}],"images":[{"uri":"w501_sam_capstone_skyshield_body_dif.png"},{"uri":"w501_sam_capstone_skyshield_body_nrm.png"}],"samplers":[{"wrapS":10497,"wrapT":10497}],"accessors":[{"bufferView":0,"componentType":5126,"count":264,"type":"VEC3","min":[-0.31356966,-0.2449787,-0.3032887],"max":[0.35737887,1.2570024,0.3413053]},{"bufferView":1,"componentType":5126,"count":264,"type":"VEC3"},{"bufferView":2,"componentType":5126,"count":264,"type":"VEC4"},{"bufferView":3,"componentType":5126,"count":264,"type":"VEC2"},{"bufferView":4,"componentType":5126,"count":264,"type":"VEC2"},{"bufferView":5,"componentType":5126,"count":264,"type":"VEC2"},{"bufferView":6,"componentType":5125,"count":846,"type":"SCALAR"}],"bufferViews":[{"buffer":0,"byteOffset":0,"byteLength":3168,"target":34962},{"buffer":0,"byteOffset":3168,"byteLength":3168,"target":34962},{"buffer":0,"byteOffset":6336,"byteLength":4224,"target":34962},{"buffer":0,"byteOffset":10560,"byteLength":2112,"target":34962},{"buffer":0,"byteOffset":12672,"byteLength":2112,"target":34962},{"buffer":0,"byteOffset":14784,"byteLength":2112,"target":34962},{"buffer":0,"byteOffset":16896,"byteLength":3384,"target":34963}],"buffers":[{"uri":"w501_turret_sam_v2__w501_sam_capstone_skyshield_control_panel_lod1.bin","byteLength":20280}]}