{"asset":{"version":"2.0","generator":"RBMesh"},"scene":0,"scenes":[{"nodes":[0]}],"nodes":[{"mesh":0}],"meshes":[{"name":"GeneralMkIII_0","primitives":[{"attributes":{"POSITION":0,"NORMAL":1,"TANGENT":2,"TEXCOORD_0":3,"TEXCOORD_1":4,"TEXCOORD_2":5},"indices":6,"material":0,"mode":4}]}],"materials":[{"name":"GeneralMkIII","pbrMetallicRoughness":{"baseColorTexture":{"index":0},"metallicFactor":0,"roughnessFactor":1},"normalTexture":{"index":1}}],"textures":[{"sampler":0,"source":0},{"sampler":0,"source":1}],"images":[{"uri":"w501_sam_capstone_skyshield_body_dif.png"},{"uri":"w501_sam_capstone_skyshield_body_nrm.png"}],"samplers":[{"wrapS":10497,"wrapT":10497}],"accessors":[{"bufferView":0,"componentType":5126,"count":74,"type":"VEC3","min":[0.12913625,2.9972522,-0.6631146],"max":[0.6785034,3.5261729,0.00096852187]},{"bufferView":1,"componentType":5126,"count":74,"type":"VEC3"},{"bufferView":2,"componentType":5126,"count":74,"type":"VEC4"},{"bufferView":3,"componentType":5126,"count":74,"type":"VEC2"},{"bufferView":4,"componentType":5126,"count":74,"type":"VEC2"},{"bufferView":5,"componentType":5126,"count":74,"type":"VEC2"},{"bufferView":6,"componentType":5125,"count":180,"type":"SCALAR"}],"bufferViews":[{"buffer":0,"byteOffset":0,"byteLength":888,"target":34962},{"buffer":0,"byteOffset":888,"byteLength":888,"target":34962},{"buffer":0,"byteOffset":1776,"byteLength":1184,"target":34962},{"buffer":0,"byteOffset":2960,"byteLength":592,"target":34962},{"buffer":0,"byteOffset":3552,"byteLength":592,"target":34962},{"buffer":0,"byteOffset":4144,"byteLength":592,"target":34962},{"buffer":0,"byteOffset":4736,"byteLength":720,"target":34963}],"buffers":[{"uri":"w501_turret_sam_v2_custom_scripted__w501_sam_capstone_skyshield_tower_top_hatch_02_lod1.bin","byteLength":5456}]}