{"asset":{"version":"2.0","generator":"RBMesh"},"scene":0,"scenes":[{"nodes":[0]}],"nodes":[{"mesh":0}],"meshes":[{"name":"GeneralMkIII_0","primitives":[{"attributes":{"POSITION":0,"NORMAL":1,"TANGENT":2,"TEXCOORD_0":3,"TEXCOORD_1":4,"TEXCOORD_2":5},"indices":6,"material":0,"mode":4}]}],"materials":[{"name":"GeneralMkIII","pbrMetallicRoughness":{"baseColorTexture":{"index":0},"metallicFactor":0,"roughnessFactor":1},"normalTexture":{"index":1}}],"textures":[{"sampler":0,"source":0},{"sampler":0,"source":1}],"images":[{"uri":"w501_sam_capstone_skyshield_body_dif.png"},{"uri":"w501_sam_capstone_skyshield_body_nrm.png"}],"samplers":[{"wrapS":10497,"wrapT":10497}],"accessors":[{"bufferView":0,"componentType":5126,"count":6364,"type":"VEC3","min":[0,-0.65189445,-3.3485851],"max":[1.8717821,0.9504026,2.938379]},{"bufferView":1,"componentType":5126,"count":6364,"type":"VEC3"},{"bufferView":2,"componentType":5126,"count":6364,"type":"VEC4"},{"bufferView":3,"componentType":5126,"count":6364,"type":"VEC2"},{"bufferView":4,"componentType":5126,"count":6364,"type":"VEC2"},{"bufferView":5,"componentType":5126,"count":6364,"type":"VEC2"},{"bufferView":6,"componentType":5125,"count":26394,"type":"SCALAR"}],"bufferViews":[{"buffer":0,"byteOffset":0,"byteLength":76368,"target":34962},{"buffer":0,"byteOffset":76368,"byteLength":76368,"target":34962},{"buffer":0,"byteOffset":152736,"byteLength":101824,"target":34962},{"buffer":0,"byteOffset":254560,"byteLength":50912,"target":34962},{"buffer":0,"byteOffset":305472,"byteLength":50912,"target":34962},{"buffer":0,"byteOffset":356384,"byteLength":50912,"target":34962},{"buffer":0,"byteOffset":407296,"byteLength":105576,"target":34963}],"buffers":[{"uri":"w501_turret_sam_v2_custom_scripted__w501_sam_capstone_skyshield_missile_launcher_r_lod1.bin","byteLength":512872}]}