{"asset":{"version":"2.0","generator":"RBMesh"},"scene":0,"scenes":[{"nodes":[0]}],"nodes":[{"mesh":0}],"meshes":[{"name":"GeneralMkIII_0","primitives":[{"attributes":{"POSITION":0,"NORMAL":1,"TANGENT":2,"TEXCOORD_0":3,"TEXCOORD_1":4,"TEXCOORD_2":5},"indices":6,"material":0,"mode":4}]}],"materials":[{"name":"GeneralMkIII","pbrMetallicRoughness":{"baseColorTexture":{"index":0},"metallicFactor":0,"roughnessFactor":1},"normalTexture":{"index":1}}],"textures":[{"sampler":0,"source":0},{"sampler":0,"source":1}],"images":[{"uri":"w501_sam_capstone_skyshield_wheel_dif.png"},{"uri":"w501_sam_capstone_skyshield_wheel_nrm.png"}],"samplers":[{"wrapS":10497,"wrapT":10497}],"accessors":[{"bufferView":0,"componentType":5126,"count":233,"type":"VEC3","min":[-0.15708323,-0.4182276,-0.42468202],"max":[0.15708323,0.4182276,0.42468202]},{"bufferView":1,"componentType":5126,"count":233,"type":"VEC3"},{"bufferView":2,"componentType":5126,"count":233,"type":"VEC4"},{"bufferView":3,"componentType":5126,"count":233,"type":"VEC2"},{"bufferView":4,"componentType":5126,"count":233,"type":"VEC2"},{"bufferView":5,"componentType":5126,"count":233,"type":"VEC2"},{"bufferView":6,"componentType":5125,"count":1128,"type":"SCALAR"}],"bufferViews":[{"buffer":0,"byteOffset":0,"byteLength":2796,"target":34962},{"buffer":0,"byteOffset":2796,"byteLength":2796,"target":34962},{"buffer":0,"byteOffset":5592,"byteLength":3728,"target":34962},{"buffer":0,"byteOffset":9320,"byteLength":1864,"target":34962},{"buffer":0,"byteOffset":11184,"byteLength":1864,"target":34962},{"buffer":0,"byteOffset":13048,"byteLength":1864,"target":34962},{"buffer":0,"byteOffset":14912,"byteLength":4512,"target":34963}],"buffers":[{"uri":"w501_turret_sam_v2_custom_scripted__w501_sam_capstone_skyshield_wheel_lod1.bin","byteLength":19424}]}