{"asset":{"version":"2.0","generator":"RBMesh"},"scene":0,"scenes":[{"nodes":[0]}],"nodes":[{"mesh":0}],"meshes":[{"name":"GeneralMkIII_0","primitives":[{"attributes":{"POSITION":0,"NORMAL":1,"TANGENT":2,"TEXCOORD_0":3,"TEXCOORD_1":4,"TEXCOORD_2":5},"indices":6,"material":0,"mode":4}]}],"materials":[{"name":"GeneralMkIII","pbrMetallicRoughness":{"baseColorTexture":{"index":0},"metallicFactor":0,"roughnessFactor":1},"normalTexture":{"index":1}}],"textures":[{"sampler":0,"source":0},{"sampler":0,"source":1}],"images":[{"uri":"w502_sam_capstone_fh155_dif.png"},{"uri":"w502_sam_capstone_fh155_nrm.png"}],"samplers":[{"wrapS":10497,"wrapT":10497}],"accessors":[{"bufferView":0,"componentType":5126,"count":1112,"type":"VEC3","min":[-0.36493227,0.6035693,0.09927405],"max":[0.2728245,1.3812793,0.8356304]},{"bufferView":1,"componentType":5126,"count":1112,"type":"VEC3"},{"bufferView":2,"componentType":5126,"count":1112,"type":"VEC4"},{"bufferView":3,"componentType":5126,"count":1112,"type":"VEC2"},{"bufferView":4,"componentType":5126,"count":1112,"type":"VEC2"},{"bufferView":5,"componentType":5126,"count":1112,"type":"VEC2"},{"bufferView":6,"componentType":5125,"count":2808,"type":"SCALAR"}],"bufferViews":[{"buffer":0,"byteOffset":0,"byteLength":13344,"target":34962},{"buffer":0,"byteOffset":13344,"byteLength":13344,"target":34962},{"buffer":0,"byteOffset":26688,"byteLength":17792,"target":34962},{"buffer":0,"byteOffset":44480,"byteLength":8896,"target":34962},{"buffer":0,"byteOffset":53376,"byteLength":8896,"target":34962},{"buffer":0,"byteOffset":62272,"byteLength":8896,"target":34962},{"buffer":0,"byteOffset":71168,"byteLength":11232,"target":34963}],"buffers":[{"uri":"w502_turret_aa_gun__w502_sam_capstone_fh155_base_debris_1_lod1.bin","byteLength":82400}]}