{"asset":{"version":"2.0","generator":"RBMesh"},"scene":0,"scenes":[{"nodes":[0]}],"nodes":[{"mesh":0}],"meshes":[{"name":"GeneralMkIII_0","primitives":[{"attributes":{"POSITION":0,"NORMAL":1,"TANGENT":2,"TEXCOORD_0":3,"TEXCOORD_1":4,"TEXCOORD_2":5},"indices":6,"material":0,"mode":4}]}],"materials":[{"name":"GeneralMkIII","pbrMetallicRoughness":{"baseColorTexture":{"index":0},"metallicFactor":0,"roughnessFactor":1},"normalTexture":{"index":1}}],"textures":[{"sampler":0,"source":0},{"sampler":0,"source":1}],"images":[{"uri":"w502_sam_capstone_fh155_dif.png"},{"uri":"w502_sam_capstone_fh155_nrm.png"}],"samplers":[{"wrapS":10497,"wrapT":10497}],"accessors":[{"bufferView":0,"componentType":5126,"count":8891,"type":"VEC3","min":[-1.0518781,-0.2358422,-1.2127461],"max":[1.059645,1.2134314,1.4970634]},{"bufferView":1,"componentType":5126,"count":8891,"type":"VEC3"},{"bufferView":2,"componentType":5126,"count":8891,"type":"VEC4"},{"bufferView":3,"componentType":5126,"count":8891,"type":"VEC2"},{"bufferView":4,"componentType":5126,"count":8891,"type":"VEC2"},{"bufferView":5,"componentType":5126,"count":8891,"type":"VEC2"},{"bufferView":6,"componentType":5125,"count":24969,"type":"SCALAR"}],"bufferViews":[{"buffer":0,"byteOffset":0,"byteLength":106692,"target":34962},{"buffer":0,"byteOffset":106692,"byteLength":106692,"target":34962},{"buffer":0,"byteOffset":213384,"byteLength":142256,"target":34962},{"buffer":0,"byteOffset":355640,"byteLength":71128,"target":34962},{"buffer":0,"byteOffset":426768,"byteLength":71128,"target":34962},{"buffer":0,"byteOffset":497896,"byteLength":71128,"target":34962},{"buffer":0,"byteOffset":569024,"byteLength":99876,"target":34963}],"buffers":[{"uri":"w502_turret_aa_gun__w502_sam_capstone_fh155_base_lod1.bin","byteLength":668900}]}