{"asset":{"version":"2.0","generator":"RBMesh"},"scene":0,"scenes":[{"nodes":[0]}],"nodes":[{"mesh":0}],"meshes":[{"name":"GeneralMkIII_0","primitives":[{"attributes":{"POSITION":0,"NORMAL":1,"TANGENT":2,"TEXCOORD_0":3,"TEXCOORD_1":4,"TEXCOORD_2":5},"indices":6,"material":0,"mode":4}]}],"materials":[{"name":"GeneralMkIII","pbrMetallicRoughness":{"baseColorTexture":{"index":0},"metallicFactor":0,"roughnessFactor":1},"normalTexture":{"index":1}}],"textures":[{"sampler":0,"source":0},{"sampler":0,"source":1}],"images":[{"uri":"w502_sam_capstone_fh155_dif.png"},{"uri":"w502_sam_capstone_fh155_nrm.png"}],"samplers":[{"wrapS":10497,"wrapT":10497}],"accessors":[{"bufferView":0,"componentType":5126,"count":1041,"type":"VEC3","min":[-0.13028844,-0.0957417,-2.4187882],"max":[0.1326506,0.15841302,0.38267154]},{"bufferView":1,"componentType":5126,"count":1041,"type":"VEC3"},{"bufferView":2,"componentType":5126,"count":1041,"type":"VEC4"},{"bufferView":3,"componentType":5126,"count":1041,"type":"VEC2"},{"bufferView":4,"componentType":5126,"count":1041,"type":"VEC2"},{"bufferView":5,"componentType":5126,"count":1041,"type":"VEC2"},{"bufferView":6,"componentType":5125,"count":3450,"type":"SCALAR"}],"bufferViews":[{"buffer":0,"byteOffset":0,"byteLength":12492,"target":34962},{"buffer":0,"byteOffset":12492,"byteLength":12492,"target":34962},{"buffer":0,"byteOffset":24984,"byteLength":16656,"target":34962},{"buffer":0,"byteOffset":41640,"byteLength":8328,"target":34962},{"buffer":0,"byteOffset":49968,"byteLength":8328,"target":34962},{"buffer":0,"byteOffset":58296,"byteLength":8328,"target":34962},{"buffer":0,"byteOffset":66624,"byteLength":13800,"target":34963}],"buffers":[{"uri":"w502_turret_aa_gun__w502_sam_capstone_fh155_barrel_single_l_lod1.bin","byteLength":80424}]}