{"asset":{"version":"2.0","generator":"RBMesh"},"scene":0,"scenes":[{"nodes":[0,1,2,3,4,5,6]}],"nodes":[{"mesh":0},{"mesh":1},{"mesh":2},{"mesh":3},{"mesh":4},{"mesh":5},{"mesh":6}],"meshes":[{"name":"GeneralMkIII_0","primitives":[{"attributes":{"POSITION":0,"NORMAL":1,"TANGENT":2,"TEXCOORD_0":3,"TEXCOORD_1":4,"TEXCOORD_2":5},"indices":6,"material":0,"mode":4}]},{"name":"GeneralMkIII_1","primitives":[{"attributes":{"POSITION":7,"NORMAL":8,"TANGENT":9,"TEXCOORD_0":10,"TEXCOORD_1":11,"TEXCOORD_2":12},"indices":13,"material":1,"mode":4}]},{"name":"GeneralMkIII_2","primitives":[{"attributes":{"POSITION":14,"NORMAL":15,"TANGENT":16,"TEXCOORD_0":17,"TEXCOORD_1":18,"TEXCOORD_2":19},"indices":20,"material":2,"mode":4}]},{"name":"GeneralMkIII_3","primitives":[{"attributes":{"POSITION":21,"NORMAL":22,"TANGENT":23,"TEXCOORD_0":24,"TEXCOORD_1":25,"TEXCOORD_2":26},"indices":27,"material":3,"mode":4}]},{"name":"GeneralMkIII_4","primitives":[{"attributes":{"POSITION":28,"NORMAL":29,"TANGENT":30,"TEXCOORD_0":31,"TEXCOORD_1":32,"TEXCOORD_2":33},"indices":34,"material":4,"mode":4}]},{"name":"General_5","primitives":[{"attributes":{"POSITION":35,"NORMAL":36,"TANGENT":37,"TEXCOORD_0":38,"TEXCOORD_1":39,"TEXCOORD_2":40},"indices":41,"material":5,"mode":4}]},{"name":"GeneralMkIII_6","primitives":[{"attributes":{"POSITION":42,"NORMAL":43,"TANGENT":44,"TEXCOORD_0":45,"TEXCOORD_1":46,"TEXCOORD_2":47},"indices":48,"material":6,"mode":4}]}],"materials":[{"name":"GeneralMkIII","pbrMetallicRoughness":{"baseColorTexture":{"index":0},"metallicFactor":0,"roughnessFactor":1},"normalTexture":{"index":1}},{"name":"GeneralMkIII","pbrMetallicRoughness":{"baseColorTexture":{"index":2},"metallicFactor":0,"roughnessFactor":1},"normalTexture":{"index":3}},{"name":"GeneralMkIII","pbrMetallicRoughness":{"baseColorTexture":{"index":4},"metallicFactor":0,"roughnessFactor":1},"normalTexture":{"index":5}},{"name":"GeneralMkIII","pbrMetallicRoughness":{"baseColorTexture":{"index":6},"metallicFactor":0,"roughnessFactor":1}},{"name":"GeneralMkIII","pbrMetallicRoughness":{"baseColorTexture":{"index":7},"metallicFactor":0,"roughnessFactor":1}},{"name":"General","pbrMetallicRoughness":{"baseColorTexture":{"index":8},"metallicFactor":0,"roughnessFactor":1},"normalTexture":{"index":9}},{"name":"GeneralMkIII","pbrMetallicRoughness":{"baseColorTexture":{"index":10},"metallicFactor":0,"roughnessFactor":1},"normalTexture":{"index":11}}],"textures":[{"sampler":0,"source":0},{"sampler":0,"source":1},{"sampler":0,"source":2},{"sampler":0,"source":3},{"sampler":0,"source":4},{"sampler":0,"source":5},{"sampler":0,"source":6},{"sampler":0,"source":7},{"sampler":0,"source":8},{"sampler":0,"source":9},{"sampler":0,"source":2},{"sampler":0,"source":3}],"images":[{"uri":"metal_railings_yellow_01_dif.png"},{"uri":"metal_railings_yellow_01_nrm.png"},{"uri":"metal_trims_01_a_clean_dif.png"},{"uri":"metal_trims_01_a_clean_nrm.png"},{"uri":"metal_floor_01_a_clean_dif.png"},{"uri":"metal_floor_01_a_clean_nrm.png"},{"uri":"metal_04_a_clean_dif.png"},{"uri":"metal_01_a_clean_dif.png"},{"uri":"dummy_dif.png"},{"uri":"dummy_nrm.png"}],"samplers":[{"wrapS":10497,"wrapT":10497}],"accessors":[{"bufferView":0,"componentType":5126,"count":3792,"type":"VEC3","min":[-3.884715,0.1394089,2.6889377],"max":[3.8837025,2.1544244,5.0443745]},{"bufferView":1,"componentType":5126,"count":3792,"type":"VEC3"},{"bufferView":2,"componentType":5126,"count":3792,"type":"VEC4"},{"bufferView":3,"componentType":5126,"count":3792,"type":"VEC2"},{"bufferView":4,"componentType":5126,"count":3792,"type":"VEC2"},{"bufferView":5,"componentType":5126,"count":3792,"type":"VEC2"},{"bufferView":6,"componentType":5125,"count":8256,"type":"SCALAR"},{"bufferView":7,"componentType":5126,"count":60,"type":"VEC3","min":[-0.8928246,0.19240454,3.6892726],"max":[0.90311986,1.0300393,4.8448815]},{"bufferView":8,"componentType":5126,"count":60,"type":"VEC3"},{"bufferView":9,"componentType":5126,"count":60,"type":"VEC4"},{"bufferView":10,"componentType":5126,"count":60,"type":"VEC2"},{"bufferView":11,"componentType":5126,"count":60,"type":"VEC2"},{"bufferView":12,"componentType":5126,"count":60,"type":"VEC2"},{"bufferView":13,"componentType":5125,"count":90,"type":"SCALAR"},{"bufferView":14,"componentType":5126,"count":83,"type":"VEC3","min":[-3.4332395,1.1942583,-3.328767],"max":[3.4332395,1.1942583,2.9788947]},{"bufferView":15,"componentType":5126,"count":83,"type":"VEC3"},{"bufferView":16,"componentType":5126,"count":83,"type":"VEC4"},{"bufferView":17,"componentType":5126,"count":83,"type":"VEC2"},{"bufferView":18,"componentType":5126,"count":83,"type":"VEC2"},{"bufferView":19,"componentType":5126,"count":83,"type":"VEC2"},{"bufferView":20,"componentType":5125,"count":123,"type":"SCALAR"},{"bufferView":21,"componentType":5126,"count":76,"type":"VEC3","min":[-3.9596517,1.0001659,-3.8798203],"max":[3.9596517,5.474584,2.868178]},{"bufferView":22,"componentType":5126,"count":76,"type":"VEC3"},{"bufferView":23,"componentType":5126,"count":76,"type":"VEC4"},{"bufferView":24,"componentType":5126,"count":76,"type":"VEC2"},{"bufferView":25,"componentType":5126,"count":76,"type":"VEC2"},{"bufferView":26,"componentType":5126,"count":76,"type":"VEC2"},{"bufferView":27,"componentType":5125,"count":168,"type":"SCALAR"},{"bufferView":28,"componentType":5126,"count":7283,"type":"VEC3","min":[-3.978048,0.54295206,-3.8977108],"max":[3.978048,5.5301113,3.2305396]},{"bufferView":29,"componentType":5126,"count":7283,"type":"VEC3"},{"bufferView":30,"componentType":5126,"count":7283,"type":"VEC4"},{"bufferView":31,"componentType":5126,"count":7283,"type":"VEC2"},{"bufferView":32,"componentType":5126,"count":7283,"type":"VEC2"},{"bufferView":33,"componentType":5126,"count":7283,"type":"VEC2"},{"bufferView":34,"componentType":5125,"count":16002,"type":"SCALAR"},{"bufferView":35,"componentType":5126,"count":235,"type":"VEC3","min":[-3.9350102,0.90632665,-3.8307068],"max":[3.9350102,1.8043832,3.474421]},{"bufferView":36,"componentType":5126,"count":235,"type":"VEC3"},{"bufferView":37,"componentType":5126,"count":235,"type":"VEC4"},{"bufferView":38,"componentType":5126,"count":235,"type":"VEC2"},{"bufferView":39,"componentType":5126,"count":235,"type":"VEC2"},{"bufferView":40,"componentType":5126,"count":235,"type":"VEC2"},{"bufferView":41,"componentType":5125,"count":357,"type":"SCALAR"},{"bufferView":42,"componentType":5126,"count":3181,"type":"VEC3","min":[-3.9350102,0.5741756,-3.8307068],"max":[3.9350102,3.9522254,3.474421]},{"bufferView":43,"componentType":5126,"count":3181,"type":"VEC3"},{"bufferView":44,"componentType":5126,"count":3181,"type":"VEC4"},{"bufferView":45,"componentType":5126,"count":3181,"type":"VEC2"},{"bufferView":46,"componentType":5126,"count":3181,"type":"VEC2"},{"bufferView":47,"componentType":5126,"count":3181,"type":"VEC2"},{"bufferView":48,"componentType":5125,"count":6318,"type":"SCALAR"}],"bufferViews":[{"buffer":0,"byteOffset":0,"byteLength":45504,"target":34962},{"buffer":0,"byteOffset":45504,"byteLength":45504,"target":34962},{"buffer":0,"byteOffset":91008,"byteLength":60672,"target":34962},{"buffer":0,"byteOffset":151680,"byteLength":30336,"target":34962},{"buffer":0,"byteOffset":182016,"byteLength":30336,"target":34962},{"buffer":0,"byteOffset":212352,"byteLength":30336,"target":34962},{"buffer":0,"byteOffset":242688,"byteLength":33024,"target":34963},{"buffer":0,"byteOffset":275712,"byteLength":720,"target":34962},{"buffer":0,"byteOffset":276432,"byteLength":720,"target":34962},{"buffer":0,"byteOffset":277152,"byteLength":960,"target":34962},{"buffer":0,"byteOffset":278112,"byteLength":480,"target":34962},{"buffer":0,"byteOffset":278592,"byteLength":480,"target":34962},{"buffer":0,"byteOffset":279072,"byteLength":480,"target":34962},{"buffer":0,"byteOffset":279552,"byteLength":360,"target":34963},{"buffer":0,"byteOffset":279912,"byteLength":996,"target":34962},{"buffer":0,"byteOffset":280908,"byteLength":996,"target":34962},{"buffer":0,"byteOffset":281904,"byteLength":1328,"target":34962},{"buffer":0,"byteOffset":283232,"byteLength":664,"target":34962},{"buffer":0,"byteOffset":283896,"byteLength":664,"target":34962},{"buffer":0,"byteOffset":284560,"byteLength":664,"target":34962},{"buffer":0,"byteOffset":285224,"byteLength":492,"target":34963},{"buffer":0,"byteOffset":285716,"byteLength":912,"target":34962},{"buffer":0,"byteOffset":286628,"byteLength":912,"target":34962},{"buffer":0,"byteOffset":287540,"byteLength":1216,"target":34962},{"buffer":0,"byteOffset":288756,"byteLength":608,"target":34962},{"buffer":0,"byteOffset":289364,"byteLength":608,"target":34962},{"buffer":0,"byteOffset":289972,"byteLength":608,"target":34962},{"buffer":0,"byteOffset":290580,"byteLength":672,"target":34963},{"buffer":0,"byteOffset":291252,"byteLength":87396,"target":34962},{"buffer":0,"byteOffset":378648,"byteLength":87396,"target":34962},{"buffer":0,"byteOffset":466044,"byteLength":116528,"target":34962},{"buffer":0,"byteOffset":582572,"byteLength":58264,"target":34962},{"buffer":0,"byteOffset":640836,"byteLength":58264,"target":34962},{"buffer":0,"byteOffset":699100,"byteLength":58264,"target":34962},{"buffer":0,"byteOffset":757364,"byteLength":64008,"target":34963},{"buffer":0,"byteOffset":821372,"byteLength":2820,"target":34962},{"buffer":0,"byteOffset":824192,"byteLength":2820,"target":34962},{"buffer":0,"byteOffset":827012,"byteLength":3760,"target":34962},{"buffer":0,"byteOffset":830772,"byteLength":1880,"target":34962},{"buffer":0,"byteOffset":832652,"byteLength":1880,"target":34962},{"buffer":0,"byteOffset":834532,"byteLength":1880,"target":34962},{"buffer":0,"byteOffset":836412,"byteLength":1428,"target":34963},{"buffer":0,"byteOffset":837840,"byteLength":38172,"target":34962},{"buffer":0,"byteOffset":876012,"byteLength":38172,"target":34962},{"buffer":0,"byteOffset":914184,"byteLength":50896,"target":34962},{"buffer":0,"byteOffset":965080,"byteLength":25448,"target":34962},{"buffer":0,"byteOffset":990528,"byteLength":25448,"target":34962},{"buffer":0,"byteOffset":1015976,"byteLength":25448,"target":34962},{"buffer":0,"byteOffset":1041424,"byteLength":25272,"target":34963}],"buffers":[{"uri":"w503_turret_emp__open_emp_turret_01_platform_lod1.bin","byteLength":1066696}]}