{"asset":{"version":"2.0","generator":"RBMesh"},"scene":0,"scenes":[{"nodes":[0]}],"nodes":[{"mesh":0}],"meshes":[{"name":"GeneralMkIII_0","primitives":[{"attributes":{"POSITION":0,"NORMAL":1,"TANGENT":2,"TEXCOORD_0":3,"TEXCOORD_1":4,"TEXCOORD_2":5},"indices":6,"material":0,"mode":4}]}],"materials":[{"name":"GeneralMkIII","pbrMetallicRoughness":{"baseColorTexture":{"index":0},"metallicFactor":0,"roughnessFactor":1},"normalTexture":{"index":1}}],"textures":[{"sampler":0,"source":0},{"sampler":0,"source":1}],"images":[{"uri":"metal_14_a_clean_dif.png"},{"uri":"dummy_nrm.png"}],"samplers":[{"wrapS":10497,"wrapT":10497}],"accessors":[{"bufferView":0,"componentType":5126,"count":4372,"type":"VEC3","min":[-0.59256905,2.9047792,-9.75714],"max":[0.59256905,4.2596483,1.4355654]},{"bufferView":1,"componentType":5126,"count":4372,"type":"VEC3"},{"bufferView":2,"componentType":5126,"count":4372,"type":"VEC4"},{"bufferView":3,"componentType":5126,"count":4372,"type":"VEC2"},{"bufferView":4,"componentType":5126,"count":4372,"type":"VEC2"},{"bufferView":5,"componentType":5126,"count":4372,"type":"VEC2"},{"bufferView":6,"componentType":5125,"count":10512,"type":"SCALAR"}],"bufferViews":[{"buffer":0,"byteOffset":0,"byteLength":52464,"target":34962},{"buffer":0,"byteOffset":52464,"byteLength":52464,"target":34962},{"buffer":0,"byteOffset":104928,"byteLength":69952,"target":34962},{"buffer":0,"byteOffset":174880,"byteLength":34976,"target":34962},{"buffer":0,"byteOffset":209856,"byteLength":34976,"target":34962},{"buffer":0,"byteOffset":244832,"byteLength":34976,"target":34962},{"buffer":0,"byteOffset":279808,"byteLength":42048,"target":34963}],"buffers":[{"uri":"w503_turret_emp__open_emp_turret_01_weapon_lod1.bin","byteLength":321856}]}