{"asset":{"version":"2.0","generator":"RBMesh"},"scene":0,"scenes":[{"nodes":[0,1]}],"nodes":[{"mesh":0},{"mesh":1}],"meshes":[{"name":"GeneralMkIII_0","primitives":[{"attributes":{"POSITION":0,"NORMAL":1,"TANGENT":2,"TEXCOORD_0":3,"TEXCOORD_1":4,"TEXCOORD_2":5},"indices":6,"material":0,"mode":4}]},{"name":"GeneralMkIII_1","primitives":[{"attributes":{"POSITION":7,"NORMAL":8,"TANGENT":9,"TEXCOORD_0":10,"TEXCOORD_1":11,"TEXCOORD_2":12},"indices":13,"material":1,"mode":4}]}],"materials":[{"name":"GeneralMkIII","pbrMetallicRoughness":{"baseColorTexture":{"index":0},"metallicFactor":0,"roughnessFactor":1},"normalTexture":{"index":1}},{"name":"GeneralMkIII","pbrMetallicRoughness":{"baseColorTexture":{"index":2},"metallicFactor":0,"roughnessFactor":1}}],"textures":[{"sampler":0,"source":0},{"sampler":0,"source":1},{"sampler":0,"source":2}],"images":[{"uri":"metal_trims_01_a_clean_dif.png"},{"uri":"metal_trims_01_a_clean_nrm.png"},{"uri":"metal_01_a_clean_dif.png"}],"samplers":[{"wrapS":10497,"wrapT":10497}],"accessors":[{"bufferView":0,"componentType":5126,"count":180,"type":"VEC3","min":[-2.7437434,0.43175438,-2.7437434],"max":[2.7437434,0.57426685,2.7437434]},{"bufferView":1,"componentType":5126,"count":180,"type":"VEC3"},{"bufferView":2,"componentType":5126,"count":180,"type":"VEC4"},{"bufferView":3,"componentType":5126,"count":180,"type":"VEC2"},{"bufferView":4,"componentType":5126,"count":180,"type":"VEC2"},{"bufferView":5,"componentType":5126,"count":180,"type":"VEC2"},{"bufferView":6,"componentType":5125,"count":480,"type":"SCALAR"},{"bufferView":7,"componentType":5126,"count":1278,"type":"VEC3","min":[-3.542916,0,-3.542916],"max":[3.542916,0.4471085,3.5430243]},{"bufferView":8,"componentType":5126,"count":1278,"type":"VEC3"},{"bufferView":9,"componentType":5126,"count":1278,"type":"VEC4"},{"bufferView":10,"componentType":5126,"count":1278,"type":"VEC2"},{"bufferView":11,"componentType":5126,"count":1278,"type":"VEC2"},{"bufferView":12,"componentType":5126,"count":1278,"type":"VEC2"},{"bufferView":13,"componentType":5125,"count":2556,"type":"SCALAR"}],"bufferViews":[{"buffer":0,"byteOffset":0,"byteLength":2160,"target":34962},{"buffer":0,"byteOffset":2160,"byteLength":2160,"target":34962},{"buffer":0,"byteOffset":4320,"byteLength":2880,"target":34962},{"buffer":0,"byteOffset":7200,"byteLength":1440,"target":34962},{"buffer":0,"byteOffset":8640,"byteLength":1440,"target":34962},{"buffer":0,"byteOffset":10080,"byteLength":1440,"target":34962},{"buffer":0,"byteOffset":11520,"byteLength":1920,"target":34963},{"buffer":0,"byteOffset":13440,"byteLength":15336,"target":34962},{"buffer":0,"byteOffset":28776,"byteLength":15336,"target":34962},{"buffer":0,"byteOffset":44112,"byteLength":20448,"target":34962},{"buffer":0,"byteOffset":64560,"byteLength":10224,"target":34962},{"buffer":0,"byteOffset":74784,"byteLength":10224,"target":34962},{"buffer":0,"byteOffset":85008,"byteLength":10224,"target":34962},{"buffer":0,"byteOffset":95232,"byteLength":10224,"target":34963}],"buffers":[{"uri":"w503_turret_emp__open_emp_turret_01_base_lod1.bin","byteLength":105456}]}