{"asset":{"version":"2.0","generator":"RBMesh"},"scene":0,"scenes":[{"nodes":[0]}],"nodes":[{"mesh":0}],"meshes":[{"name":"GeneralMkIII_0","primitives":[{"attributes":{"POSITION":0,"NORMAL":1,"TANGENT":2,"TEXCOORD_0":3,"TEXCOORD_1":4,"TEXCOORD_2":5},"indices":6,"material":0,"mode":4}]}],"materials":[{"name":"GeneralMkIII","pbrMetallicRoughness":{"baseColorTexture":{"index":0},"metallicFactor":0,"roughnessFactor":1},"normalTexture":{"index":1}}],"textures":[{"sampler":0,"source":0},{"sampler":0,"source":1}],"images":[{"uri":"w503_missile_capstone_billfire_dif.png"},{"uri":"w503_missile_capstone_billfire_nrm.png"}],"samplers":[{"wrapS":10497,"wrapT":10497}],"accessors":[{"bufferView":0,"componentType":5126,"count":957,"type":"VEC3","min":[-0.36615056,-0.36615056,-0.9017403],"max":[0.36615056,0.36615056,0.8987682]},{"bufferView":1,"componentType":5126,"count":957,"type":"VEC3"},{"bufferView":2,"componentType":5126,"count":957,"type":"VEC4"},{"bufferView":3,"componentType":5126,"count":957,"type":"VEC2"},{"bufferView":4,"componentType":5126,"count":957,"type":"VEC2"},{"bufferView":5,"componentType":5126,"count":957,"type":"VEC2"},{"bufferView":6,"componentType":5125,"count":4020,"type":"SCALAR"}],"bufferViews":[{"buffer":0,"byteOffset":0,"byteLength":11484,"target":34962},{"buffer":0,"byteOffset":11484,"byteLength":11484,"target":34962},{"buffer":0,"byteOffset":22968,"byteLength":15312,"target":34962},{"buffer":0,"byteOffset":38280,"byteLength":7656,"target":34962},{"buffer":0,"byteOffset":45936,"byteLength":7656,"target":34962},{"buffer":0,"byteOffset":53592,"byteLength":7656,"target":34962},{"buffer":0,"byteOffset":61248,"byteLength":16080,"target":34963}],"buffers":[{"uri":"w504_turret_m488__w503_missile_capstone_billfire_body_lod1.bin","byteLength":77328}]}