{"asset":{"version":"2.0","generator":"RBMesh"},"scene":0,"scenes":[{"nodes":[0,1]}],"nodes":[{"mesh":0},{"mesh":1}],"meshes":[{"name":"GeneralMkIII_0","primitives":[{"attributes":{"POSITION":0,"NORMAL":1,"TANGENT":2,"TEXCOORD_0":3,"TEXCOORD_1":4,"TEXCOORD_2":5},"indices":6,"mode":4}]},{"name":"GeneralMkIII_1","primitives":[{"attributes":{"POSITION":7,"NORMAL":8,"TANGENT":9,"TEXCOORD_0":10,"TEXCOORD_1":11,"TEXCOORD_2":12},"indices":13,"material":0,"mode":4}]}],"materials":[{"name":"GeneralMkIII","pbrMetallicRoughness":{"baseColorTexture":{"index":0},"metallicFactor":0,"roughnessFactor":1},"normalTexture":{"index":1}}],"textures":[{"sampler":0,"source":0},{"sampler":0,"source":1}],"images":[{"uri":"bavarium_missile_launcher_01_alpha_dif.png"},{"uri":"bavarium_missile_launcher_01_nrm.png"}],"samplers":[{"wrapS":10497,"wrapT":10497}],"accessors":[{"bufferView":0,"componentType":5126,"count":5169,"type":"VEC3","min":[-3.6810548,-0.19711156,-3.660865],"max":[3.6810548,4.2408104,3.660865]},{"bufferView":1,"componentType":5126,"count":5169,"type":"VEC3"},{"bufferView":2,"componentType":5126,"count":5169,"type":"VEC4"},{"bufferView":3,"componentType":5126,"count":5169,"type":"VEC2"},{"bufferView":4,"componentType":5126,"count":5169,"type":"VEC2"},{"bufferView":5,"componentType":5126,"count":5169,"type":"VEC2"},{"bufferView":6,"componentType":5125,"count":15372,"type":"SCALAR"},{"bufferView":7,"componentType":5126,"count":216,"type":"VEC3","min":[-3.5689745,0.0028473106,-2.977381],"max":[3.5689745,3.824456,3.315046]},{"bufferView":8,"componentType":5126,"count":216,"type":"VEC3"},{"bufferView":9,"componentType":5126,"count":216,"type":"VEC4"},{"bufferView":10,"componentType":5126,"count":216,"type":"VEC2"},{"bufferView":11,"componentType":5126,"count":216,"type":"VEC2"},{"bufferView":12,"componentType":5126,"count":216,"type":"VEC2"},{"bufferView":13,"componentType":5125,"count":324,"type":"SCALAR"}],"bufferViews":[{"buffer":0,"byteOffset":0,"byteLength":62028,"target":34962},{"buffer":0,"byteOffset":62028,"byteLength":62028,"target":34962},{"buffer":0,"byteOffset":124056,"byteLength":82704,"target":34962},{"buffer":0,"byteOffset":206760,"byteLength":41352,"target":34962},{"buffer":0,"byteOffset":248112,"byteLength":41352,"target":34962},{"buffer":0,"byteOffset":289464,"byteLength":41352,"target":34962},{"buffer":0,"byteOffset":330816,"byteLength":61488,"target":34963},{"buffer":0,"byteOffset":392304,"byteLength":2592,"target":34962},{"buffer":0,"byteOffset":394896,"byteLength":2592,"target":34962},{"buffer":0,"byteOffset":397488,"byteLength":3456,"target":34962},{"buffer":0,"byteOffset":400944,"byteLength":1728,"target":34962},{"buffer":0,"byteOffset":402672,"byteLength":1728,"target":34962},{"buffer":0,"byteOffset":404400,"byteLength":1728,"target":34962},{"buffer":0,"byteOffset":406128,"byteLength":1296,"target":34963}],"buffers":[{"uri":"w504_turret_m488__bavarium_missile_launcher_arms_lod1.bin","byteLength":407424}]}