{"asset":{"version":"2.0","generator":"RBMesh"},"scene":0,"scenes":[{"nodes":[0]}],"nodes":[{"mesh":0}],"meshes":[{"name":"GeneralMkIII_0","primitives":[{"attributes":{"POSITION":0,"NORMAL":1,"TANGENT":2,"TEXCOORD_0":3,"TEXCOORD_1":4,"TEXCOORD_2":5},"indices":6,"material":0,"mode":4}]}],"materials":[{"name":"GeneralMkIII","pbrMetallicRoughness":{"baseColorTexture":{"index":0},"metallicFactor":0,"roughnessFactor":1},"normalTexture":{"index":1}}],"textures":[{"sampler":0,"source":0},{"sampler":0,"source":1}],"images":[{"uri":"concrete_floor_05_a_clean_dif.png"},{"uri":"concrete_floor_05_a_clean_nrm.png"}],"samplers":[{"wrapS":10497,"wrapT":10497}],"accessors":[{"bufferView":0,"componentType":5126,"count":600,"type":"VEC3","min":[-3.754982,-6.693273,-3.754982],"max":[3.754982,-0.19692105,3.754982]},{"bufferView":1,"componentType":5126,"count":600,"type":"VEC3"},{"bufferView":2,"componentType":5126,"count":600,"type":"VEC4"},{"bufferView":3,"componentType":5126,"count":600,"type":"VEC2"},{"bufferView":4,"componentType":5126,"count":600,"type":"VEC2"},{"bufferView":5,"componentType":5126,"count":600,"type":"VEC2"},{"bufferView":6,"componentType":5125,"count":2226,"type":"SCALAR"}],"bufferViews":[{"buffer":0,"byteOffset":0,"byteLength":7200,"target":34962},{"buffer":0,"byteOffset":7200,"byteLength":7200,"target":34962},{"buffer":0,"byteOffset":14400,"byteLength":9600,"target":34962},{"buffer":0,"byteOffset":24000,"byteLength":4800,"target":34962},{"buffer":0,"byteOffset":28800,"byteLength":4800,"target":34962},{"buffer":0,"byteOffset":33600,"byteLength":4800,"target":34962},{"buffer":0,"byteOffset":38400,"byteLength":8904,"target":34963}],"buffers":[{"uri":"w504_turret_m488__bavarium_missile_launcher_base_lod1.bin","byteLength":47304}]}