{"asset":{"version":"2.0","generator":"RBMesh"},"scene":0,"scenes":[{"nodes":[0,1]}],"nodes":[{"mesh":0},{"mesh":1}],"meshes":[{"name":"GeneralMkIII_0","primitives":[{"attributes":{"POSITION":0,"NORMAL":1,"TANGENT":2,"TEXCOORD_0":3,"TEXCOORD_1":4,"TEXCOORD_2":5},"indices":6,"mode":4}]},{"name":"GeneralMkIII_1","primitives":[{"attributes":{"POSITION":7,"NORMAL":8,"TANGENT":9,"TEXCOORD_0":10,"TEXCOORD_1":11,"TEXCOORD_2":12},"indices":13,"material":0,"mode":4}]}],"materials":[{"name":"GeneralMkIII","pbrMetallicRoughness":{"baseColorTexture":{"index":0},"metallicFactor":0,"roughnessFactor":1},"normalTexture":{"index":1}}],"textures":[{"sampler":0,"source":0},{"sampler":0,"source":1}],"images":[{"uri":"bavarium_missile_launcher_01_alpha_dif.png"},{"uri":"bavarium_missile_launcher_01_nrm.png"}],"samplers":[{"wrapS":10497,"wrapT":10497}],"accessors":[{"bufferView":0,"componentType":5126,"count":2336,"type":"VEC3","min":[-3.0568285,3.0073628,-4.438778],"max":[3.0568285,5.065138,3.1361284]},{"bufferView":1,"componentType":5126,"count":2336,"type":"VEC3"},{"bufferView":2,"componentType":5126,"count":2336,"type":"VEC4"},{"bufferView":3,"componentType":5126,"count":2336,"type":"VEC2"},{"bufferView":4,"componentType":5126,"count":2336,"type":"VEC2"},{"bufferView":5,"componentType":5126,"count":2336,"type":"VEC2"},{"bufferView":6,"componentType":5125,"count":7242,"type":"SCALAR"},{"bufferView":7,"componentType":5126,"count":1837,"type":"VEC3","min":[-2.6360605,2.3607528,-3.880433],"max":[2.6360605,4.6998644,3.0464716]},{"bufferView":8,"componentType":5126,"count":1837,"type":"VEC3"},{"bufferView":9,"componentType":5126,"count":1837,"type":"VEC4"},{"bufferView":10,"componentType":5126,"count":1837,"type":"VEC2"},{"bufferView":11,"componentType":5126,"count":1837,"type":"VEC2"},{"bufferView":12,"componentType":5126,"count":1837,"type":"VEC2"},{"bufferView":13,"componentType":5125,"count":7065,"type":"SCALAR"}],"bufferViews":[{"buffer":0,"byteOffset":0,"byteLength":28032,"target":34962},{"buffer":0,"byteOffset":28032,"byteLength":28032,"target":34962},{"buffer":0,"byteOffset":56064,"byteLength":37376,"target":34962},{"buffer":0,"byteOffset":93440,"byteLength":18688,"target":34962},{"buffer":0,"byteOffset":112128,"byteLength":18688,"target":34962},{"buffer":0,"byteOffset":130816,"byteLength":18688,"target":34962},{"buffer":0,"byteOffset":149504,"byteLength":28968,"target":34963},{"buffer":0,"byteOffset":178472,"byteLength":22044,"target":34962},{"buffer":0,"byteOffset":200516,"byteLength":22044,"target":34962},{"buffer":0,"byteOffset":222560,"byteLength":29392,"target":34962},{"buffer":0,"byteOffset":251952,"byteLength":14696,"target":34962},{"buffer":0,"byteOffset":266648,"byteLength":14696,"target":34962},{"buffer":0,"byteOffset":281344,"byteLength":14696,"target":34962},{"buffer":0,"byteOffset":296040,"byteLength":28260,"target":34963}],"buffers":[{"uri":"w504_turret_m488__bavarium_missile_launcher_launcher_lod1.bin","byteLength":324300}]}