{"asset":{"version":"2.0","generator":"RBMesh"},"scene":0,"scenes":[{"nodes":[0]}],"nodes":[{"mesh":0}],"meshes":[{"name":"CarPaintMM_0","primitives":[{"attributes":{"POSITION":0,"NORMAL":1,"TANGENT":2,"TEXCOORD_0":3,"TEXCOORD_1":4,"TEXCOORD_2":5},"indices":6,"material":0,"mode":4}]}],"materials":[{"name":"CarPaintMM","pbrMetallicRoughness":{"baseColorTexture":{"index":0},"metallicFactor":0,"roughnessFactor":1},"normalTexture":{"index":1}}],"textures":[{"sampler":0,"source":0},{"sampler":0,"source":1}],"images":[{"uri":"shared_ordnance_aamissile_dif.png"},{"uri":"shared_ordnance_aamissile_nrm.png"}],"samplers":[{"wrapS":10497,"wrapT":10497}],"accessors":[{"bufferView":0,"componentType":5126,"count":410,"type":"VEC3","min":[-0.2227252,-0.22291046,-1.8396679],"max":[0.22272491,0.22313996,1.8390322]},{"bufferView":1,"componentType":5126,"count":410,"type":"VEC3"},{"bufferView":2,"componentType":5126,"count":410,"type":"VEC4"},{"bufferView":3,"componentType":5126,"count":410,"type":"VEC2"},{"bufferView":4,"componentType":5126,"count":410,"type":"VEC2"},{"bufferView":5,"componentType":5126,"count":410,"type":"VEC2"},{"bufferView":6,"componentType":5125,"count":1386,"type":"SCALAR"}],"bufferViews":[{"buffer":0,"byteOffset":0,"byteLength":4920,"target":34962},{"buffer":0,"byteOffset":4920,"byteLength":4920,"target":34962},{"buffer":0,"byteOffset":9840,"byteLength":6560,"target":34962},{"buffer":0,"byteOffset":16400,"byteLength":3280,"target":34962},{"buffer":0,"byteOffset":19680,"byteLength":3280,"target":34962},{"buffer":0,"byteOffset":22960,"byteLength":3280,"target":34962},{"buffer":0,"byteOffset":26240,"byteLength":5544,"target":34963}],"buffers":[{"uri":"w612_fighterbomber_missile_air_lockon__w612_fighterbomber_missile_air_lockon_body_lod1.bin","byteLength":31784}]}