{"asset":{"version":"2.0","generator":"RBMesh"},"scene":0,"scenes":[{"nodes":[0]}],"nodes":[{"mesh":0}],"meshes":[{"name":"CarPaintMM_0","primitives":[{"attributes":{"POSITION":0,"NORMAL":1,"TANGENT":2,"TEXCOORD_0":3,"TEXCOORD_1":4,"TEXCOORD_2":5},"indices":6,"material":0,"mode":4}]}],"materials":[{"name":"CarPaintMM","pbrMetallicRoughness":{"baseColorTexture":{"index":0},"metallicFactor":0,"roughnessFactor":1},"normalTexture":{"index":1}}],"textures":[{"sampler":0,"source":0},{"sampler":0,"source":1}],"images":[{"uri":"shared_ordnance_lgb_dif.png"},{"uri":"shared_ordnance_lgb_nrm.png"}],"samplers":[{"wrapS":10497,"wrapT":10497}],"accessors":[{"bufferView":0,"componentType":5126,"count":482,"type":"VEC3","min":[-0.31724793,-0.32183847,-1.9859376],"max":[0.3296924,0.32957885,1.9987053]},{"bufferView":1,"componentType":5126,"count":482,"type":"VEC3"},{"bufferView":2,"componentType":5126,"count":482,"type":"VEC4"},{"bufferView":3,"componentType":5126,"count":482,"type":"VEC2"},{"bufferView":4,"componentType":5126,"count":482,"type":"VEC2"},{"bufferView":5,"componentType":5126,"count":482,"type":"VEC2"},{"bufferView":6,"componentType":5125,"count":1872,"type":"SCALAR"}],"bufferViews":[{"buffer":0,"byteOffset":0,"byteLength":5784,"target":34962},{"buffer":0,"byteOffset":5784,"byteLength":5784,"target":34962},{"buffer":0,"byteOffset":11568,"byteLength":7712,"target":34962},{"buffer":0,"byteOffset":19280,"byteLength":3856,"target":34962},{"buffer":0,"byteOffset":23136,"byteLength":3856,"target":34962},{"buffer":0,"byteOffset":26992,"byteLength":3856,"target":34962},{"buffer":0,"byteOffset":30848,"byteLength":7488,"target":34963}],"buffers":[{"uri":"w613_fighterbomber_missile_ground_lockon__w613_fighterbomber_missile_ground_lockon_body_lod1.bin","byteLength":38336}]}