{"asset":{"version":"2.0","generator":"RBMesh"},"scene":0,"scenes":[{"nodes":[0]}],"nodes":[{"mesh":0}],"meshes":[{"name":"GeneralMkIII_0","primitives":[{"attributes":{"POSITION":0,"NORMAL":1,"TANGENT":2,"TEXCOORD_0":3,"TEXCOORD_1":4,"TEXCOORD_2":5},"indices":6,"material":0,"mode":4}]}],"materials":[{"name":"GeneralMkIII","pbrMetallicRoughness":{"baseColorTexture":{"index":0},"metallicFactor":0,"roughnessFactor":1},"normalTexture":{"index":1}}],"textures":[{"sampler":0,"source":0},{"sampler":0,"source":1}],"images":[{"uri":"w143_rpg_fire_leach_projectile_dif.png"},{"uri":"w143_rpg_fire_leach_projectile_nrm.png"}],"samplers":[{"wrapS":10497,"wrapT":10497}],"accessors":[{"bufferView":0,"componentType":5126,"count":1722,"type":"VEC3","min":[-0.03332449,-0.033787686,-0.28106657],"max":[0.03332449,0.032861292,0.28018305]},{"bufferView":1,"componentType":5126,"count":1722,"type":"VEC3"},{"bufferView":2,"componentType":5126,"count":1722,"type":"VEC4"},{"bufferView":3,"componentType":5126,"count":1722,"type":"VEC2"},{"bufferView":4,"componentType":5126,"count":1722,"type":"VEC2"},{"bufferView":5,"componentType":5126,"count":1722,"type":"VEC2"},{"bufferView":6,"componentType":5125,"count":4632,"type":"SCALAR"}],"bufferViews":[{"buffer":0,"byteOffset":0,"byteLength":20664,"target":34962},{"buffer":0,"byteOffset":20664,"byteLength":20664,"target":34962},{"buffer":0,"byteOffset":41328,"byteLength":27552,"target":34962},{"buffer":0,"byteOffset":68880,"byteLength":13776,"target":34962},{"buffer":0,"byteOffset":82656,"byteLength":13776,"target":34962},{"buffer":0,"byteOffset":96432,"byteLength":13776,"target":34962},{"buffer":0,"byteOffset":110208,"byteLength":18528,"target":34963}],"buffers":[{"uri":"w618_sportsmuscle_missile__w143_rpg_fire_leach_projectile_body_lod1.bin","byteLength":128736}]}