{"asset":{"version":"2.0","generator":"RBMesh"},"scene":0,"scenes":[{"nodes":[0]}],"nodes":[{"mesh":0}],"meshes":[{"name":"GeneralMkIII_0","primitives":[{"attributes":{"POSITION":0,"NORMAL":1,"TANGENT":2,"TEXCOORD_0":3,"TEXCOORD_1":4,"TEXCOORD_2":5},"indices":6,"material":0,"mode":4}]}],"materials":[{"name":"GeneralMkIII","pbrMetallicRoughness":{"baseColorTexture":{"index":0},"metallicFactor":0,"roughnessFactor":1},"normalTexture":{"index":1}}],"textures":[{"sampler":0,"source":0},{"sampler":0,"source":1}],"images":[{"uri":"w701_missile_strike_dif.png"},{"uri":"w701_missile_strike_nrm.png"}],"samplers":[{"wrapS":10497,"wrapT":10497}],"accessors":[{"bufferView":0,"componentType":5126,"count":3514,"type":"VEC3","min":[-0.03365309,-0.026714178,-0.4265806],"max":[0.03365309,0.19419852,0.09622051]},{"bufferView":1,"componentType":5126,"count":3514,"type":"VEC3"},{"bufferView":2,"componentType":5126,"count":3514,"type":"VEC4"},{"bufferView":3,"componentType":5126,"count":3514,"type":"VEC2"},{"bufferView":4,"componentType":5126,"count":3514,"type":"VEC2"},{"bufferView":5,"componentType":5126,"count":3514,"type":"VEC2"},{"bufferView":6,"componentType":5125,"count":10962,"type":"SCALAR"}],"bufferViews":[{"buffer":0,"byteOffset":0,"byteLength":42168,"target":34962},{"buffer":0,"byteOffset":42168,"byteLength":42168,"target":34962},{"buffer":0,"byteOffset":84336,"byteLength":56224,"target":34962},{"buffer":0,"byteOffset":140560,"byteLength":28112,"target":34962},{"buffer":0,"byteOffset":168672,"byteLength":28112,"target":34962},{"buffer":0,"byteOffset":196784,"byteLength":28112,"target":34962},{"buffer":0,"byteOffset":224896,"byteLength":43848,"target":34963}],"buffers":[{"uri":"w701_missile_strike__w701_missile_strike_body_lod1.bin","byteLength":268744}]}