{"asset":{"version":"2.0","generator":"RBMesh"},"scene":0,"scenes":[{"nodes":[0]}],"nodes":[{"mesh":0}],"meshes":[{"name":"GeneralMkIII_0","primitives":[{"attributes":{"POSITION":0,"NORMAL":1,"TANGENT":2,"TEXCOORD_0":3,"TEXCOORD_1":4,"TEXCOORD_2":5},"indices":6,"material":0,"mode":4}]}],"materials":[{"name":"GeneralMkIII","pbrMetallicRoughness":{"baseColorTexture":{"index":0},"metallicFactor":0,"roughnessFactor":1},"normalTexture":{"index":1}}],"textures":[{"sampler":0,"source":0},{"sampler":0,"source":1}],"images":[{"uri":"w141_rpg_uvk_13_projectile_dif.png"},{"uri":"w141_rpg_uvk_13_projectile_nrm.png"}],"samplers":[{"wrapS":10497,"wrapT":10497}],"accessors":[{"bufferView":0,"componentType":5126,"count":1416,"type":"VEC3","min":[-0.038023032,-0.038044874,-0.3489121],"max":[0.038001195,0.038001195,0.3578118]},{"bufferView":1,"componentType":5126,"count":1416,"type":"VEC3"},{"bufferView":2,"componentType":5126,"count":1416,"type":"VEC4"},{"bufferView":3,"componentType":5126,"count":1416,"type":"VEC2"},{"bufferView":4,"componentType":5126,"count":1416,"type":"VEC2"},{"bufferView":5,"componentType":5126,"count":1416,"type":"VEC2"},{"bufferView":6,"componentType":5125,"count":4098,"type":"SCALAR"}],"bufferViews":[{"buffer":0,"byteOffset":0,"byteLength":16992,"target":34962},{"buffer":0,"byteOffset":16992,"byteLength":16992,"target":34962},{"buffer":0,"byteOffset":33984,"byteLength":22656,"target":34962},{"buffer":0,"byteOffset":56640,"byteLength":11328,"target":34962},{"buffer":0,"byteOffset":67968,"byteLength":11328,"target":34962},{"buffer":0,"byteOffset":79296,"byteLength":11328,"target":34962},{"buffer":0,"byteOffset":90624,"byteLength":16392,"target":34963}],"buffers":[{"uri":"w701_missile_strike__w141_rpg_uvk_13_projectile_body_lod1.bin","byteLength":107016}]}