{"asset":{"version":"2.0","generator":"RBMesh"},"scene":0,"scenes":[{"nodes":[0]}],"nodes":[{"mesh":0}],"meshes":[{"name":"GeneralMkIII_0","primitives":[{"attributes":{"POSITION":0,"NORMAL":1,"TANGENT":2,"TEXCOORD_0":3,"TEXCOORD_1":4,"TEXCOORD_2":5},"indices":6,"material":0,"mode":4}]}],"materials":[{"name":"GeneralMkIII","pbrMetallicRoughness":{"baseColorTexture":{"index":0},"metallicFactor":0,"roughnessFactor":1},"normalTexture":{"index":1}}],"textures":[{"sampler":0,"source":0},{"sampler":0,"source":1}],"images":[{"uri":"w702_fow_emp_dif.png"},{"uri":"w702_fow_emp_nrm.png"}],"samplers":[{"wrapS":10497,"wrapT":10497}],"accessors":[{"bufferView":0,"componentType":5126,"count":89,"type":"VEC3","min":[-0.011804137,-0.057463404,-0.00018063083],"max":[0.01180063,0.012859863,0.04623097]},{"bufferView":1,"componentType":5126,"count":89,"type":"VEC3"},{"bufferView":2,"componentType":5126,"count":89,"type":"VEC4"},{"bufferView":3,"componentType":5126,"count":89,"type":"VEC2"},{"bufferView":4,"componentType":5126,"count":89,"type":"VEC2"},{"bufferView":5,"componentType":5126,"count":89,"type":"VEC2"},{"bufferView":6,"componentType":5125,"count":234,"type":"SCALAR"}],"bufferViews":[{"buffer":0,"byteOffset":0,"byteLength":1068,"target":34962},{"buffer":0,"byteOffset":1068,"byteLength":1068,"target":34962},{"buffer":0,"byteOffset":2136,"byteLength":1424,"target":34962},{"buffer":0,"byteOffset":3560,"byteLength":712,"target":34962},{"buffer":0,"byteOffset":4272,"byteLength":712,"target":34962},{"buffer":0,"byteOffset":4984,"byteLength":712,"target":34962},{"buffer":0,"byteOffset":5696,"byteLength":936,"target":34963}],"buffers":[{"uri":"w702_emp__w702_fow_emp_dial_lod1.bin","byteLength":6632}]}