{"asset":{"version":"2.0","generator":"RBMesh"},"scene":0,"scenes":[{"nodes":[0]}],"nodes":[{"mesh":0}],"meshes":[{"name":"GeneralMkIII_0","primitives":[{"attributes":{"POSITION":0,"NORMAL":1,"TANGENT":2,"TEXCOORD_0":3,"TEXCOORD_1":4,"TEXCOORD_2":5},"indices":6,"material":0,"mode":4}]}],"materials":[{"name":"GeneralMkIII","pbrMetallicRoughness":{"baseColorTexture":{"index":0},"metallicFactor":0,"roughnessFactor":1},"normalTexture":{"index":1}}],"textures":[{"sampler":0,"source":0},{"sampler":0,"source":1}],"images":[{"uri":"w702_fow_emp_dif.png"},{"uri":"w702_fow_emp_nrm.png"}],"samplers":[{"wrapS":10497,"wrapT":10497}],"accessors":[{"bufferView":0,"componentType":5126,"count":2734,"type":"VEC3","min":[-0.07394906,-0.070978835,-0.45691404],"max":[0.07394906,0.17425375,0.2344951]},{"bufferView":1,"componentType":5126,"count":2734,"type":"VEC3"},{"bufferView":2,"componentType":5126,"count":2734,"type":"VEC4"},{"bufferView":3,"componentType":5126,"count":2734,"type":"VEC2"},{"bufferView":4,"componentType":5126,"count":2734,"type":"VEC2"},{"bufferView":5,"componentType":5126,"count":2734,"type":"VEC2"},{"bufferView":6,"componentType":5125,"count":8106,"type":"SCALAR"}],"bufferViews":[{"buffer":0,"byteOffset":0,"byteLength":32808,"target":34962},{"buffer":0,"byteOffset":32808,"byteLength":32808,"target":34962},{"buffer":0,"byteOffset":65616,"byteLength":43744,"target":34962},{"buffer":0,"byteOffset":109360,"byteLength":21872,"target":34962},{"buffer":0,"byteOffset":131232,"byteLength":21872,"target":34962},{"buffer":0,"byteOffset":153104,"byteLength":21872,"target":34962},{"buffer":0,"byteOffset":174976,"byteLength":32424,"target":34963}],"buffers":[{"uri":"w702_emp__w702_fow_emp_body_lod1.bin","byteLength":207400}]}