{"asset":{"version":"2.0","generator":"RBMesh"},"scene":0,"scenes":[{"nodes":[0]}],"nodes":[{"mesh":0}],"meshes":[{"name":"GeneralMkIII_0","primitives":[{"attributes":{"POSITION":0,"NORMAL":1,"TANGENT":2,"TEXCOORD_0":3,"TEXCOORD_1":4,"TEXCOORD_2":5},"indices":6,"material":0,"mode":4}]}],"materials":[{"name":"GeneralMkIII","pbrMetallicRoughness":{"baseColorTexture":{"index":0},"metallicFactor":0,"roughnessFactor":1},"normalTexture":{"index":1}}],"textures":[{"sampler":0,"source":0},{"sampler":0,"source":1}],"images":[{"uri":"w704_fow_m488_dif.png"},{"uri":"w704_fow_m488_nrm.png"}],"samplers":[{"wrapS":10497,"wrapT":10497}],"accessors":[{"bufferView":0,"componentType":5126,"count":3066,"type":"VEC3","min":[-0.14844619,-0.101896934,-0.39480188],"max":[0.14844619,0.30781457,0.7100929]},{"bufferView":1,"componentType":5126,"count":3066,"type":"VEC3"},{"bufferView":2,"componentType":5126,"count":3066,"type":"VEC4"},{"bufferView":3,"componentType":5126,"count":3066,"type":"VEC2"},{"bufferView":4,"componentType":5126,"count":3066,"type":"VEC2"},{"bufferView":5,"componentType":5126,"count":3066,"type":"VEC2"},{"bufferView":6,"componentType":5125,"count":8826,"type":"SCALAR"}],"bufferViews":[{"buffer":0,"byteOffset":0,"byteLength":36792,"target":34962},{"buffer":0,"byteOffset":36792,"byteLength":36792,"target":34962},{"buffer":0,"byteOffset":73584,"byteLength":49056,"target":34962},{"buffer":0,"byteOffset":122640,"byteLength":24528,"target":34962},{"buffer":0,"byteOffset":147168,"byteLength":24528,"target":34962},{"buffer":0,"byteOffset":171696,"byteLength":24528,"target":34962},{"buffer":0,"byteOffset":196224,"byteLength":35304,"target":34963}],"buffers":[{"uri":"w704_m488__w704_fow_m488_base_body_lod1.bin","byteLength":231528}]}