{"asset":{"version":"2.0","generator":"RBMesh"},"scene":0,"scenes":[{"nodes":[0]}],"nodes":[{"mesh":0}],"meshes":[{"name":"GeneralMkIII_0","primitives":[{"attributes":{"POSITION":0,"NORMAL":1,"TANGENT":2,"TEXCOORD_0":3,"TEXCOORD_1":4,"TEXCOORD_2":5},"indices":6,"material":0,"mode":4}]}],"materials":[{"name":"GeneralMkIII","pbrMetallicRoughness":{"baseColorTexture":{"index":0},"metallicFactor":0,"roughnessFactor":1},"normalTexture":{"index":1}}],"textures":[{"sampler":0,"source":0},{"sampler":0,"source":1}],"images":[{"uri":"shell_casing_dif.png"},{"uri":"shell_casing_nrm.png"}],"samplers":[{"wrapS":10497,"wrapT":10497}],"accessors":[{"bufferView":0,"componentType":5126,"count":76,"type":"VEC3","min":[-0.00913663,-0.00913663,-0.036778864],"max":[0.00913663,0.00913663,0.035333168]},{"bufferView":1,"componentType":5126,"count":76,"type":"VEC3"},{"bufferView":2,"componentType":5126,"count":76,"type":"VEC4"},{"bufferView":3,"componentType":5126,"count":76,"type":"VEC2"},{"bufferView":4,"componentType":5126,"count":76,"type":"VEC2"},{"bufferView":5,"componentType":5126,"count":76,"type":"VEC2"},{"bufferView":6,"componentType":5125,"count":234,"type":"SCALAR"}],"bufferViews":[{"buffer":0,"byteOffset":0,"byteLength":912,"target":34962},{"buffer":0,"byteOffset":912,"byteLength":912,"target":34962},{"buffer":0,"byteOffset":1824,"byteLength":1216,"target":34962},{"buffer":0,"byteOffset":3040,"byteLength":608,"target":34962},{"buffer":0,"byteOffset":3648,"byteLength":608,"target":34962},{"buffer":0,"byteOffset":4256,"byteLength":608,"target":34962},{"buffer":0,"byteOffset":4864,"byteLength":936,"target":34963}],"buffers":[{"uri":"w999_dlc_testgun__shell_casing_shell_casing_lod1.bin","byteLength":5800}]}