{"asset":{"version":"2.0","generator":"RBMesh"},"scene":0,"scenes":[{"nodes":[0]}],"nodes":[{"mesh":0}],"meshes":[{"name":"GeneralMkIII_0","primitives":[{"attributes":{"POSITION":0,"NORMAL":1,"TANGENT":2,"TEXCOORD_0":3,"TEXCOORD_1":4,"TEXCOORD_2":5},"indices":6,"material":0,"mode":4}]}],"materials":[{"name":"GeneralMkIII","pbrMetallicRoughness":{"baseColorTexture":{"index":0},"metallicFactor":0,"roughnessFactor":1},"normalTexture":{"index":1}}],"textures":[{"sampler":0,"source":0},{"sampler":0,"source":1}],"images":[{"uri":"w999_shotgun_dlctestgun.png"},{"uri":"w151_shotgun_u_rys_96_nrm.png"}],"samplers":[{"wrapS":10497,"wrapT":10497}],"accessors":[{"bufferView":0,"componentType":5126,"count":510,"type":"VEC3","min":[-0.01680228,0.06800989,-0.4523914],"max":[0.01680228,0.121081345,-0.25106776]},{"bufferView":1,"componentType":5126,"count":510,"type":"VEC3"},{"bufferView":2,"componentType":5126,"count":510,"type":"VEC4"},{"bufferView":3,"componentType":5126,"count":510,"type":"VEC2"},{"bufferView":4,"componentType":5126,"count":510,"type":"VEC2"},{"bufferView":5,"componentType":5126,"count":510,"type":"VEC2"},{"bufferView":6,"componentType":5125,"count":1872,"type":"SCALAR"}],"bufferViews":[{"buffer":0,"byteOffset":0,"byteLength":6120,"target":34962},{"buffer":0,"byteOffset":6120,"byteLength":6120,"target":34962},{"buffer":0,"byteOffset":12240,"byteLength":8160,"target":34962},{"buffer":0,"byteOffset":20400,"byteLength":4080,"target":34962},{"buffer":0,"byteOffset":24480,"byteLength":4080,"target":34962},{"buffer":0,"byteOffset":28560,"byteLength":4080,"target":34962},{"buffer":0,"byteOffset":32640,"byteLength":7488,"target":34963}],"buffers":[{"uri":"w999_dlc_testgun__w151_shotgun_u_rys_96_pump_lod1.bin","byteLength":40128}]}