{"asset":{"version":"2.0","generator":"RBMesh"},"scene":0,"scenes":[{"nodes":[0]}],"nodes":[{"mesh":0}],"meshes":[{"name":"GeneralMkIII_0","primitives":[{"attributes":{"POSITION":0,"NORMAL":1,"TANGENT":2,"TEXCOORD_0":3,"TEXCOORD_1":4,"TEXCOORD_2":5},"indices":6,"material":0,"mode":4}]}],"materials":[{"name":"GeneralMkIII","pbrMetallicRoughness":{"baseColorTexture":{"index":0},"metallicFactor":0,"roughnessFactor":1},"normalTexture":{"index":1}}],"textures":[{"sampler":0,"source":0},{"sampler":0,"source":1}],"images":[{"uri":"w151_shotgun_u_rys_96_dif.png"},{"uri":"w151_shotgun_u_rys_96_nrm.png"}],"samplers":[{"wrapS":10497,"wrapT":10497}],"accessors":[{"bufferView":0,"componentType":5126,"count":72,"type":"VEC3","min":[0.0065374747,0.111334525,-0.23107539],"max":[0.013970589,0.13482572,-0.1461376]},{"bufferView":1,"componentType":5126,"count":72,"type":"VEC3"},{"bufferView":2,"componentType":5126,"count":72,"type":"VEC4"},{"bufferView":3,"componentType":5126,"count":72,"type":"VEC2"},{"bufferView":4,"componentType":5126,"count":72,"type":"VEC2"},{"bufferView":5,"componentType":5126,"count":72,"type":"VEC2"},{"bufferView":6,"componentType":5125,"count":180,"type":"SCALAR"}],"bufferViews":[{"buffer":0,"byteOffset":0,"byteLength":864,"target":34962},{"buffer":0,"byteOffset":864,"byteLength":864,"target":34962},{"buffer":0,"byteOffset":1728,"byteLength":1152,"target":34962},{"buffer":0,"byteOffset":2880,"byteLength":576,"target":34962},{"buffer":0,"byteOffset":3456,"byteLength":576,"target":34962},{"buffer":0,"byteOffset":4032,"byteLength":576,"target":34962},{"buffer":0,"byteOffset":4608,"byteLength":720,"target":34963}],"buffers":[{"uri":"w999_dlc_testgun__w151_shotgun_u_rys_96_ejection_port_lod1.bin","byteLength":5328}]}