{"asset":{"version":"2.0","generator":"RBMesh"},"scene":0,"scenes":[{"nodes":[0]}],"nodes":[{"mesh":0}],"meshes":[{"name":"GeneralMkIII_0","primitives":[{"attributes":{"POSITION":0,"NORMAL":1,"TANGENT":2,"TEXCOORD_0":3,"TEXCOORD_1":4,"TEXCOORD_2":5},"indices":6,"material":0,"mode":4}]}],"materials":[{"name":"GeneralMkIII","pbrMetallicRoughness":{"baseColorTexture":{"index":0},"metallicFactor":0,"roughnessFactor":1},"normalTexture":{"index":1}}],"textures":[{"sampler":0,"source":0},{"sampler":0,"source":1}],"images":[{"uri":"w999_shotgun_dlctestgun.png"},{"uri":"w151_shotgun_u_rys_96_nrm.png"}],"samplers":[{"wrapS":10497,"wrapT":10497}],"accessors":[{"bufferView":0,"componentType":5126,"count":2450,"type":"VEC3","min":[-0.023385765,-0.02558946,-0.6224869],"max":[0.023385765,0.15205497,0.046695538]},{"bufferView":1,"componentType":5126,"count":2450,"type":"VEC3"},{"bufferView":2,"componentType":5126,"count":2450,"type":"VEC4"},{"bufferView":3,"componentType":5126,"count":2450,"type":"VEC2"},{"bufferView":4,"componentType":5126,"count":2450,"type":"VEC2"},{"bufferView":5,"componentType":5126,"count":2450,"type":"VEC2"},{"bufferView":6,"componentType":5125,"count":8718,"type":"SCALAR"}],"bufferViews":[{"buffer":0,"byteOffset":0,"byteLength":29400,"target":34962},{"buffer":0,"byteOffset":29400,"byteLength":29400,"target":34962},{"buffer":0,"byteOffset":58800,"byteLength":39200,"target":34962},{"buffer":0,"byteOffset":98000,"byteLength":19600,"target":34962},{"buffer":0,"byteOffset":117600,"byteLength":19600,"target":34962},{"buffer":0,"byteOffset":137200,"byteLength":19600,"target":34962},{"buffer":0,"byteOffset":156800,"byteLength":34872,"target":34963}],"buffers":[{"uri":"w999_dlc_testgun__w151_shotgun_u_rys_96_body_lod1.bin","byteLength":191672}]}