{"asset":{"version":"2.0","generator":"RBMesh"},"scene":0,"scenes":[{"nodes":[0]}],"nodes":[{"mesh":0}],"meshes":[{"name":"GeneralMkIII_0","primitives":[{"attributes":{"POSITION":0,"NORMAL":1,"TANGENT":2,"TEXCOORD_0":3,"TEXCOORD_1":4,"TEXCOORD_2":5},"indices":6,"material":0,"mode":4}]}],"materials":[{"name":"GeneralMkIII","pbrMetallicRoughness":{"baseColorTexture":{"index":0},"metallicFactor":0,"roughnessFactor":1},"normalTexture":{"index":1}}],"textures":[{"sampler":0,"source":0},{"sampler":0,"source":1}],"images":[{"uri":"atlas_metal_01_dif.png"},{"uri":"atlas_metal_01_nrm.png"}],"samplers":[{"wrapS":10497,"wrapT":10497}],"accessors":[{"bufferView":0,"componentType":5126,"count":100,"type":"VEC3","min":[-0.242378,0,-0.14050722],"max":[0.33234656,2,0.041688286]},{"bufferView":1,"componentType":5126,"count":100,"type":"VEC3"},{"bufferView":2,"componentType":5126,"count":100,"type":"VEC4"},{"bufferView":3,"componentType":5126,"count":100,"type":"VEC2"},{"bufferView":4,"componentType":5126,"count":100,"type":"VEC2"},{"bufferView":5,"componentType":5126,"count":100,"type":"VEC2"},{"bufferView":6,"componentType":5125,"count":162,"type":"SCALAR"}],"bufferViews":[{"buffer":0,"byteOffset":0,"byteLength":1200,"target":34962},{"buffer":0,"byteOffset":1200,"byteLength":1200,"target":34962},{"buffer":0,"byteOffset":2400,"byteLength":1600,"target":34962},{"buffer":0,"byteOffset":4000,"byteLength":800,"target":34962},{"buffer":0,"byteOffset":4800,"byteLength":800,"target":34962},{"buffer":0,"byteOffset":5600,"byteLength":800,"target":34962},{"buffer":0,"byteOffset":6400,"byteLength":648,"target":34963}],"buffers":[{"uri":"antenna_base__antenna_addon_base_lod1.bin","byteLength":7048}]}