{"asset":{"version":"2.0","generator":"RBMesh"},"scene":0,"scenes":[{"nodes":[0]}],"nodes":[{"mesh":0}],"meshes":[{"name":"Prop_0","primitives":[{"attributes":{"POSITION":0,"NORMAL":1,"TANGENT":2,"TEXCOORD_0":3,"TEXCOORD_1":4,"TEXCOORD_2":5},"indices":6,"material":0,"mode":4}]}],"materials":[{"name":"Prop","pbrMetallicRoughness":{"baseColorTexture":{"index":0},"metallicFactor":0,"roughnessFactor":1},"normalTexture":{"index":1}}],"textures":[{"sampler":0,"source":0},{"sampler":0,"source":1}],"images":[{"uri":"strips_dif.png"},{"uri":"strips_nrm.png"}],"samplers":[{"wrapS":10497,"wrapT":10497}],"accessors":[{"bufferView":0,"componentType":5126,"count":418,"type":"VEC3","min":[-0.35385433,0,-0.35385433],"max":[0.35385433,1.1057357,0.35385433]},{"bufferView":1,"componentType":5126,"count":418,"type":"VEC3"},{"bufferView":2,"componentType":5126,"count":418,"type":"VEC4"},{"bufferView":3,"componentType":5126,"count":418,"type":"VEC2"},{"bufferView":4,"componentType":5126,"count":418,"type":"VEC2"},{"bufferView":5,"componentType":5126,"count":418,"type":"VEC2"},{"bufferView":6,"componentType":5125,"count":1206,"type":"SCALAR"}],"bufferViews":[{"buffer":0,"byteOffset":0,"byteLength":5016,"target":34962},{"buffer":0,"byteOffset":5016,"byteLength":5016,"target":34962},{"buffer":0,"byteOffset":10032,"byteLength":6688,"target":34962},{"buffer":0,"byteOffset":16720,"byteLength":3344,"target":34962},{"buffer":0,"byteOffset":20064,"byteLength":3344,"target":34962},{"buffer":0,"byteOffset":23408,"byteLength":3344,"target":34962},{"buffer":0,"byteOffset":26752,"byteLength":4824,"target":34963}],"buffers":[{"uri":"fuel_barrel__jc2_barrel_a_lod1.bin","byteLength":31576}]}