{"asset":{"version":"2.0","generator":"RBMesh"},"scene":0,"scenes":[{"nodes":[0]}],"nodes":[{"mesh":0}],"meshes":[{"name":"General_0","primitives":[{"attributes":{"POSITION":0,"NORMAL":1,"TANGENT":2,"TEXCOORD_0":3,"TEXCOORD_1":4,"TEXCOORD_2":5},"indices":6,"material":0,"mode":4}]}],"materials":[{"name":"General","pbrMetallicRoughness":{"baseColorTexture":{"index":0},"metallicFactor":0,"roughnessFactor":1},"normalTexture":{"index":1}}],"textures":[{"sampler":0,"source":0},{"sampler":0,"source":1}],"images":[{"uri":"atlas_metal_01_dif.png"},{"uri":"dummy_nrm.png"}],"samplers":[{"wrapS":10497,"wrapT":10497}],"accessors":[{"bufferView":0,"componentType":5126,"count":291,"type":"VEC3","min":[-0.3379904,0,-0.3379904],"max":[0.3379904,0.27569833,0.3379904]},{"bufferView":1,"componentType":5126,"count":291,"type":"VEC3"},{"bufferView":2,"componentType":5126,"count":291,"type":"VEC4"},{"bufferView":3,"componentType":5126,"count":291,"type":"VEC2"},{"bufferView":4,"componentType":5126,"count":291,"type":"VEC2"},{"bufferView":5,"componentType":5126,"count":291,"type":"VEC2"},{"bufferView":6,"componentType":5125,"count":792,"type":"SCALAR"}],"bufferViews":[{"buffer":0,"byteOffset":0,"byteLength":3492,"target":34962},{"buffer":0,"byteOffset":3492,"byteLength":3492,"target":34962},{"buffer":0,"byteOffset":6984,"byteLength":4656,"target":34962},{"buffer":0,"byteOffset":11640,"byteLength":2328,"target":34962},{"buffer":0,"byteOffset":13968,"byteLength":2328,"target":34962},{"buffer":0,"byteOffset":16296,"byteLength":2328,"target":34962},{"buffer":0,"byteOffset":18624,"byteLength":3168,"target":34963}],"buffers":[{"uri":"fuel_barrel__fuel_barrel_debris_part_1_lod1.bin","byteLength":21792}]}