{"asset":{"version":"2.0","generator":"RBMesh"},"scene":0,"scenes":[{"nodes":[0]}],"nodes":[{"mesh":0}],"meshes":[{"name":"General_0","primitives":[{"attributes":{"POSITION":0,"NORMAL":1,"TANGENT":2,"TEXCOORD_0":3,"TEXCOORD_1":4,"TEXCOORD_2":5},"indices":6,"material":0,"mode":4}]}],"materials":[{"name":"General","pbrMetallicRoughness":{"baseColorTexture":{"index":0},"metallicFactor":0,"roughnessFactor":1},"normalTexture":{"index":1}}],"textures":[{"sampler":0,"source":0},{"sampler":0,"source":1}],"images":[{"uri":"atlas_metal_01_dif.png"},{"uri":"dummy_nrm.png"}],"samplers":[{"wrapS":10497,"wrapT":10497}],"accessors":[{"bufferView":0,"componentType":5126,"count":82,"type":"VEC3","min":[-0.11846656,-0.2799909,-0.14739108],"max":[0.11846656,0.27998236,0.14739108]},{"bufferView":1,"componentType":5126,"count":82,"type":"VEC3"},{"bufferView":2,"componentType":5126,"count":82,"type":"VEC4"},{"bufferView":3,"componentType":5126,"count":82,"type":"VEC2"},{"bufferView":4,"componentType":5126,"count":82,"type":"VEC2"},{"bufferView":5,"componentType":5126,"count":82,"type":"VEC2"},{"bufferView":6,"componentType":5125,"count":192,"type":"SCALAR"}],"bufferViews":[{"buffer":0,"byteOffset":0,"byteLength":984,"target":34962},{"buffer":0,"byteOffset":984,"byteLength":984,"target":34962},{"buffer":0,"byteOffset":1968,"byteLength":1312,"target":34962},{"buffer":0,"byteOffset":3280,"byteLength":656,"target":34962},{"buffer":0,"byteOffset":3936,"byteLength":656,"target":34962},{"buffer":0,"byteOffset":4592,"byteLength":656,"target":34962},{"buffer":0,"byteOffset":5248,"byteLength":768,"target":34963}],"buffers":[{"uri":"fuel_barrel__fuel_barrel_debris_part_2_lod1.bin","byteLength":6016}]}