{"asset":{"version":"2.0","generator":"RBMesh"},"scene":0,"scenes":[{"nodes":[0]}],"nodes":[{"mesh":0}],"meshes":[{"name":"GeneralMkIII_0","primitives":[{"attributes":{"POSITION":0,"NORMAL":1,"TANGENT":2,"TEXCOORD_0":3,"TEXCOORD_1":4,"TEXCOORD_2":5},"indices":6,"material":0,"mode":4}]}],"materials":[{"name":"GeneralMkIII","pbrMetallicRoughness":{"baseColorTexture":{"index":0},"metallicFactor":0,"roughnessFactor":1},"normalTexture":{"index":1}}],"textures":[{"sampler":0,"source":0},{"sampler":0,"source":1}],"images":[{"uri":"propaganda_trailer_a_01_dif.png"},{"uri":"propaganda_trailer_a_01_nrm.png"}],"samplers":[{"wrapS":10497,"wrapT":10497}],"accessors":[{"bufferView":0,"componentType":5126,"count":708,"type":"VEC3","min":[-1.0879099,-0.046655975,2.3003683],"max":[1.0982558,3.259651,2.4859972]},{"bufferView":1,"componentType":5126,"count":708,"type":"VEC3"},{"bufferView":2,"componentType":5126,"count":708,"type":"VEC4"},{"bufferView":3,"componentType":5126,"count":708,"type":"VEC2"},{"bufferView":4,"componentType":5126,"count":708,"type":"VEC2"},{"bufferView":5,"componentType":5126,"count":708,"type":"VEC2"},{"bufferView":6,"componentType":5125,"count":1398,"type":"SCALAR"}],"bufferViews":[{"buffer":0,"byteOffset":0,"byteLength":8496,"target":34962},{"buffer":0,"byteOffset":8496,"byteLength":8496,"target":34962},{"buffer":0,"byteOffset":16992,"byteLength":11328,"target":34962},{"buffer":0,"byteOffset":28320,"byteLength":5664,"target":34962},{"buffer":0,"byteOffset":33984,"byteLength":5664,"target":34962},{"buffer":0,"byteOffset":39648,"byteLength":5664,"target":34962},{"buffer":0,"byteOffset":45312,"byteLength":5592,"target":34963}],"buffers":[{"uri":"propaganda_trailer__propaganda_trailer_panel_front_lod1.bin","byteLength":50904}]}