{"asset":{"version":"2.0","generator":"RBMesh"},"scene":0,"scenes":[{"nodes":[0,1]}],"nodes":[{"mesh":0},{"mesh":1}],"meshes":[{"name":"GeneralMkIII_0","primitives":[{"attributes":{"POSITION":0,"NORMAL":1,"TANGENT":2,"TEXCOORD_0":3,"TEXCOORD_1":4,"TEXCOORD_2":5},"indices":6,"material":0,"mode":4}]},{"name":"GeneralMkIII_1","primitives":[{"attributes":{"POSITION":7,"NORMAL":8,"TANGENT":9,"TEXCOORD_0":10,"TEXCOORD_1":11,"TEXCOORD_2":12},"indices":13,"material":1,"mode":4}]}],"materials":[{"name":"GeneralMkIII","pbrMetallicRoughness":{"baseColorTexture":{"index":0},"metallicFactor":0,"roughnessFactor":1},"normalTexture":{"index":1}},{"name":"GeneralMkIII","pbrMetallicRoughness":{"baseColorTexture":{"index":2},"metallicFactor":0,"roughnessFactor":1},"normalTexture":{"index":3}}],"textures":[{"sampler":0,"source":0},{"sampler":0,"source":1},{"sampler":0,"source":2},{"sampler":0,"source":3}],"images":[{"uri":"propaganda_trailer_a_01_dif.png"},{"uri":"propaganda_trailer_a_01_nrm.png"},{"uri":"propaganda_trailer_a_02_dif.png"},{"uri":"propaganda_trailer_a_02_nrm.png"}],"samplers":[{"wrapS":10497,"wrapT":10497}],"accessors":[{"bufferView":0,"componentType":5126,"count":8,"type":"VEC3","min":[-0.96257865,0.06259901,-0.97523165],"max":[0.9680965,0.49165908,2.3898933]},{"bufferView":1,"componentType":5126,"count":8,"type":"VEC3"},{"bufferView":2,"componentType":5126,"count":8,"type":"VEC4"},{"bufferView":3,"componentType":5126,"count":8,"type":"VEC2"},{"bufferView":4,"componentType":5126,"count":8,"type":"VEC2"},{"bufferView":5,"componentType":5126,"count":8,"type":"VEC2"},{"bufferView":6,"componentType":5125,"count":12,"type":"SCALAR"},{"bufferView":7,"componentType":5126,"count":7216,"type":"VEC3","min":[-1.189952,0.0043762224,-2.313119],"max":[1.1989899,3.1172974,2.3898933]},{"bufferView":8,"componentType":5126,"count":7216,"type":"VEC3"},{"bufferView":9,"componentType":5126,"count":7216,"type":"VEC4"},{"bufferView":10,"componentType":5126,"count":7216,"type":"VEC2"},{"bufferView":11,"componentType":5126,"count":7216,"type":"VEC2"},{"bufferView":12,"componentType":5126,"count":7216,"type":"VEC2"},{"bufferView":13,"componentType":5125,"count":21996,"type":"SCALAR"}],"bufferViews":[{"buffer":0,"byteOffset":0,"byteLength":96,"target":34962},{"buffer":0,"byteOffset":96,"byteLength":96,"target":34962},{"buffer":0,"byteOffset":192,"byteLength":128,"target":34962},{"buffer":0,"byteOffset":320,"byteLength":64,"target":34962},{"buffer":0,"byteOffset":384,"byteLength":64,"target":34962},{"buffer":0,"byteOffset":448,"byteLength":64,"target":34962},{"buffer":0,"byteOffset":512,"byteLength":48,"target":34963},{"buffer":0,"byteOffset":560,"byteLength":86592,"target":34962},{"buffer":0,"byteOffset":87152,"byteLength":86592,"target":34962},{"buffer":0,"byteOffset":173744,"byteLength":115456,"target":34962},{"buffer":0,"byteOffset":289200,"byteLength":57728,"target":34962},{"buffer":0,"byteOffset":346928,"byteLength":57728,"target":34962},{"buffer":0,"byteOffset":404656,"byteLength":57728,"target":34962},{"buffer":0,"byteOffset":462384,"byteLength":87984,"target":34963}],"buffers":[{"uri":"propaganda_trailer__propaganda_trailer_projector_a_dest_b_lod1.bin","byteLength":550368}]}