{"asset":{"version":"2.0","generator":"RBMesh"},"scene":0,"scenes":[{"nodes":[0]}],"nodes":[{"mesh":0}],"meshes":[{"name":"GeneralMkIII_0","primitives":[{"attributes":{"POSITION":0,"NORMAL":1,"TANGENT":2,"TEXCOORD_0":3,"TEXCOORD_1":4,"TEXCOORD_2":5},"indices":6,"material":0,"mode":4}]}],"materials":[{"name":"GeneralMkIII","pbrMetallicRoughness":{"baseColorTexture":{"index":0},"metallicFactor":0,"roughnessFactor":1},"normalTexture":{"index":1}}],"textures":[{"sampler":0,"source":0},{"sampler":0,"source":1}],"images":[{"uri":"propaganda_trailer_a_01_dif.png"},{"uri":"propaganda_trailer_a_01_nrm.png"}],"samplers":[{"wrapS":10497,"wrapT":10497}],"accessors":[{"bufferView":0,"componentType":5126,"count":4543,"type":"VEC3","min":[-1.1456575,-0.07346467,-2.679287],"max":[1.1435928,3.5609717,2.7092814]},{"bufferView":1,"componentType":5126,"count":4543,"type":"VEC3"},{"bufferView":2,"componentType":5126,"count":4543,"type":"VEC4"},{"bufferView":3,"componentType":5126,"count":4543,"type":"VEC2"},{"bufferView":4,"componentType":5126,"count":4543,"type":"VEC2"},{"bufferView":5,"componentType":5126,"count":4543,"type":"VEC2"},{"bufferView":6,"componentType":5125,"count":9720,"type":"SCALAR"}],"bufferViews":[{"buffer":0,"byteOffset":0,"byteLength":54516,"target":34962},{"buffer":0,"byteOffset":54516,"byteLength":54516,"target":34962},{"buffer":0,"byteOffset":109032,"byteLength":72688,"target":34962},{"buffer":0,"byteOffset":181720,"byteLength":36344,"target":34962},{"buffer":0,"byteOffset":218064,"byteLength":36344,"target":34962},{"buffer":0,"byteOffset":254408,"byteLength":36344,"target":34962},{"buffer":0,"byteOffset":290752,"byteLength":38880,"target":34963}],"buffers":[{"uri":"propaganda_trailer__propaganda_trailer_base_lod1.bin","byteLength":329632}]}