{"asset":{"version":"2.0","generator":"RBMesh"},"scene":0,"scenes":[{"nodes":[0,1]}],"nodes":[{"mesh":0},{"mesh":1}],"meshes":[{"name":"GeneralMkIII_0","primitives":[{"attributes":{"POSITION":0,"NORMAL":1,"TANGENT":2,"TEXCOORD_0":3,"TEXCOORD_1":4,"TEXCOORD_2":5},"indices":6,"material":0,"mode":4}]},{"name":"GeneralMkIII_1","primitives":[{"attributes":{"POSITION":7,"NORMAL":8,"TANGENT":9,"TEXCOORD_0":10,"TEXCOORD_1":11,"TEXCOORD_2":12},"indices":13,"material":1,"mode":4}]}],"materials":[{"name":"GeneralMkIII","pbrMetallicRoughness":{"baseColorTexture":{"index":0},"metallicFactor":0,"roughnessFactor":1},"normalTexture":{"index":1}},{"name":"GeneralMkIII","pbrMetallicRoughness":{"baseColorTexture":{"index":2},"metallicFactor":0,"roughnessFactor":1},"normalTexture":{"index":3}}],"textures":[{"sampler":0,"source":0},{"sampler":0,"source":1},{"sampler":0,"source":2},{"sampler":0,"source":3}],"images":[{"uri":"ramp_towtruck_trailer_a_01_dif.png"},{"uri":"ramp_towtruck_trailer_a_01_nrm.png"},{"uri":"ramp_towtruck_trailer_a_02_dif.png"},{"uri":"ramp_towtruck_trailer_a_02_nrm.png"}],"samplers":[{"wrapS":10497,"wrapT":10497}],"accessors":[{"bufferView":0,"componentType":5126,"count":152,"type":"VEC3","min":[-1.033324,-0.18739076,-0.18739076],"max":[0.790122,0.18739076,0.18739076]},{"bufferView":1,"componentType":5126,"count":152,"type":"VEC3"},{"bufferView":2,"componentType":5126,"count":152,"type":"VEC4"},{"bufferView":3,"componentType":5126,"count":152,"type":"VEC2"},{"bufferView":4,"componentType":5126,"count":152,"type":"VEC2"},{"bufferView":5,"componentType":5126,"count":152,"type":"VEC2"},{"bufferView":6,"componentType":5125,"count":432,"type":"SCALAR"},{"bufferView":7,"componentType":5126,"count":425,"type":"VEC3","min":[-1.2432138,-0.12558481,-0.12558481],"max":[0.99997383,0.12558481,0.12558481]},{"bufferView":8,"componentType":5126,"count":425,"type":"VEC3"},{"bufferView":9,"componentType":5126,"count":425,"type":"VEC4"},{"bufferView":10,"componentType":5126,"count":425,"type":"VEC2"},{"bufferView":11,"componentType":5126,"count":425,"type":"VEC2"},{"bufferView":12,"componentType":5126,"count":425,"type":"VEC2"},{"bufferView":13,"componentType":5125,"count":1224,"type":"SCALAR"}],"bufferViews":[{"buffer":0,"byteOffset":0,"byteLength":1824,"target":34962},{"buffer":0,"byteOffset":1824,"byteLength":1824,"target":34962},{"buffer":0,"byteOffset":3648,"byteLength":2432,"target":34962},{"buffer":0,"byteOffset":6080,"byteLength":1216,"target":34962},{"buffer":0,"byteOffset":7296,"byteLength":1216,"target":34962},{"buffer":0,"byteOffset":8512,"byteLength":1216,"target":34962},{"buffer":0,"byteOffset":9728,"byteLength":1728,"target":34963},{"buffer":0,"byteOffset":11456,"byteLength":5100,"target":34962},{"buffer":0,"byteOffset":16556,"byteLength":5100,"target":34962},{"buffer":0,"byteOffset":21656,"byteLength":6800,"target":34962},{"buffer":0,"byteOffset":28456,"byteLength":3400,"target":34962},{"buffer":0,"byteOffset":31856,"byteLength":3400,"target":34962},{"buffer":0,"byteOffset":35256,"byteLength":3400,"target":34962},{"buffer":0,"byteOffset":38656,"byteLength":4896,"target":34963}],"buffers":[{"uri":"propaganda_trailer__flatbed_rear_axel_lod1.bin","byteLength":43552}]}