{"asset":{"version":"2.0","generator":"RBMesh"},"scene":0,"scenes":[{"nodes":[0]}],"nodes":[{"mesh":0}],"meshes":[{"name":"GeneralMkIII_0","primitives":[{"attributes":{"POSITION":0,"NORMAL":1,"TANGENT":2,"TEXCOORD_0":3,"TEXCOORD_1":4,"TEXCOORD_2":5},"indices":6,"material":0,"mode":4}]}],"materials":[{"name":"GeneralMkIII","pbrMetallicRoughness":{"baseColorTexture":{"index":0},"metallicFactor":0,"roughnessFactor":1},"normalTexture":{"index":1}}],"textures":[{"sampler":0,"source":0},{"sampler":0,"source":1}],"images":[{"uri":"propaganda_trailer_a_01_dif.png"},{"uri":"propaganda_trailer_a_01_nrm.png"}],"samplers":[{"wrapS":10497,"wrapT":10497}],"accessors":[{"bufferView":0,"componentType":5126,"count":389,"type":"VEC3","min":[-0.9520222,-1.0136446,-0.073996335],"max":[0.013240146,0.9927325,0.050887946]},{"bufferView":1,"componentType":5126,"count":389,"type":"VEC3"},{"bufferView":2,"componentType":5126,"count":389,"type":"VEC4"},{"bufferView":3,"componentType":5126,"count":389,"type":"VEC2"},{"bufferView":4,"componentType":5126,"count":389,"type":"VEC2"},{"bufferView":5,"componentType":5126,"count":389,"type":"VEC2"},{"bufferView":6,"componentType":5125,"count":1044,"type":"SCALAR"}],"bufferViews":[{"buffer":0,"byteOffset":0,"byteLength":4668,"target":34962},{"buffer":0,"byteOffset":4668,"byteLength":4668,"target":34962},{"buffer":0,"byteOffset":9336,"byteLength":6224,"target":34962},{"buffer":0,"byteOffset":15560,"byteLength":3112,"target":34962},{"buffer":0,"byteOffset":18672,"byteLength":3112,"target":34962},{"buffer":0,"byteOffset":21784,"byteLength":3112,"target":34962},{"buffer":0,"byteOffset":24896,"byteLength":4176,"target":34963}],"buffers":[{"uri":"propaganda_trailer__propaganda_trailer_door_rear_l_lod1.bin","byteLength":29072}]}