{"asset":{"version":"2.0","generator":"RBMesh"},"scene":0,"scenes":[{"nodes":[0,1]}],"nodes":[{"mesh":0},{"mesh":1}],"meshes":[{"name":"GeneralMkIII_0","primitives":[{"attributes":{"POSITION":0,"NORMAL":1,"TANGENT":2,"TEXCOORD_0":3,"TEXCOORD_1":4,"TEXCOORD_2":5},"indices":6,"material":0,"mode":4}]},{"name":"GeneralMkIII_1","primitives":[{"attributes":{"POSITION":7,"NORMAL":8,"TANGENT":9,"TEXCOORD_0":10,"TEXCOORD_1":11,"TEXCOORD_2":12},"indices":13,"material":1,"mode":4}]}],"materials":[{"name":"GeneralMkIII","pbrMetallicRoughness":{"baseColorTexture":{"index":0},"metallicFactor":0,"roughnessFactor":1},"normalTexture":{"index":1}},{"name":"GeneralMkIII","pbrMetallicRoughness":{"baseColorTexture":{"index":2},"metallicFactor":0,"roughnessFactor":1},"normalTexture":{"index":3}}],"textures":[{"sampler":0,"source":0},{"sampler":0,"source":1},{"sampler":0,"source":2},{"sampler":0,"source":3}],"images":[{"uri":"ramp_towtruck_trailer_a_01_dif.png"},{"uri":"ramp_towtruck_trailer_a_01_nrm.png"},{"uri":"ramp_towtruck_trailer_a_02_dif.png"},{"uri":"ramp_towtruck_trailer_a_02_nrm.png"}],"samplers":[{"wrapS":10497,"wrapT":10497}],"accessors":[{"bufferView":0,"componentType":5126,"count":1267,"type":"VEC3","min":[-1.5201981,-0.24108757,-3.9999197],"max":[1.5201981,0.2626813,4.1621265]},{"bufferView":1,"componentType":5126,"count":1267,"type":"VEC3"},{"bufferView":2,"componentType":5126,"count":1267,"type":"VEC4"},{"bufferView":3,"componentType":5126,"count":1267,"type":"VEC2"},{"bufferView":4,"componentType":5126,"count":1267,"type":"VEC2"},{"bufferView":5,"componentType":5126,"count":1267,"type":"VEC2"},{"bufferView":6,"componentType":5125,"count":2964,"type":"SCALAR"},{"bufferView":7,"componentType":5126,"count":2558,"type":"VEC3","min":[-1.4998746,-0.90376085,-3.985058],"max":[1.4998746,0.4553735,3.986201]},{"bufferView":8,"componentType":5126,"count":2558,"type":"VEC3"},{"bufferView":9,"componentType":5126,"count":2558,"type":"VEC4"},{"bufferView":10,"componentType":5126,"count":2558,"type":"VEC2"},{"bufferView":11,"componentType":5126,"count":2558,"type":"VEC2"},{"bufferView":12,"componentType":5126,"count":2558,"type":"VEC2"},{"bufferView":13,"componentType":5125,"count":5610,"type":"SCALAR"}],"bufferViews":[{"buffer":0,"byteOffset":0,"byteLength":15204,"target":34962},{"buffer":0,"byteOffset":15204,"byteLength":15204,"target":34962},{"buffer":0,"byteOffset":30408,"byteLength":20272,"target":34962},{"buffer":0,"byteOffset":50680,"byteLength":10136,"target":34962},{"buffer":0,"byteOffset":60816,"byteLength":10136,"target":34962},{"buffer":0,"byteOffset":70952,"byteLength":10136,"target":34962},{"buffer":0,"byteOffset":81088,"byteLength":11856,"target":34963},{"buffer":0,"byteOffset":92944,"byteLength":30696,"target":34962},{"buffer":0,"byteOffset":123640,"byteLength":30696,"target":34962},{"buffer":0,"byteOffset":154336,"byteLength":40928,"target":34962},{"buffer":0,"byteOffset":195264,"byteLength":20464,"target":34962},{"buffer":0,"byteOffset":215728,"byteLength":20464,"target":34962},{"buffer":0,"byteOffset":236192,"byteLength":20464,"target":34962},{"buffer":0,"byteOffset":256656,"byteLength":22440,"target":34963}],"buffers":[{"uri":"propaganda_trailer__flatbed_chassis_lod1.bin","byteLength":279096}]}