{"asset":{"version":"2.0","generator":"RBMesh"},"scene":0,"scenes":[{"nodes":[0]}],"nodes":[{"mesh":0}],"meshes":[{"name":"General_0","primitives":[{"attributes":{"POSITION":0,"NORMAL":1,"TANGENT":2,"TEXCOORD_0":3,"TEXCOORD_1":4,"TEXCOORD_2":5},"indices":6,"material":0,"mode":4}]}],"materials":[{"name":"General","pbrMetallicRoughness":{"baseColorTexture":{"index":0},"metallicFactor":0,"roughnessFactor":1},"normalTexture":{"index":1}}],"textures":[{"sampler":0,"source":0},{"sampler":0,"source":1}],"images":[{"uri":"dummy_dif.png"},{"uri":"dummy_nrm.png"}],"samplers":[{"wrapS":10497,"wrapT":10497}],"accessors":[{"bufferView":0,"componentType":5126,"count":295,"type":"VEC3","min":[-1.0354619,0.350781,-2.2180924],"max":[1.0354619,2.836634,-0.8508084]},{"bufferView":1,"componentType":5126,"count":295,"type":"VEC3"},{"bufferView":2,"componentType":5126,"count":295,"type":"VEC4"},{"bufferView":3,"componentType":5126,"count":295,"type":"VEC2"},{"bufferView":4,"componentType":5126,"count":295,"type":"VEC2"},{"bufferView":5,"componentType":5126,"count":295,"type":"VEC2"},{"bufferView":6,"componentType":5125,"count":444,"type":"SCALAR"}],"bufferViews":[{"buffer":0,"byteOffset":0,"byteLength":3540,"target":34962},{"buffer":0,"byteOffset":3540,"byteLength":3540,"target":34962},{"buffer":0,"byteOffset":7080,"byteLength":4720,"target":34962},{"buffer":0,"byteOffset":11800,"byteLength":2360,"target":34962},{"buffer":0,"byteOffset":14160,"byteLength":2360,"target":34962},{"buffer":0,"byteOffset":16520,"byteLength":2360,"target":34962},{"buffer":0,"byteOffset":18880,"byteLength":1776,"target":34963}],"buffers":[{"uri":"propaganda_trailer__propaganda_trailer_electrical_01_lod1.bin","byteLength":20656}]}