{"asset":{"version":"2.0","generator":"RBMesh"},"scene":0,"scenes":[{"nodes":[0]}],"nodes":[{"mesh":0}],"meshes":[{"name":"General_0","primitives":[{"attributes":{"POSITION":0,"NORMAL":1,"TANGENT":2,"TEXCOORD_0":3,"TEXCOORD_1":4,"TEXCOORD_2":5},"indices":6,"material":0,"mode":4}]}],"materials":[{"name":"General","pbrMetallicRoughness":{"baseColorTexture":{"index":0},"metallicFactor":0,"roughnessFactor":1},"normalTexture":{"index":1}}],"textures":[{"sampler":0,"source":0},{"sampler":0,"source":1}],"images":[{"uri":"dummy_dif.png"},{"uri":"dummy_nrm.png"}],"samplers":[{"wrapS":10497,"wrapT":10497}],"accessors":[{"bufferView":0,"componentType":5126,"count":134,"type":"VEC3","min":[-0.60588366,-0.32426813,-0.20952281],"max":[0.609773,0.16930798,0.014515303]},{"bufferView":1,"componentType":5126,"count":134,"type":"VEC3"},{"bufferView":2,"componentType":5126,"count":134,"type":"VEC4"},{"bufferView":3,"componentType":5126,"count":134,"type":"VEC2"},{"bufferView":4,"componentType":5126,"count":134,"type":"VEC2"},{"bufferView":5,"componentType":5126,"count":134,"type":"VEC2"},{"bufferView":6,"componentType":5125,"count":288,"type":"SCALAR"}],"bufferViews":[{"buffer":0,"byteOffset":0,"byteLength":1608,"target":34962},{"buffer":0,"byteOffset":1608,"byteLength":1608,"target":34962},{"buffer":0,"byteOffset":3216,"byteLength":2144,"target":34962},{"buffer":0,"byteOffset":5360,"byteLength":1072,"target":34962},{"buffer":0,"byteOffset":6432,"byteLength":1072,"target":34962},{"buffer":0,"byteOffset":7504,"byteLength":1072,"target":34962},{"buffer":0,"byteOffset":8576,"byteLength":1152,"target":34963}],"buffers":[{"uri":"propaganda_trailer__propaganda_trailer_wing_front_dest_hatch_lod1.bin","byteLength":9728}]}