{"asset":{"version":"2.0","generator":"RBMesh"},"scene":0,"scenes":[{"nodes":[0]}],"nodes":[{"mesh":0}],"meshes":[{"name":"GeneralMkIII_0","primitives":[{"attributes":{"POSITION":0,"NORMAL":1,"TANGENT":2,"TEXCOORD_0":3,"TEXCOORD_1":4,"TEXCOORD_2":5},"indices":6,"material":0,"mode":4}]}],"materials":[{"name":"GeneralMkIII","pbrMetallicRoughness":{"baseColorTexture":{"index":0},"metallicFactor":0,"roughnessFactor":1},"normalTexture":{"index":1}}],"textures":[{"sampler":0,"source":0},{"sampler":0,"source":1}],"images":[{"uri":"atlas_metal_01_dif.png"},{"uri":"atlas_metal_01_nrm.png"}],"samplers":[{"wrapS":10497,"wrapT":10497}],"accessors":[{"bufferView":0,"componentType":5126,"count":294,"type":"VEC3","min":[-1.0423816,-0.039123483,-2.4763749],"max":[1.0423816,3.0890582,-2.2553039]},{"bufferView":1,"componentType":5126,"count":294,"type":"VEC3"},{"bufferView":2,"componentType":5126,"count":294,"type":"VEC4"},{"bufferView":3,"componentType":5126,"count":294,"type":"VEC2"},{"bufferView":4,"componentType":5126,"count":294,"type":"VEC2"},{"bufferView":5,"componentType":5126,"count":294,"type":"VEC2"},{"bufferView":6,"componentType":5125,"count":480,"type":"SCALAR"}],"bufferViews":[{"buffer":0,"byteOffset":0,"byteLength":3528,"target":34962},{"buffer":0,"byteOffset":3528,"byteLength":3528,"target":34962},{"buffer":0,"byteOffset":7056,"byteLength":4704,"target":34962},{"buffer":0,"byteOffset":11760,"byteLength":2352,"target":34962},{"buffer":0,"byteOffset":14112,"byteLength":2352,"target":34962},{"buffer":0,"byteOffset":16464,"byteLength":2352,"target":34962},{"buffer":0,"byteOffset":18816,"byteLength":1920,"target":34963}],"buffers":[{"uri":"propaganda_trailer__propaganda_trailer_panel_rear_lod1.bin","byteLength":20736}]}