{"asset":{"version":"2.0","generator":"RBMesh"},"scene":0,"scenes":[{"nodes":[0]}],"nodes":[{"mesh":0}],"meshes":[{"name":"GeneralMkIII_0","primitives":[{"attributes":{"POSITION":0,"NORMAL":1,"TANGENT":2,"TEXCOORD_0":3,"TEXCOORD_1":4,"TEXCOORD_2":5},"indices":6,"material":0,"mode":4}]}],"materials":[{"name":"GeneralMkIII","pbrMetallicRoughness":{"baseColorTexture":{"index":0},"metallicFactor":0,"roughnessFactor":1},"normalTexture":{"index":1}}],"textures":[{"sampler":0,"source":0},{"sampler":0,"source":1}],"images":[{"uri":"ramp_towtruck_trailer_a_02_dif.png"},{"uri":"ramp_towtruck_trailer_a_02_nrm.png"}],"samplers":[{"wrapS":10497,"wrapT":10497}],"accessors":[{"bufferView":0,"componentType":5126,"count":460,"type":"VEC3","min":[-0.32322454,-0.5201404,-0.52012455],"max":[0.32324043,0.5201404,0.52012455]},{"bufferView":1,"componentType":5126,"count":460,"type":"VEC3"},{"bufferView":2,"componentType":5126,"count":460,"type":"VEC4"},{"bufferView":3,"componentType":5126,"count":460,"type":"VEC2"},{"bufferView":4,"componentType":5126,"count":460,"type":"VEC2"},{"bufferView":5,"componentType":5126,"count":460,"type":"VEC2"},{"bufferView":6,"componentType":5125,"count":1770,"type":"SCALAR"}],"bufferViews":[{"buffer":0,"byteOffset":0,"byteLength":5520,"target":34962},{"buffer":0,"byteOffset":5520,"byteLength":5520,"target":34962},{"buffer":0,"byteOffset":11040,"byteLength":7360,"target":34962},{"buffer":0,"byteOffset":18400,"byteLength":3680,"target":34962},{"buffer":0,"byteOffset":22080,"byteLength":3680,"target":34962},{"buffer":0,"byteOffset":25760,"byteLength":3680,"target":34962},{"buffer":0,"byteOffset":29440,"byteLength":7080,"target":34963}],"buffers":[{"uri":"propaganda_trailer__flatbed_wheel_lod1.bin","byteLength":36520}]}