{"asset":{"version":"2.0","generator":"RBMesh"},"scene":0,"scenes":[{"nodes":[0,1]}],"nodes":[{"mesh":0},{"mesh":1}],"meshes":[{"name":"GeneralMkIII_0","primitives":[{"attributes":{"POSITION":0,"NORMAL":1,"TANGENT":2,"TEXCOORD_0":3,"TEXCOORD_1":4,"TEXCOORD_2":5},"indices":6,"material":0,"mode":4}]},{"name":"General_1","primitives":[{"attributes":{"POSITION":7,"NORMAL":8,"TANGENT":9,"TEXCOORD_0":10,"TEXCOORD_1":11,"TEXCOORD_2":12},"indices":13,"material":1,"mode":4}]}],"materials":[{"name":"GeneralMkIII","pbrMetallicRoughness":{"baseColorTexture":{"index":0},"metallicFactor":0,"roughnessFactor":1},"normalTexture":{"index":1}},{"name":"General","pbrMetallicRoughness":{"baseColorTexture":{"index":2},"metallicFactor":0,"roughnessFactor":1},"normalTexture":{"index":3}}],"textures":[{"sampler":0,"source":0},{"sampler":0,"source":1},{"sampler":0,"source":2},{"sampler":0,"source":3}],"images":[{"uri":"atlas_metal_01_dif.png"},{"uri":"atlas_metal_01_nrm.png"},{"uri":"dummy_dif.png"},{"uri":"dummy_nrm.png"}],"samplers":[{"wrapS":10497,"wrapT":10497}],"accessors":[{"bufferView":0,"componentType":5126,"count":20,"type":"VEC3","min":[-0.6858502,3.2592375,-2.2823036],"max":[0.6858502,3.268039,2.3281343]},{"bufferView":1,"componentType":5126,"count":20,"type":"VEC3"},{"bufferView":2,"componentType":5126,"count":20,"type":"VEC4"},{"bufferView":3,"componentType":5126,"count":20,"type":"VEC2"},{"bufferView":4,"componentType":5126,"count":20,"type":"VEC2"},{"bufferView":5,"componentType":5126,"count":20,"type":"VEC2"},{"bufferView":6,"componentType":5125,"count":30,"type":"SCALAR"},{"bufferView":7,"componentType":5126,"count":118,"type":"VEC3","min":[-1.0712788,3.0929806,-2.4628358],"max":[1.093067,3.516834,2.4956791]},{"bufferView":8,"componentType":5126,"count":118,"type":"VEC3"},{"bufferView":9,"componentType":5126,"count":118,"type":"VEC4"},{"bufferView":10,"componentType":5126,"count":118,"type":"VEC2"},{"bufferView":11,"componentType":5126,"count":118,"type":"VEC2"},{"bufferView":12,"componentType":5126,"count":118,"type":"VEC2"},{"bufferView":13,"componentType":5125,"count":348,"type":"SCALAR"}],"bufferViews":[{"buffer":0,"byteOffset":0,"byteLength":240,"target":34962},{"buffer":0,"byteOffset":240,"byteLength":240,"target":34962},{"buffer":0,"byteOffset":480,"byteLength":320,"target":34962},{"buffer":0,"byteOffset":800,"byteLength":160,"target":34962},{"buffer":0,"byteOffset":960,"byteLength":160,"target":34962},{"buffer":0,"byteOffset":1120,"byteLength":160,"target":34962},{"buffer":0,"byteOffset":1280,"byteLength":120,"target":34963},{"buffer":0,"byteOffset":1400,"byteLength":1416,"target":34962},{"buffer":0,"byteOffset":2816,"byteLength":1416,"target":34962},{"buffer":0,"byteOffset":4232,"byteLength":1888,"target":34962},{"buffer":0,"byteOffset":6120,"byteLength":944,"target":34962},{"buffer":0,"byteOffset":7064,"byteLength":944,"target":34962},{"buffer":0,"byteOffset":8008,"byteLength":944,"target":34962},{"buffer":0,"byteOffset":8952,"byteLength":1392,"target":34963}],"buffers":[{"uri":"propaganda_trailer__propaganda_trailer_roof_lod1.bin","byteLength":10344}]}