{"asset":{"version":"2.0","generator":"RBMesh"},"scene":0,"scenes":[{"nodes":[0,1,2]}],"nodes":[{"mesh":0},{"mesh":1},{"mesh":2}],"meshes":[{"name":"GeneralMkIII_0","primitives":[{"attributes":{"POSITION":0,"NORMAL":1,"TANGENT":2,"TEXCOORD_0":3,"TEXCOORD_1":4,"TEXCOORD_2":5},"indices":6,"material":0,"mode":4}]},{"name":"GeneralMkIII_1","primitives":[{"attributes":{"POSITION":7,"NORMAL":8,"TANGENT":9,"TEXCOORD_0":10,"TEXCOORD_1":11,"TEXCOORD_2":12},"indices":13,"material":1,"mode":4}]},{"name":"GeneralMkIII_2","primitives":[{"attributes":{"POSITION":14,"NORMAL":15,"TANGENT":16,"TEXCOORD_0":17,"TEXCOORD_1":18,"TEXCOORD_2":19},"indices":20,"material":2,"mode":4}]}],"materials":[{"name":"GeneralMkIII","pbrMetallicRoughness":{"baseColorTexture":{"index":0},"metallicFactor":0,"roughnessFactor":1},"normalTexture":{"index":1}},{"name":"GeneralMkIII","pbrMetallicRoughness":{"baseColorTexture":{"index":2},"metallicFactor":0,"roughnessFactor":1},"normalTexture":{"index":3}},{"name":"GeneralMkIII","pbrMetallicRoughness":{"baseColorTexture":{"index":4},"metallicFactor":0,"roughnessFactor":1},"normalTexture":{"index":5}}],"textures":[{"sampler":0,"source":0},{"sampler":0,"source":1},{"sampler":0,"source":2},{"sampler":0,"source":3},{"sampler":0,"source":4},{"sampler":0,"source":5}],"images":[{"uri":"playground_kit_alpha_dif.png"},{"uri":"playground_kit_nrm.png"},{"uri":"ramp_towtruck_trailer_a_01_dif.png"},{"uri":"ramp_towtruck_trailer_a_01_nrm.png"},{"uri":"ramp_towtruck_trailer_a_02_dif.png"},{"uri":"ramp_towtruck_trailer_a_02_nrm.png"}],"samplers":[{"wrapS":10497,"wrapT":10497}],"accessors":[{"bufferView":0,"componentType":5126,"count":320,"type":"VEC3","min":[-0.039254505,-0.5317616,-1.4313693],"max":[0.04275394,0.07282877,0.012932685]},{"bufferView":1,"componentType":5126,"count":320,"type":"VEC3"},{"bufferView":2,"componentType":5126,"count":320,"type":"VEC4"},{"bufferView":3,"componentType":5126,"count":320,"type":"VEC2"},{"bufferView":4,"componentType":5126,"count":320,"type":"VEC2"},{"bufferView":5,"componentType":5126,"count":320,"type":"VEC2"},{"bufferView":6,"componentType":5125,"count":792,"type":"SCALAR"},{"bufferView":7,"componentType":5126,"count":130,"type":"VEC3","min":[-0.51887965,-0.07470527,-0.12324089],"max":[0.51887965,0.12085722,0.07232161]},{"bufferView":8,"componentType":5126,"count":130,"type":"VEC3"},{"bufferView":9,"componentType":5126,"count":130,"type":"VEC4"},{"bufferView":10,"componentType":5126,"count":130,"type":"VEC2"},{"bufferView":11,"componentType":5126,"count":130,"type":"VEC2"},{"bufferView":12,"componentType":5126,"count":130,"type":"VEC2"},{"bufferView":13,"componentType":5125,"count":360,"type":"SCALAR"},{"bufferView":14,"componentType":5126,"count":772,"type":"VEC3","min":[-0.5028532,-0.52227765,-1.6618247],"max":[0.5028532,0.08890587,0.04889062]},{"bufferView":15,"componentType":5126,"count":772,"type":"VEC3"},{"bufferView":16,"componentType":5126,"count":772,"type":"VEC4"},{"bufferView":17,"componentType":5126,"count":772,"type":"VEC2"},{"bufferView":18,"componentType":5126,"count":772,"type":"VEC2"},{"bufferView":19,"componentType":5126,"count":772,"type":"VEC2"},{"bufferView":20,"componentType":5125,"count":1542,"type":"SCALAR"}],"bufferViews":[{"buffer":0,"byteOffset":0,"byteLength":3840,"target":34962},{"buffer":0,"byteOffset":3840,"byteLength":3840,"target":34962},{"buffer":0,"byteOffset":7680,"byteLength":5120,"target":34962},{"buffer":0,"byteOffset":12800,"byteLength":2560,"target":34962},{"buffer":0,"byteOffset":15360,"byteLength":2560,"target":34962},{"buffer":0,"byteOffset":17920,"byteLength":2560,"target":34962},{"buffer":0,"byteOffset":20480,"byteLength":3168,"target":34963},{"buffer":0,"byteOffset":23648,"byteLength":1560,"target":34962},{"buffer":0,"byteOffset":25208,"byteLength":1560,"target":34962},{"buffer":0,"byteOffset":26768,"byteLength":2080,"target":34962},{"buffer":0,"byteOffset":28848,"byteLength":1040,"target":34962},{"buffer":0,"byteOffset":29888,"byteLength":1040,"target":34962},{"buffer":0,"byteOffset":30928,"byteLength":1040,"target":34962},{"buffer":0,"byteOffset":31968,"byteLength":1440,"target":34963},{"buffer":0,"byteOffset":33408,"byteLength":9264,"target":34962},{"buffer":0,"byteOffset":42672,"byteLength":9264,"target":34962},{"buffer":0,"byteOffset":51936,"byteLength":12352,"target":34962},{"buffer":0,"byteOffset":64288,"byteLength":6176,"target":34962},{"buffer":0,"byteOffset":70464,"byteLength":6176,"target":34962},{"buffer":0,"byteOffset":76640,"byteLength":6176,"target":34962},{"buffer":0,"byteOffset":82816,"byteLength":6168,"target":34963}],"buffers":[{"uri":"propaganda_trailer__flatbed_front_connector_lod1.bin","byteLength":88984}]}