{"asset":{"version":"2.0","generator":"RBMesh"},"scene":0,"scenes":[{"nodes":[0]}],"nodes":[{"mesh":0}],"meshes":[{"name":"GeneralMkIII_0","primitives":[{"attributes":{"POSITION":0,"NORMAL":1,"TANGENT":2,"TEXCOORD_0":3,"TEXCOORD_1":4,"TEXCOORD_2":5},"indices":6,"material":0,"mode":4}]}],"materials":[{"name":"GeneralMkIII","pbrMetallicRoughness":{"baseColorTexture":{"index":0},"metallicFactor":0,"roughnessFactor":1},"normalTexture":{"index":1}}],"textures":[{"sampler":0,"source":0},{"sampler":0,"source":1}],"images":[{"uri":"propaganda_trailer_a_02_dif.png"},{"uri":"propaganda_trailer_a_02_nrm.png"}],"samplers":[{"wrapS":10497,"wrapT":10497}],"accessors":[{"bufferView":0,"componentType":5126,"count":1212,"type":"VEC3","min":[-0.9897336,-0.20080413,-0.4646465],"max":[0.5789429,0.19730031,0.4740705]},{"bufferView":1,"componentType":5126,"count":1212,"type":"VEC3"},{"bufferView":2,"componentType":5126,"count":1212,"type":"VEC4"},{"bufferView":3,"componentType":5126,"count":1212,"type":"VEC2"},{"bufferView":4,"componentType":5126,"count":1212,"type":"VEC2"},{"bufferView":5,"componentType":5126,"count":1212,"type":"VEC2"},{"bufferView":6,"componentType":5125,"count":3360,"type":"SCALAR"}],"bufferViews":[{"buffer":0,"byteOffset":0,"byteLength":14544,"target":34962},{"buffer":0,"byteOffset":14544,"byteLength":14544,"target":34962},{"buffer":0,"byteOffset":29088,"byteLength":19392,"target":34962},{"buffer":0,"byteOffset":48480,"byteLength":9696,"target":34962},{"buffer":0,"byteOffset":58176,"byteLength":9696,"target":34962},{"buffer":0,"byteOffset":67872,"byteLength":9696,"target":34962},{"buffer":0,"byteOffset":77568,"byteLength":13440,"target":34963}],"buffers":[{"uri":"propaganda_trailer__propaganda_trailer_projector_a_dest_a_lod1.bin","byteLength":91008}]}