{"asset":{"version":"2.0","generator":"RBMesh"},"scene":0,"scenes":[{"nodes":[0,1]}],"nodes":[{"mesh":0},{"mesh":1}],"meshes":[{"name":"GeneralMkIII_0","primitives":[{"attributes":{"POSITION":0,"NORMAL":1,"TANGENT":2,"TEXCOORD_0":3,"TEXCOORD_1":4,"TEXCOORD_2":5},"indices":6,"material":0,"mode":4}]},{"name":"GeneralMkIII_1","primitives":[{"attributes":{"POSITION":7,"NORMAL":8,"TANGENT":9,"TEXCOORD_0":10,"TEXCOORD_1":11,"TEXCOORD_2":12},"indices":13,"material":1,"mode":4}]}],"materials":[{"name":"GeneralMkIII","pbrMetallicRoughness":{"baseColorTexture":{"index":0},"metallicFactor":0,"roughnessFactor":1},"normalTexture":{"index":1}},{"name":"GeneralMkIII","pbrMetallicRoughness":{"baseColorTexture":{"index":2},"metallicFactor":0,"roughnessFactor":1},"normalTexture":{"index":3}}],"textures":[{"sampler":0,"source":0},{"sampler":0,"source":1},{"sampler":0,"source":2},{"sampler":0,"source":3}],"images":[{"uri":"ramp_towtruck_trailer_a_01_dif.png"},{"uri":"ramp_towtruck_trailer_a_01_nrm.png"},{"uri":"ramp_towtruck_trailer_a_02_dif.png"},{"uri":"ramp_towtruck_trailer_a_02_nrm.png"}],"samplers":[{"wrapS":10497,"wrapT":10497}],"accessors":[{"bufferView":0,"componentType":5126,"count":152,"type":"VEC3","min":[-1.0333252,-0.118762344,-0.21131206],"max":[1.0333252,0.25597608,0.16342637]},{"bufferView":1,"componentType":5126,"count":152,"type":"VEC3"},{"bufferView":2,"componentType":5126,"count":152,"type":"VEC4"},{"bufferView":3,"componentType":5126,"count":152,"type":"VEC2"},{"bufferView":4,"componentType":5126,"count":152,"type":"VEC2"},{"bufferView":5,"componentType":5126,"count":152,"type":"VEC2"},{"bufferView":6,"componentType":5125,"count":432,"type":"SCALAR"},{"bufferView":7,"componentType":5126,"count":953,"type":"VEC3","min":[-1.2431729,-0.056964926,-1.5994599],"max":[1.2431729,0.3245097,1.1553581]},{"bufferView":8,"componentType":5126,"count":953,"type":"VEC3"},{"bufferView":9,"componentType":5126,"count":953,"type":"VEC4"},{"bufferView":10,"componentType":5126,"count":953,"type":"VEC2"},{"bufferView":11,"componentType":5126,"count":953,"type":"VEC2"},{"bufferView":12,"componentType":5126,"count":953,"type":"VEC2"},{"bufferView":13,"componentType":5125,"count":2256,"type":"SCALAR"}],"bufferViews":[{"buffer":0,"byteOffset":0,"byteLength":1824,"target":34962},{"buffer":0,"byteOffset":1824,"byteLength":1824,"target":34962},{"buffer":0,"byteOffset":3648,"byteLength":2432,"target":34962},{"buffer":0,"byteOffset":6080,"byteLength":1216,"target":34962},{"buffer":0,"byteOffset":7296,"byteLength":1216,"target":34962},{"buffer":0,"byteOffset":8512,"byteLength":1216,"target":34962},{"buffer":0,"byteOffset":9728,"byteLength":1728,"target":34963},{"buffer":0,"byteOffset":11456,"byteLength":11436,"target":34962},{"buffer":0,"byteOffset":22892,"byteLength":11436,"target":34962},{"buffer":0,"byteOffset":34328,"byteLength":15248,"target":34962},{"buffer":0,"byteOffset":49576,"byteLength":7624,"target":34962},{"buffer":0,"byteOffset":57200,"byteLength":7624,"target":34962},{"buffer":0,"byteOffset":64824,"byteLength":7624,"target":34962},{"buffer":0,"byteOffset":72448,"byteLength":9024,"target":34963}],"buffers":[{"uri":"propaganda_trailer__flatbed_front_axel_lod1.bin","byteLength":81472}]}