{"asset":{"version":"2.0","generator":"RBMesh"},"scene":0,"scenes":[{"nodes":[0]}],"nodes":[{"mesh":0}],"meshes":[{"name":"GeneralMkIII_0","primitives":[{"attributes":{"POSITION":0,"NORMAL":1,"TANGENT":2,"TEXCOORD_0":3,"TEXCOORD_1":4,"TEXCOORD_2":5},"indices":6,"material":0,"mode":4}]}],"materials":[{"name":"GeneralMkIII","pbrMetallicRoughness":{"baseColorTexture":{"index":0},"metallicFactor":0,"roughnessFactor":1},"normalTexture":{"index":1}}],"textures":[{"sampler":0,"source":0},{"sampler":0,"source":1}],"images":[{"uri":"atlas_metal_01_dif.png"},{"uri":"atlas_metal_01_nrm.png"}],"samplers":[{"wrapS":10497,"wrapT":10497}],"accessors":[{"bufferView":0,"componentType":5126,"count":446,"type":"VEC3","min":[-1.1198813,0.353831,-2.4690573],"max":[-1.0444591,3.1008239,2.4677322]},{"bufferView":1,"componentType":5126,"count":446,"type":"VEC3"},{"bufferView":2,"componentType":5126,"count":446,"type":"VEC4"},{"bufferView":3,"componentType":5126,"count":446,"type":"VEC2"},{"bufferView":4,"componentType":5126,"count":446,"type":"VEC2"},{"bufferView":5,"componentType":5126,"count":446,"type":"VEC2"},{"bufferView":6,"componentType":5125,"count":714,"type":"SCALAR"}],"bufferViews":[{"buffer":0,"byteOffset":0,"byteLength":5352,"target":34962},{"buffer":0,"byteOffset":5352,"byteLength":5352,"target":34962},{"buffer":0,"byteOffset":10704,"byteLength":7136,"target":34962},{"buffer":0,"byteOffset":17840,"byteLength":3568,"target":34962},{"buffer":0,"byteOffset":21408,"byteLength":3568,"target":34962},{"buffer":0,"byteOffset":24976,"byteLength":3568,"target":34962},{"buffer":0,"byteOffset":28544,"byteLength":2856,"target":34963}],"buffers":[{"uri":"propaganda_trailer__propaganda_trailer_panel_r_lod1.bin","byteLength":31400}]}