{"asset":{"version":"2.0","generator":"RBMesh"},"scene":0,"scenes":[{"nodes":[0]}],"nodes":[{"mesh":0}],"meshes":[{"name":"GeneralMkIII_0","primitives":[{"attributes":{"POSITION":0,"NORMAL":1,"TANGENT":2,"TEXCOORD_0":3,"TEXCOORD_1":4,"TEXCOORD_2":5},"indices":6,"material":0,"mode":4}]}],"materials":[{"name":"GeneralMkIII","pbrMetallicRoughness":{"baseColorTexture":{"index":0},"metallicFactor":0,"roughnessFactor":1},"normalTexture":{"index":1}}],"textures":[{"sampler":0,"source":0},{"sampler":0,"source":1}],"images":[{"uri":"atlas_metal_01_dif.png"},{"uri":"atlas_metal_01_nrm.png"}],"samplers":[{"wrapS":10497,"wrapT":10497}],"accessors":[{"bufferView":0,"componentType":5126,"count":444,"type":"VEC3","min":[1.0444591,0.353831,-2.4690573],"max":[1.1736326,3.1008239,2.4677322]},{"bufferView":1,"componentType":5126,"count":444,"type":"VEC3"},{"bufferView":2,"componentType":5126,"count":444,"type":"VEC4"},{"bufferView":3,"componentType":5126,"count":444,"type":"VEC2"},{"bufferView":4,"componentType":5126,"count":444,"type":"VEC2"},{"bufferView":5,"componentType":5126,"count":444,"type":"VEC2"},{"bufferView":6,"componentType":5125,"count":696,"type":"SCALAR"}],"bufferViews":[{"buffer":0,"byteOffset":0,"byteLength":5328,"target":34962},{"buffer":0,"byteOffset":5328,"byteLength":5328,"target":34962},{"buffer":0,"byteOffset":10656,"byteLength":7104,"target":34962},{"buffer":0,"byteOffset":17760,"byteLength":3552,"target":34962},{"buffer":0,"byteOffset":21312,"byteLength":3552,"target":34962},{"buffer":0,"byteOffset":24864,"byteLength":3552,"target":34962},{"buffer":0,"byteOffset":28416,"byteLength":2784,"target":34963}],"buffers":[{"uri":"propaganda_trailer__propaganda_trailer_panel_l_lod1.bin","byteLength":31200}]}