{"asset":{"version":"2.0","generator":"RBMesh"},"scene":0,"scenes":[{"nodes":[0]}],"nodes":[{"mesh":0}],"meshes":[{"name":"GeneralMkIII_0","primitives":[{"attributes":{"POSITION":0,"NORMAL":1,"TANGENT":2,"TEXCOORD_0":3,"TEXCOORD_1":4,"TEXCOORD_2":5},"indices":6,"material":0,"mode":4}]}],"materials":[{"name":"GeneralMkIII","pbrMetallicRoughness":{"baseColorTexture":{"index":0},"metallicFactor":0,"roughnessFactor":1},"normalTexture":{"index":1}}],"textures":[{"sampler":0,"source":0},{"sampler":0,"source":1}],"images":[{"uri":"propaganda_trailer_a_01_dif.png"},{"uri":"propaganda_trailer_a_01_nrm.png"}],"samplers":[{"wrapS":10497,"wrapT":10497}],"accessors":[{"bufferView":0,"componentType":5126,"count":360,"type":"VEC3","min":[-0.07640704,-1.22955,-1.7338153],"max":[0.01666774,0.094662175,1.3556428]},{"bufferView":1,"componentType":5126,"count":360,"type":"VEC3"},{"bufferView":2,"componentType":5126,"count":360,"type":"VEC4"},{"bufferView":3,"componentType":5126,"count":360,"type":"VEC2"},{"bufferView":4,"componentType":5126,"count":360,"type":"VEC2"},{"bufferView":5,"componentType":5126,"count":360,"type":"VEC2"},{"bufferView":6,"componentType":5125,"count":822,"type":"SCALAR"}],"bufferViews":[{"buffer":0,"byteOffset":0,"byteLength":4320,"target":34962},{"buffer":0,"byteOffset":4320,"byteLength":4320,"target":34962},{"buffer":0,"byteOffset":8640,"byteLength":5760,"target":34962},{"buffer":0,"byteOffset":14400,"byteLength":2880,"target":34962},{"buffer":0,"byteOffset":17280,"byteLength":2880,"target":34962},{"buffer":0,"byteOffset":20160,"byteLength":2880,"target":34962},{"buffer":0,"byteOffset":23040,"byteLength":3288,"target":34963}],"buffers":[{"uri":"propaganda_trailer__propaganda_trailer_wing_side_lod1.bin","byteLength":26328}]}