{"asset":{"version":"2.0","generator":"RBMesh"},"scene":0,"scenes":[{"nodes":[0]}],"nodes":[{"mesh":0}],"meshes":[{"name":"GeneralMkIII_0","primitives":[{"attributes":{"POSITION":0,"NORMAL":1,"TANGENT":2,"TEXCOORD_0":3,"TEXCOORD_1":4,"TEXCOORD_2":5},"indices":6,"material":0,"mode":4}]}],"materials":[{"name":"GeneralMkIII","pbrMetallicRoughness":{"baseColorTexture":{"index":0},"metallicFactor":0,"roughnessFactor":1},"normalTexture":{"index":1}}],"textures":[{"sampler":0,"source":0},{"sampler":0,"source":1}],"images":[{"uri":"propaganda_trailer_a_01_dif.png"},{"uri":"propaganda_trailer_a_01_nrm.png"}],"samplers":[{"wrapS":10497,"wrapT":10497}],"accessors":[{"bufferView":0,"componentType":5126,"count":397,"type":"VEC3","min":[-0.032912172,-1.0116633,-0.07329596],"max":[0.9426589,0.9947132,0.051591218]},{"bufferView":1,"componentType":5126,"count":397,"type":"VEC3"},{"bufferView":2,"componentType":5126,"count":397,"type":"VEC4"},{"bufferView":3,"componentType":5126,"count":397,"type":"VEC2"},{"bufferView":4,"componentType":5126,"count":397,"type":"VEC2"},{"bufferView":5,"componentType":5126,"count":397,"type":"VEC2"},{"bufferView":6,"componentType":5125,"count":1044,"type":"SCALAR"}],"bufferViews":[{"buffer":0,"byteOffset":0,"byteLength":4764,"target":34962},{"buffer":0,"byteOffset":4764,"byteLength":4764,"target":34962},{"buffer":0,"byteOffset":9528,"byteLength":6352,"target":34962},{"buffer":0,"byteOffset":15880,"byteLength":3176,"target":34962},{"buffer":0,"byteOffset":19056,"byteLength":3176,"target":34962},{"buffer":0,"byteOffset":22232,"byteLength":3176,"target":34962},{"buffer":0,"byteOffset":25408,"byteLength":4176,"target":34963}],"buffers":[{"uri":"propaganda_trailer__propaganda_trailer_door_rear_r_lod1.bin","byteLength":29584}]}