{"asset":{"version":"2.0","generator":"RBMesh"},"scene":0,"scenes":[{"nodes":[0,1,2,3,4]}],"nodes":[{"mesh":0},{"mesh":1},{"mesh":2},{"mesh":3},{"mesh":4}],"meshes":[{"name":"GeneralMkIII_0","primitives":[{"attributes":{"POSITION":0,"NORMAL":1,"TANGENT":2,"TEXCOORD_0":3,"TEXCOORD_1":4,"TEXCOORD_2":5},"indices":6,"material":0,"mode":4}]},{"name":"GeneralMkIII_1","primitives":[{"attributes":{"POSITION":7,"NORMAL":8,"TANGENT":9,"TEXCOORD_0":10,"TEXCOORD_1":11,"TEXCOORD_2":12},"indices":13,"mode":4}]},{"name":"GeneralMkIII_2","primitives":[{"attributes":{"POSITION":14,"NORMAL":15,"TANGENT":16,"TEXCOORD_0":17,"TEXCOORD_1":18,"TEXCOORD_2":19},"indices":20,"material":1,"mode":4}]},{"name":"GeneralMkIII_3","primitives":[{"attributes":{"POSITION":21,"NORMAL":22,"TANGENT":23,"TEXCOORD_0":24,"TEXCOORD_1":25,"TEXCOORD_2":26},"indices":27,"mode":4}]},{"name":"GeneralMkIII_4","primitives":[{"attributes":{"POSITION":28,"NORMAL":29,"TANGENT":30,"TEXCOORD_0":31,"TEXCOORD_1":32,"TEXCOORD_2":33},"indices":34,"mode":4}]}],"materials":[{"name":"GeneralMkIII","pbrMetallicRoughness":{"baseColorTexture":{"index":0},"metallicFactor":0,"roughnessFactor":1},"normalTexture":{"index":1}},{"name":"GeneralMkIII","pbrMetallicRoughness":{"baseColorTexture":{"index":2},"metallicFactor":0,"roughnessFactor":1},"normalTexture":{"index":3}}],"textures":[{"sampler":0,"source":0},{"sampler":0,"source":1},{"sampler":0,"source":2},{"sampler":0,"source":3}],"images":[{"uri":"metal_trims_01_a_clean_dif.png"},{"uri":"metal_trims_01_a_clean_nrm.png"},{"uri":"atlas_metal_01_dif.png"},{"uri":"atlas_metal_01_nrm.png"}],"samplers":[{"wrapS":10497,"wrapT":10497}],"accessors":[{"bufferView":0,"componentType":5126,"count":4717,"type":"VEC3","min":[-13.846201,2.7179408,-12.167771],"max":[10.363417,7.253335,9.254183]},{"bufferView":1,"componentType":5126,"count":4717,"type":"VEC3"},{"bufferView":2,"componentType":5126,"count":4717,"type":"VEC4"},{"bufferView":3,"componentType":5126,"count":4717,"type":"VEC2"},{"bufferView":4,"componentType":5126,"count":4717,"type":"VEC2"},{"bufferView":5,"componentType":5126,"count":4717,"type":"VEC2"},{"bufferView":6,"componentType":5125,"count":14946,"type":"SCALAR"},{"bufferView":7,"componentType":5126,"count":3932,"type":"VEC3","min":[-2.658359,0.1369112,-3.7274497],"max":[2.4758108,3.1869884,3.9243648]},{"bufferView":8,"componentType":5126,"count":3932,"type":"VEC3"},{"bufferView":9,"componentType":5126,"count":3932,"type":"VEC4"},{"bufferView":10,"componentType":5126,"count":3932,"type":"VEC2"},{"bufferView":11,"componentType":5126,"count":3932,"type":"VEC2"},{"bufferView":12,"componentType":5126,"count":3932,"type":"VEC2"},{"bufferView":13,"componentType":5125,"count":5562,"type":"SCALAR"},{"bufferView":14,"componentType":5126,"count":8845,"type":"VEC3","min":[-5.6661797,-2.9604933,-5.6661797],"max":[5.6661797,3.7950602,5.6661797]},{"bufferView":15,"componentType":5126,"count":8845,"type":"VEC3"},{"bufferView":16,"componentType":5126,"count":8845,"type":"VEC4"},{"bufferView":17,"componentType":5126,"count":8845,"type":"VEC2"},{"bufferView":18,"componentType":5126,"count":8845,"type":"VEC2"},{"bufferView":19,"componentType":5126,"count":8845,"type":"VEC2"},{"bufferView":20,"componentType":5125,"count":23964,"type":"SCALAR"},{"bufferView":21,"componentType":5126,"count":2982,"type":"VEC3","min":[-5.790414,-2.8611903,-5.790414],"max":[5.790414,5.041628,5.790414]},{"bufferView":22,"componentType":5126,"count":2982,"type":"VEC3"},{"bufferView":23,"componentType":5126,"count":2982,"type":"VEC4"},{"bufferView":24,"componentType":5126,"count":2982,"type":"VEC2"},{"bufferView":25,"componentType":5126,"count":2982,"type":"VEC2"},{"bufferView":26,"componentType":5126,"count":2982,"type":"VEC2"},{"bufferView":27,"componentType":5125,"count":6750,"type":"SCALAR"},{"bufferView":28,"componentType":5126,"count":540,"type":"VEC3","min":[-6.305521,4.7872434,-6.1132536],"max":[6.3110147,5.2267118,6.179174]},{"bufferView":29,"componentType":5126,"count":540,"type":"VEC3"},{"bufferView":30,"componentType":5126,"count":540,"type":"VEC4"},{"bufferView":31,"componentType":5126,"count":540,"type":"VEC2"},{"bufferView":32,"componentType":5126,"count":540,"type":"VEC2"},{"bufferView":33,"componentType":5126,"count":540,"type":"VEC2"},{"bufferView":34,"componentType":5125,"count":960,"type":"SCALAR"}],"bufferViews":[{"buffer":0,"byteOffset":0,"byteLength":56604,"target":34962},{"buffer":0,"byteOffset":56604,"byteLength":56604,"target":34962},{"buffer":0,"byteOffset":113208,"byteLength":75472,"target":34962},{"buffer":0,"byteOffset":188680,"byteLength":37736,"target":34962},{"buffer":0,"byteOffset":226416,"byteLength":37736,"target":34962},{"buffer":0,"byteOffset":264152,"byteLength":37736,"target":34962},{"buffer":0,"byteOffset":301888,"byteLength":59784,"target":34963},{"buffer":0,"byteOffset":361672,"byteLength":47184,"target":34962},{"buffer":0,"byteOffset":408856,"byteLength":47184,"target":34962},{"buffer":0,"byteOffset":456040,"byteLength":62912,"target":34962},{"buffer":0,"byteOffset":518952,"byteLength":31456,"target":34962},{"buffer":0,"byteOffset":550408,"byteLength":31456,"target":34962},{"buffer":0,"byteOffset":581864,"byteLength":31456,"target":34962},{"buffer":0,"byteOffset":613320,"byteLength":22248,"target":34963},{"buffer":0,"byteOffset":635568,"byteLength":106140,"target":34962},{"buffer":0,"byteOffset":741708,"byteLength":106140,"target":34962},{"buffer":0,"byteOffset":847848,"byteLength":141520,"target":34962},{"buffer":0,"byteOffset":989368,"byteLength":70760,"target":34962},{"buffer":0,"byteOffset":1060128,"byteLength":70760,"target":34962},{"buffer":0,"byteOffset":1130888,"byteLength":70760,"target":34962},{"buffer":0,"byteOffset":1201648,"byteLength":95856,"target":34963},{"buffer":0,"byteOffset":1297504,"byteLength":35784,"target":34962},{"buffer":0,"byteOffset":1333288,"byteLength":35784,"target":34962},{"buffer":0,"byteOffset":1369072,"byteLength":47712,"target":34962},{"buffer":0,"byteOffset":1416784,"byteLength":23856,"target":34962},{"buffer":0,"byteOffset":1440640,"byteLength":23856,"target":34962},{"buffer":0,"byteOffset":1464496,"byteLength":23856,"target":34962},{"buffer":0,"byteOffset":1488352,"byteLength":27000,"target":34963},{"buffer":0,"byteOffset":1515352,"byteLength":6480,"target":34962},{"buffer":0,"byteOffset":1521832,"byteLength":6480,"target":34962},{"buffer":0,"byteOffset":1528312,"byteLength":8640,"target":34962},{"buffer":0,"byteOffset":1536952,"byteLength":4320,"target":34962},{"buffer":0,"byteOffset":1541272,"byteLength":4320,"target":34962},{"buffer":0,"byteOffset":1545592,"byteLength":4320,"target":34962},{"buffer":0,"byteOffset":1549912,"byteLength":3840,"target":34963}],"buffers":[{"uri":"radar_dish_hero_dish_destruct_lod1.bin","byteLength":1553752}]}