{"asset":{"version":"2.0","generator":"RBMesh"},"scene":0,"scenes":[{"nodes":[0]}],"nodes":[{"mesh":0}],"meshes":[{"name":"Character_0","primitives":[{"attributes":{"POSITION":0,"NORMAL":1,"TANGENT":2,"TEXCOORD_0":3,"TEXCOORD_1":4,"TEXCOORD_2":5},"indices":6,"material":0,"mode":4}]}],"materials":[{"name":"Character","pbrMetallicRoughness":{"baseColorTexture":{"index":0},"metallicFactor":0,"roughnessFactor":1},"normalTexture":{"index":1}}],"textures":[{"sampler":0,"source":0},{"sampler":0,"source":1}],"images":[{"uri":"mc_jc2_grapple_dif.png"},{"uri":"mc_jc2_grapple_nrm.png"}],"samplers":[{"wrapS":10497,"wrapT":10497}],"accessors":[{"bufferView":0,"componentType":5126,"count":5297,"type":"VEC3","min":[-0.18598635,-0.068211876,-0.068301216],"max":[0.19517101,0.11872749,0.06062351]},{"bufferView":1,"componentType":5126,"count":5297,"type":"VEC3"},{"bufferView":2,"componentType":5126,"count":5297,"type":"VEC4"},{"bufferView":3,"componentType":5126,"count":5297,"type":"VEC2"},{"bufferView":4,"componentType":5126,"count":5297,"type":"VEC2"},{"bufferView":5,"componentType":5126,"count":5297,"type":"VEC2"},{"bufferView":6,"componentType":5125,"count":24834,"type":"SCALAR"}],"bufferViews":[{"buffer":0,"byteOffset":0,"byteLength":63564,"target":34962},{"buffer":0,"byteOffset":63564,"byteLength":63564,"target":34962},{"buffer":0,"byteOffset":127128,"byteLength":84752,"target":34962},{"buffer":0,"byteOffset":211880,"byteLength":42376,"target":34962},{"buffer":0,"byteOffset":254256,"byteLength":42376,"target":34962},{"buffer":0,"byteOffset":296632,"byteLength":42376,"target":34962},{"buffer":0,"byteOffset":339008,"byteLength":99336,"target":34963}],"buffers":[{"uri":"grappling_device_jc2_default__rico_jc2_grapple_body_lod1.bin","byteLength":438344}]}