{"asset":{"version":"2.0","generator":"RBMesh"},"scene":0,"scenes":[{"nodes":[0]}],"nodes":[{"mesh":0}],"meshes":[{"name":"GeneralMkIII_0","primitives":[{"attributes":{"POSITION":0,"NORMAL":1,"TANGENT":2,"TEXCOORD_0":3,"TEXCOORD_1":4,"TEXCOORD_2":5},"indices":6,"material":0,"mode":4}]}],"materials":[{"name":"GeneralMkIII","pbrMetallicRoughness":{"baseColorTexture":{"index":0},"metallicFactor":0,"roughnessFactor":1},"normalTexture":{"index":1}}],"textures":[{"sampler":0,"source":0},{"sampler":0,"source":1}],"images":[{"uri":"mc_rico_body_dif.png"},{"uri":"mc_rico_body_nrm.png"}],"samplers":[{"wrapS":10497,"wrapT":10497}],"accessors":[{"bufferView":0,"componentType":5126,"count":162,"type":"VEC3","min":[-0.008176691,-0.009832974,-0.07002761],"max":[0.02830426,0.006114353,0.0037613634]},{"bufferView":1,"componentType":5126,"count":162,"type":"VEC3"},{"bufferView":2,"componentType":5126,"count":162,"type":"VEC4"},{"bufferView":3,"componentType":5126,"count":162,"type":"VEC2"},{"bufferView":4,"componentType":5126,"count":162,"type":"VEC2"},{"bufferView":5,"componentType":5126,"count":162,"type":"VEC2"},{"bufferView":6,"componentType":5125,"count":576,"type":"SCALAR"}],"bufferViews":[{"buffer":0,"byteOffset":0,"byteLength":1944,"target":34962},{"buffer":0,"byteOffset":1944,"byteLength":1944,"target":34962},{"buffer":0,"byteOffset":3888,"byteLength":2592,"target":34962},{"buffer":0,"byteOffset":6480,"byteLength":1296,"target":34962},{"buffer":0,"byteOffset":7776,"byteLength":1296,"target":34962},{"buffer":0,"byteOffset":9072,"byteLength":1296,"target":34962},{"buffer":0,"byteOffset":10368,"byteLength":2304,"target":34963}],"buffers":[{"uri":"grapplinghookwire__grapple_head_body_lod1.bin","byteLength":12672}]}