{"asset":{"version":"2.0","generator":"RBMesh"},"scene":0,"scenes":[{"nodes":[0]}],"nodes":[{"mesh":0}],"meshes":[{"name":"Character_0","primitives":[{"attributes":{"POSITION":0,"NORMAL":1,"TANGENT":2,"TEXCOORD_0":3,"TEXCOORD_1":4,"TEXCOORD_2":5},"indices":6,"material":0,"mode":4}]}],"materials":[{"name":"Character","pbrMetallicRoughness":{"baseColorTexture":{"index":0},"metallicFactor":0,"roughnessFactor":1},"normalTexture":{"index":1}}],"textures":[{"sampler":0,"source":0},{"sampler":0,"source":1}],"images":[{"uri":"mc_grapple_dif.png"},{"uri":"mc_grapple_nrm.png"}],"samplers":[{"wrapS":10497,"wrapT":10497}],"accessors":[{"bufferView":0,"componentType":5126,"count":4983,"type":"VEC3","min":[-0.16446726,-0.052888315,-0.065250844],"max":[0.13985263,0.07456163,0.056532327]},{"bufferView":1,"componentType":5126,"count":4983,"type":"VEC3"},{"bufferView":2,"componentType":5126,"count":4983,"type":"VEC4"},{"bufferView":3,"componentType":5126,"count":4983,"type":"VEC2"},{"bufferView":4,"componentType":5126,"count":4983,"type":"VEC2"},{"bufferView":5,"componentType":5126,"count":4983,"type":"VEC2"},{"bufferView":6,"componentType":5125,"count":21564,"type":"SCALAR"}],"bufferViews":[{"buffer":0,"byteOffset":0,"byteLength":59796,"target":34962},{"buffer":0,"byteOffset":59796,"byteLength":59796,"target":34962},{"buffer":0,"byteOffset":119592,"byteLength":79728,"target":34962},{"buffer":0,"byteOffset":199320,"byteLength":39864,"target":34962},{"buffer":0,"byteOffset":239184,"byteLength":39864,"target":34962},{"buffer":0,"byteOffset":279048,"byteLength":39864,"target":34962},{"buffer":0,"byteOffset":318912,"byteLength":86256,"target":34963}],"buffers":[{"uri":"grappling_device_jc3_default__rico_jc3_grapple_body_lod1.bin","byteLength":405168}]}