{"asset":{"version":"2.0","generator":"RBMesh"},"scene":0,"scenes":[{"nodes":[0]}],"nodes":[{"mesh":0}],"meshes":[{"name":"GeneralMkIII_0","primitives":[{"attributes":{"POSITION":0,"NORMAL":1,"TANGENT":2,"TEXCOORD_0":3,"TEXCOORD_1":4,"TEXCOORD_2":5},"indices":6,"material":0,"mode":4}]}],"materials":[{"name":"GeneralMkIII","pbrMetallicRoughness":{"baseColorTexture":{"index":0},"metallicFactor":0,"roughnessFactor":1},"normalTexture":{"index":1}}],"textures":[{"sampler":0,"source":0},{"sampler":0,"source":1}],"images":[{"uri":"mc_rico_body_dif.png"},{"uri":"mc_rico_body_nrm.png"}],"samplers":[{"wrapS":10497,"wrapT":10497}],"accessors":[{"bufferView":0,"componentType":5126,"count":357,"type":"VEC3","min":[-0.034814022,-0.02134172,-0.0066545554],"max":[0.034836687,0.040212914,0.07426765]},{"bufferView":1,"componentType":5126,"count":357,"type":"VEC3"},{"bufferView":2,"componentType":5126,"count":357,"type":"VEC4"},{"bufferView":3,"componentType":5126,"count":357,"type":"VEC2"},{"bufferView":4,"componentType":5126,"count":357,"type":"VEC2"},{"bufferView":5,"componentType":5126,"count":357,"type":"VEC2"},{"bufferView":6,"componentType":5125,"count":1620,"type":"SCALAR"}],"bufferViews":[{"buffer":0,"byteOffset":0,"byteLength":4284,"target":34962},{"buffer":0,"byteOffset":4284,"byteLength":4284,"target":34962},{"buffer":0,"byteOffset":8568,"byteLength":5712,"target":34962},{"buffer":0,"byteOffset":14280,"byteLength":2856,"target":34962},{"buffer":0,"byteOffset":17136,"byteLength":2856,"target":34962},{"buffer":0,"byteOffset":19992,"byteLength":2856,"target":34962},{"buffer":0,"byteOffset":22848,"byteLength":6480,"target":34963}],"buffers":[{"uri":"grapplinghookwire__jc2_grapple_end_a_lod1.bin","byteLength":29328}]}