{"asset":{"version":"2.0","generator":"RBMesh"},"scene":0,"scenes":[{"nodes":[0]}],"nodes":[{"mesh":0}],"meshes":[{"name":"GeneralMkIII_0","primitives":[{"attributes":{"POSITION":0,"NORMAL":1,"TANGENT":2,"TEXCOORD_0":3,"TEXCOORD_1":4,"TEXCOORD_2":5},"indices":6,"material":0,"mode":4}]}],"materials":[{"name":"GeneralMkIII","pbrMetallicRoughness":{"baseColorTexture":{"index":0},"metallicFactor":0,"roughnessFactor":1},"normalTexture":{"index":1}}],"textures":[{"sampler":0,"source":0},{"sampler":0,"source":1}],"images":[{"uri":"dummy_grey_dif.png"},{"uri":"dummy_nrm.png"}],"samplers":[{"wrapS":10497,"wrapT":10497}],"accessors":[{"bufferView":0,"componentType":5126,"count":18660,"type":"VEC3","min":[-2.9363976,1.3370827,-1.1032574],"max":[2.9363976,5.8175793,1.3081431]},{"bufferView":1,"componentType":5126,"count":18660,"type":"VEC3"},{"bufferView":2,"componentType":5126,"count":18660,"type":"VEC4"},{"bufferView":3,"componentType":5126,"count":18660,"type":"VEC2"},{"bufferView":4,"componentType":5126,"count":18660,"type":"VEC2"},{"bufferView":5,"componentType":5126,"count":18660,"type":"VEC2"},{"bufferView":6,"componentType":5125,"count":70812,"type":"SCALAR"}],"bufferViews":[{"buffer":0,"byteOffset":0,"byteLength":223920,"target":34962},{"buffer":0,"byteOffset":223920,"byteLength":223920,"target":34962},{"buffer":0,"byteOffset":447840,"byteLength":298560,"target":34962},{"buffer":0,"byteOffset":746400,"byteLength":149280,"target":34962},{"buffer":0,"byteOffset":895680,"byteLength":149280,"target":34962},{"buffer":0,"byteOffset":1044960,"byteLength":149280,"target":34962},{"buffer":0,"byteOffset":1194240,"byteLength":283248,"target":34963}],"buffers":[{"uri":"parachute_skin_debugvariation__parachute_var_debug_lod1.bin","byteLength":1477488}]}