{"asset":{"version":"2.0","generator":"RBMesh"},"scene":0,"scenes":[{"nodes":[0,1,2]}],"nodes":[{"mesh":0},{"mesh":1},{"mesh":2}],"meshes":[{"name":"Character_0","primitives":[{"attributes":{"POSITION":0,"NORMAL":1,"TANGENT":2,"TEXCOORD_0":3,"TEXCOORD_1":4,"TEXCOORD_2":5},"indices":6,"material":0,"mode":4}]},{"name":"Character_1","primitives":[{"attributes":{"POSITION":7,"NORMAL":8,"TANGENT":9,"TEXCOORD_0":10,"TEXCOORD_1":11,"TEXCOORD_2":12},"indices":13,"material":1,"mode":4}]},{"name":"GeneralMkIII_2","primitives":[{"attributes":{"POSITION":14,"NORMAL":15,"TANGENT":16,"TEXCOORD_0":17,"TEXCOORD_1":18,"TEXCOORD_2":19},"indices":20,"material":2,"mode":4}]}],"materials":[{"name":"Character","pbrMetallicRoughness":{"baseColorTexture":{"index":0},"metallicFactor":0,"roughnessFactor":1},"normalTexture":{"index":1}},{"name":"Character","pbrMetallicRoughness":{"baseColorTexture":{"index":2},"metallicFactor":0,"roughnessFactor":1},"normalTexture":{"index":3}},{"name":"GeneralMkIII","pbrMetallicRoughness":{"baseColorTexture":{"index":4},"metallicFactor":0,"roughnessFactor":1},"normalTexture":{"index":5}}],"textures":[{"sampler":0,"source":0},{"sampler":0,"source":1},{"sampler":0,"source":2},{"sampler":0,"source":3},{"sampler":0,"source":0},{"sampler":0,"source":1}],"images":[{"uri":"ae_para_harness_dif.png"},{"uri":"ae_para_harness_nrm.png"},{"uri":"ae_para_cloth_dif_dlc.png"},{"uri":"ae_para_cloth_nrm.png"}],"samplers":[{"wrapS":10497,"wrapT":10497}],"accessors":[{"bufferView":0,"componentType":5126,"count":8108,"type":"VEC3","min":[-2.6082966,1.3370827,-1.0924274],"max":[2.6082966,4.892043,1.2783157]},{"bufferView":1,"componentType":5126,"count":8108,"type":"VEC3"},{"bufferView":2,"componentType":5126,"count":8108,"type":"VEC4"},{"bufferView":3,"componentType":5126,"count":8108,"type":"VEC2"},{"bufferView":4,"componentType":5126,"count":8108,"type":"VEC2"},{"bufferView":5,"componentType":5126,"count":8108,"type":"VEC2"},{"bufferView":6,"componentType":5125,"count":22104,"type":"SCALAR"},{"bufferView":7,"componentType":5126,"count":4712,"type":"VEC3","min":[-2.9363976,2.0398014,-1.1032574],"max":[2.9363976,5.8175793,1.3081431]},{"bufferView":8,"componentType":5126,"count":4712,"type":"VEC3"},{"bufferView":9,"componentType":5126,"count":4712,"type":"VEC4"},{"bufferView":10,"componentType":5126,"count":4712,"type":"VEC2"},{"bufferView":11,"componentType":5126,"count":4712,"type":"VEC2"},{"bufferView":12,"componentType":5126,"count":4712,"type":"VEC2"},{"bufferView":13,"componentType":5125,"count":21816,"type":"SCALAR"},{"bufferView":14,"componentType":5126,"count":1474,"type":"VEC3","min":[-2.595336,1.4846216,-1.0792891],"max":[2.595336,4.8666544,1.2658876]},{"bufferView":15,"componentType":5126,"count":1474,"type":"VEC3"},{"bufferView":16,"componentType":5126,"count":1474,"type":"VEC4"},{"bufferView":17,"componentType":5126,"count":1474,"type":"VEC2"},{"bufferView":18,"componentType":5126,"count":1474,"type":"VEC2"},{"bufferView":19,"componentType":5126,"count":1474,"type":"VEC2"},{"bufferView":20,"componentType":5125,"count":6204,"type":"SCALAR"}],"bufferViews":[{"buffer":0,"byteOffset":0,"byteLength":97296,"target":34962},{"buffer":0,"byteOffset":97296,"byteLength":97296,"target":34962},{"buffer":0,"byteOffset":194592,"byteLength":129728,"target":34962},{"buffer":0,"byteOffset":324320,"byteLength":64864,"target":34962},{"buffer":0,"byteOffset":389184,"byteLength":64864,"target":34962},{"buffer":0,"byteOffset":454048,"byteLength":64864,"target":34962},{"buffer":0,"byteOffset":518912,"byteLength":88416,"target":34963},{"buffer":0,"byteOffset":607328,"byteLength":56544,"target":34962},{"buffer":0,"byteOffset":663872,"byteLength":56544,"target":34962},{"buffer":0,"byteOffset":720416,"byteLength":75392,"target":34962},{"buffer":0,"byteOffset":795808,"byteLength":37696,"target":34962},{"buffer":0,"byteOffset":833504,"byteLength":37696,"target":34962},{"buffer":0,"byteOffset":871200,"byteLength":37696,"target":34962},{"buffer":0,"byteOffset":908896,"byteLength":87264,"target":34963},{"buffer":0,"byteOffset":996160,"byteLength":17688,"target":34962},{"buffer":0,"byteOffset":1013848,"byteLength":17688,"target":34962},{"buffer":0,"byteOffset":1031536,"byteLength":23584,"target":34962},{"buffer":0,"byteOffset":1055120,"byteLength":11792,"target":34962},{"buffer":0,"byteOffset":1066912,"byteLength":11792,"target":34962},{"buffer":0,"byteOffset":1078704,"byteLength":11792,"target":34962},{"buffer":0,"byteOffset":1090496,"byteLength":24816,"target":34963}],"buffers":[{"uri":"para002_skin_flame__parachute_dlc_parachute_lod1.bin","byteLength":1115312}]}