{"asset":{"version":"2.0","generator":"RBMesh"},"scene":0,"scenes":[{"nodes":[0]}],"nodes":[{"mesh":0}],"meshes":[{"name":"Character_0","primitives":[{"attributes":{"POSITION":0,"NORMAL":1,"TANGENT":2,"TEXCOORD_0":3,"TEXCOORD_1":4,"TEXCOORD_2":5},"indices":6,"material":0,"mode":4}]}],"materials":[{"name":"Character","pbrMetallicRoughness":{"baseColorTexture":{"index":0},"metallicFactor":0,"roughnessFactor":1},"normalTexture":{"index":1}}],"textures":[{"sampler":0,"source":0},{"sampler":0,"source":1}],"images":[{"uri":"mc_rico_wingsuit_dif.png"},{"uri":"mc_rico_wingsuit_nrm.png"}],"samplers":[{"wrapS":10497,"wrapT":10497}],"accessors":[{"bufferView":0,"componentType":5126,"count":4656,"type":"VEC3","min":[-0.7441078,1.0470592,-0.02926899],"max":[0.7441078,1.4187233,0.10274455]},{"bufferView":1,"componentType":5126,"count":4656,"type":"VEC3"},{"bufferView":2,"componentType":5126,"count":4656,"type":"VEC4"},{"bufferView":3,"componentType":5126,"count":4656,"type":"VEC2"},{"bufferView":4,"componentType":5126,"count":4656,"type":"VEC2"},{"bufferView":5,"componentType":5126,"count":4656,"type":"VEC2"},{"bufferView":6,"componentType":5125,"count":21603,"type":"SCALAR"}],"bufferViews":[{"buffer":0,"byteOffset":0,"byteLength":55872,"target":34962},{"buffer":0,"byteOffset":55872,"byteLength":55872,"target":34962},{"buffer":0,"byteOffset":111744,"byteLength":74496,"target":34962},{"buffer":0,"byteOffset":186240,"byteLength":37248,"target":34962},{"buffer":0,"byteOffset":223488,"byteLength":37248,"target":34962},{"buffer":0,"byteOffset":260736,"byteLength":37248,"target":34962},{"buffer":0,"byteOffset":297984,"byteLength":86412,"target":34963}],"buffers":[{"uri":"rico_preview__wingsuit_body_lod1.bin","byteLength":384396}]}