{"asset":{"version":"2.0","generator":"RBMesh"},"scene":0,"scenes":[{"nodes":[0]}],"nodes":[{"mesh":0}],"meshes":[{"name":"GeneralMkIII_0","primitives":[{"attributes":{"POSITION":0,"NORMAL":1,"TANGENT":2,"TEXCOORD_0":3,"TEXCOORD_1":4,"TEXCOORD_2":5},"indices":6,"material":0,"mode":4}]}],"materials":[{"name":"GeneralMkIII","pbrMetallicRoughness":{"baseColorTexture":{"index":0},"metallicFactor":0,"roughnessFactor":1},"normalTexture":{"index":1}}],"textures":[{"sampler":0,"source":0},{"sampler":0,"source":1}],"images":[{"uri":"rico_charge_dif.png"},{"uri":"rico_charge_nrm.png"}],"samplers":[{"wrapS":10497,"wrapT":10497}],"accessors":[{"bufferView":0,"componentType":5126,"count":604,"type":"VEC3","min":[-0.018441122,-0.1276696,-0.018441122],"max":[0.018441122,0.1274631,0.018441122]},{"bufferView":1,"componentType":5126,"count":604,"type":"VEC3"},{"bufferView":2,"componentType":5126,"count":604,"type":"VEC4"},{"bufferView":3,"componentType":5126,"count":604,"type":"VEC2"},{"bufferView":4,"componentType":5126,"count":604,"type":"VEC2"},{"bufferView":5,"componentType":5126,"count":604,"type":"VEC2"},{"bufferView":6,"componentType":5125,"count":3219,"type":"SCALAR"}],"bufferViews":[{"buffer":0,"byteOffset":0,"byteLength":7248,"target":34962},{"buffer":0,"byteOffset":7248,"byteLength":7248,"target":34962},{"buffer":0,"byteOffset":14496,"byteLength":9664,"target":34962},{"buffer":0,"byteOffset":24160,"byteLength":4832,"target":34962},{"buffer":0,"byteOffset":28992,"byteLength":4832,"target":34962},{"buffer":0,"byteOffset":33824,"byteLength":4832,"target":34962},{"buffer":0,"byteOffset":38656,"byteLength":12876,"target":34963}],"buffers":[{"uri":"rico_preview__animation_prop_b_rico_charge_lod1.bin","byteLength":51532}]}