{"asset":{"version":"2.0","generator":"RBMesh"},"scene":0,"scenes":[{"nodes":[0,1,2,3,4,5,6]}],"nodes":[{"mesh":0},{"mesh":1},{"mesh":2},{"mesh":3},{"mesh":4},{"mesh":5},{"mesh":6}],"meshes":[{"name":"Character_0","primitives":[{"attributes":{"POSITION":0,"NORMAL":1,"TANGENT":2,"TEXCOORD_0":3,"TEXCOORD_1":4,"TEXCOORD_2":5},"indices":6,"material":0,"mode":4}]},{"name":"Character_1","primitives":[{"attributes":{"POSITION":7,"NORMAL":8,"TANGENT":9,"TEXCOORD_0":10,"TEXCOORD_1":11,"TEXCOORD_2":12},"indices":13,"material":1,"mode":4}]},{"name":"Character_2","primitives":[{"attributes":{"POSITION":14,"NORMAL":15,"TANGENT":16,"TEXCOORD_0":17,"TEXCOORD_1":18,"TEXCOORD_2":19},"indices":20,"material":2,"mode":4}]},{"name":"Character_3","primitives":[{"attributes":{"POSITION":21,"NORMAL":22,"TANGENT":23,"TEXCOORD_0":24,"TEXCOORD_1":25,"TEXCOORD_2":26},"indices":27,"material":3,"mode":4}]},{"name":"Character_4","primitives":[{"attributes":{"POSITION":28,"NORMAL":29,"TANGENT":30,"TEXCOORD_0":31,"TEXCOORD_1":32,"TEXCOORD_2":33},"indices":34,"material":4,"mode":4}]},{"name":"Character_5","primitives":[{"attributes":{"POSITION":35,"NORMAL":36,"TANGENT":37,"TEXCOORD_0":38,"TEXCOORD_1":39,"TEXCOORD_2":40},"indices":41,"material":5,"mode":4}]},{"name":"CharacterSkin_6","primitives":[{"attributes":{"POSITION":42,"NORMAL":43,"TANGENT":44,"TEXCOORD_0":45,"TEXCOORD_1":46,"TEXCOORD_2":47},"indices":48,"material":6,"mode":4}]}],"materials":[{"name":"Character","pbrMetallicRoughness":{"baseColorTexture":{"index":0},"metallicFactor":0,"roughnessFactor":1},"normalTexture":{"index":1}},{"name":"Character","pbrMetallicRoughness":{"baseColorTexture":{"index":2},"metallicFactor":0,"roughnessFactor":1},"normalTexture":{"index":3}},{"name":"Character","pbrMetallicRoughness":{"baseColorTexture":{"index":4},"metallicFactor":0,"roughnessFactor":1}},{"name":"Character","pbrMetallicRoughness":{"baseColorTexture":{"index":5},"metallicFactor":0,"roughnessFactor":1},"normalTexture":{"index":6}},{"name":"Character","pbrMetallicRoughness":{"baseColorTexture":{"index":7},"metallicFactor":0,"roughnessFactor":1},"normalTexture":{"index":8}},{"name":"Character","pbrMetallicRoughness":{"baseColorTexture":{"index":9},"metallicFactor":0,"roughnessFactor":1}},{"name":"CharacterSkin","pbrMetallicRoughness":{"baseColorTexture":{"index":10},"metallicFactor":0,"roughnessFactor":1},"normalTexture":{"index":11}}],"textures":[{"sampler":0,"source":0},{"sampler":0,"source":1},{"sampler":0,"source":0},{"sampler":0,"source":1},{"sampler":0,"source":2},{"sampler":0,"source":3},{"sampler":0,"source":4},{"sampler":0,"source":3},{"sampler":0,"source":4},{"sampler":0,"source":2},{"sampler":0,"source":5},{"sampler":0,"source":6}],"images":[{"uri":"mc_rico_body_dif.png"},{"uri":"mc_rico_body_nrm.png"},{"uri":"charactereyescube_v3_dif.png"},{"uri":"mc_rico_hair_alpha_dif.png"},{"uri":"mc_rico_hair_nrm.png"},{"uri":"mc_rico_head_dif.png"},{"uri":"mc_rico_head_nrm.png"}],"samplers":[{"wrapS":10497,"wrapT":10497}],"accessors":[{"bufferView":0,"componentType":5126,"count":9688,"type":"VEC3","min":[-0.5081573,-0.0031471807,-0.24087173],"max":[0.5081573,1.5793227,0.19810379]},{"bufferView":1,"componentType":5126,"count":9688,"type":"VEC3"},{"bufferView":2,"componentType":5126,"count":9688,"type":"VEC4"},{"bufferView":3,"componentType":5126,"count":9688,"type":"VEC2"},{"bufferView":4,"componentType":5126,"count":9688,"type":"VEC2"},{"bufferView":5,"componentType":5126,"count":9688,"type":"VEC2"},{"bufferView":6,"componentType":5125,"count":42099,"type":"SCALAR"},{"bufferView":7,"componentType":5126,"count":13592,"type":"VEC3","min":[-0.3755261,0.056199655,-0.16590138],"max":[0.47887725,1.6229898,0.16893616]},{"bufferView":8,"componentType":5126,"count":13592,"type":"VEC3"},{"bufferView":9,"componentType":5126,"count":13592,"type":"VEC4"},{"bufferView":10,"componentType":5126,"count":13592,"type":"VEC2"},{"bufferView":11,"componentType":5126,"count":13592,"type":"VEC2"},{"bufferView":12,"componentType":5126,"count":13592,"type":"VEC2"},{"bufferView":13,"componentType":5125,"count":62643,"type":"SCALAR"},{"bufferView":14,"componentType":5126,"count":105,"type":"VEC3","min":[-0.045072123,1.6981287,-0.09239223],"max":[0.045240723,1.7021751,-0.085648276]},{"bufferView":15,"componentType":5126,"count":105,"type":"VEC3"},{"bufferView":16,"componentType":5126,"count":105,"type":"VEC4"},{"bufferView":17,"componentType":5126,"count":105,"type":"VEC2"},{"bufferView":18,"componentType":5126,"count":105,"type":"VEC2"},{"bufferView":19,"componentType":5126,"count":105,"type":"VEC2"},{"bufferView":20,"componentType":5125,"count":396,"type":"SCALAR"},{"bufferView":21,"componentType":5126,"count":19469,"type":"VEC3","min":[-0.095314614,1.5589222,-0.12695502],"max":[0.0985742,1.8414941,0.12358304]},{"bufferView":22,"componentType":5126,"count":19469,"type":"VEC3"},{"bufferView":23,"componentType":5126,"count":19469,"type":"VEC4"},{"bufferView":24,"componentType":5126,"count":19469,"type":"VEC2"},{"bufferView":25,"componentType":5126,"count":19469,"type":"VEC2"},{"bufferView":26,"componentType":5126,"count":19469,"type":"VEC2"},{"bufferView":27,"componentType":5125,"count":49512,"type":"SCALAR"},{"bufferView":28,"componentType":5126,"count":19469,"type":"VEC3","min":[-0.095314614,1.5589222,-0.12695502],"max":[0.0985742,1.8414941,0.12358304]},{"bufferView":29,"componentType":5126,"count":19469,"type":"VEC3"},{"bufferView":30,"componentType":5126,"count":19469,"type":"VEC4"},{"bufferView":31,"componentType":5126,"count":19469,"type":"VEC2"},{"bufferView":32,"componentType":5126,"count":19469,"type":"VEC2"},{"bufferView":33,"componentType":5126,"count":19469,"type":"VEC2"},{"bufferView":34,"componentType":5125,"count":49512,"type":"SCALAR"},{"bufferView":35,"componentType":5126,"count":565,"type":"VEC3","min":[-0.048612703,1.1377058,-0.13785776],"max":[0.47550526,1.7203276,-0.07395875]},{"bufferView":36,"componentType":5126,"count":565,"type":"VEC3"},{"bufferView":37,"componentType":5126,"count":565,"type":"VEC4"},{"bufferView":38,"componentType":5126,"count":565,"type":"VEC2"},{"bufferView":39,"componentType":5126,"count":565,"type":"VEC2"},{"bufferView":40,"componentType":5126,"count":565,"type":"VEC2"},{"bufferView":41,"componentType":5125,"count":2496,"type":"SCALAR"},{"bufferView":42,"componentType":5126,"count":8074,"type":"VEC3","min":[-0.50135714,0.9451658,-0.2412651],"max":[0.50135714,1.8195763,0.097113006]},{"bufferView":43,"componentType":5126,"count":8074,"type":"VEC3"},{"bufferView":44,"componentType":5126,"count":8074,"type":"VEC4"},{"bufferView":45,"componentType":5126,"count":8074,"type":"VEC2"},{"bufferView":46,"componentType":5126,"count":8074,"type":"VEC2"},{"bufferView":47,"componentType":5126,"count":8074,"type":"VEC2"},{"bufferView":48,"componentType":5125,"count":44145,"type":"SCALAR"}],"bufferViews":[{"buffer":0,"byteOffset":0,"byteLength":116256,"target":34962},{"buffer":0,"byteOffset":116256,"byteLength":116256,"target":34962},{"buffer":0,"byteOffset":232512,"byteLength":155008,"target":34962},{"buffer":0,"byteOffset":387520,"byteLength":77504,"target":34962},{"buffer":0,"byteOffset":465024,"byteLength":77504,"target":34962},{"buffer":0,"byteOffset":542528,"byteLength":77504,"target":34962},{"buffer":0,"byteOffset":620032,"byteLength":168396,"target":34963},{"buffer":0,"byteOffset":788428,"byteLength":163104,"target":34962},{"buffer":0,"byteOffset":951532,"byteLength":163104,"target":34962},{"buffer":0,"byteOffset":1114636,"byteLength":217472,"target":34962},{"buffer":0,"byteOffset":1332108,"byteLength":108736,"target":34962},{"buffer":0,"byteOffset":1440844,"byteLength":108736,"target":34962},{"buffer":0,"byteOffset":1549580,"byteLength":108736,"target":34962},{"buffer":0,"byteOffset":1658316,"byteLength":250572,"target":34963},{"buffer":0,"byteOffset":1908888,"byteLength":1260,"target":34962},{"buffer":0,"byteOffset":1910148,"byteLength":1260,"target":34962},{"buffer":0,"byteOffset":1911408,"byteLength":1680,"target":34962},{"buffer":0,"byteOffset":1913088,"byteLength":840,"target":34962},{"buffer":0,"byteOffset":1913928,"byteLength":840,"target":34962},{"buffer":0,"byteOffset":1914768,"byteLength":840,"target":34962},{"buffer":0,"byteOffset":1915608,"byteLength":1584,"target":34963},{"buffer":0,"byteOffset":1917192,"byteLength":233628,"target":34962},{"buffer":0,"byteOffset":2150820,"byteLength":233628,"target":34962},{"buffer":0,"byteOffset":2384448,"byteLength":311504,"target":34962},{"buffer":0,"byteOffset":2695952,"byteLength":155752,"target":34962},{"buffer":0,"byteOffset":2851704,"byteLength":155752,"target":34962},{"buffer":0,"byteOffset":3007456,"byteLength":155752,"target":34962},{"buffer":0,"byteOffset":3163208,"byteLength":198048,"target":34963},{"buffer":0,"byteOffset":3361256,"byteLength":233628,"target":34962},{"buffer":0,"byteOffset":3594884,"byteLength":233628,"target":34962},{"buffer":0,"byteOffset":3828512,"byteLength":311504,"target":34962},{"buffer":0,"byteOffset":4140016,"byteLength":155752,"target":34962},{"buffer":0,"byteOffset":4295768,"byteLength":155752,"target":34962},{"buffer":0,"byteOffset":4451520,"byteLength":155752,"target":34962},{"buffer":0,"byteOffset":4607272,"byteLength":198048,"target":34963},{"buffer":0,"byteOffset":4805320,"byteLength":6780,"target":34962},{"buffer":0,"byteOffset":4812100,"byteLength":6780,"target":34962},{"buffer":0,"byteOffset":4818880,"byteLength":9040,"target":34962},{"buffer":0,"byteOffset":4827920,"byteLength":4520,"target":34962},{"buffer":0,"byteOffset":4832440,"byteLength":4520,"target":34962},{"buffer":0,"byteOffset":4836960,"byteLength":4520,"target":34962},{"buffer":0,"byteOffset":4841480,"byteLength":9984,"target":34963},{"buffer":0,"byteOffset":4851464,"byteLength":96888,"target":34962},{"buffer":0,"byteOffset":4948352,"byteLength":96888,"target":34962},{"buffer":0,"byteOffset":5045240,"byteLength":129184,"target":34962},{"buffer":0,"byteOffset":5174424,"byteLength":64592,"target":34962},{"buffer":0,"byteOffset":5239016,"byteLength":64592,"target":34962},{"buffer":0,"byteOffset":5303608,"byteLength":64592,"target":34962},{"buffer":0,"byteOffset":5368200,"byteLength":176580,"target":34963}],"buffers":[{"uri":"rico_preview__rico_body_lod1.bin","byteLength":5544780}]}